<svg width="345" height="264" viewBox="0 0 345 264" fill="none" xmlns="http://www.w3.org/2000/svg">
<g clip-path="url(#clip0_10148_307609)">
<g opacity="0.15">
<path d="M7.93637 80.5592C-5.04347 109.627 22.1568 134.456 47.6988 143.059C52.9231 144.823 58.6275 146.176 62.4492 150.166C66.6824 154.579 67.605 161.33 66.5515 167.345C65.4974 173.361 62.7672 178.934 60.4978 184.601C32.7613 253.876 124.162 260.21 169.916 263.146C217.471 266.207 297.095 262.697 331.21 223.25C359.607 190.448 308.766 179.358 297.114 156.218C291.921 145.876 291.659 133.877 290.375 122.375C284.983 73.9698 256.298 26.0697 210.981 8.09776C182.303 -3.26639 149.692 -1.83884 120.129 7.02557C93.0284 15.1793 24.2266 44.0978 7.93637 80.5592Z" fill="#7FEC96"/>
</g>
<path d="M140.603 61.9947C140.164 61.9945 139.736 61.8656 139.37 61.624C139.004 61.3824 138.717 61.0389 138.545 60.6358L121.208 20.029C120.993 19.4869 121 18.8828 121.224 18.3451C121.448 17.8073 121.874 17.3784 122.41 17.1494C122.946 16.9205 123.55 16.9095 124.094 17.119C124.638 17.3284 125.078 17.7418 125.323 18.271L142.679 58.8779C142.912 59.4234 142.918 60.0392 142.697 60.5897C142.477 61.1403 142.046 61.5806 141.5 61.8139C141.217 61.9365 140.911 61.998 140.603 61.9947Z" fill="#142A3B"/>
<path d="M169.205 59.7258C168.921 59.7263 168.639 59.6712 168.376 59.5637C168.103 59.4552 167.854 59.294 167.644 59.0891C167.433 58.8843 167.265 58.6399 167.15 58.37C167.034 58.1002 166.972 57.8101 166.969 57.5164C166.965 57.2227 167.019 56.9314 167.129 56.6588L183.581 15.678C183.809 15.1371 184.241 14.7076 184.783 14.482C185.325 14.2564 185.934 14.2528 186.479 14.4719C187.023 14.691 187.46 15.1154 187.695 15.6536C187.93 16.1917 187.943 16.8005 187.733 17.3487L171.275 58.3232C171.109 58.7369 170.824 59.0915 170.455 59.3415C170.086 59.5915 169.651 59.7253 169.205 59.7258Z" fill="#142A3B"/>
<path d="M119.181 81.0829C118.895 81.0841 118.611 81.0287 118.346 80.9204L77.3681 64.4695C76.8383 64.2348 76.4207 63.8033 76.2025 63.2666C75.9843 62.7299 75.9824 62.1292 76.1981 61.5913C76.4138 61.0534 76.8296 60.6202 77.3582 60.3827C77.8868 60.1452 78.4871 60.122 79.0325 60.318L120.017 76.7748C120.502 76.9666 120.904 77.3209 121.154 77.7779C121.405 78.2343 121.488 78.7648 121.389 79.276C121.289 79.7872 121.015 80.2479 120.611 80.5779C120.209 80.9079 119.702 81.0866 119.181 81.0829Z" fill="#142A3B"/>
<path d="M61.1213 241.783C47.0497 241.813 33.4005 236.977 22.4864 228.095C11.5724 219.214 4.06474 206.833 1.23554 193.049C-1.59366 179.267 0.429587 164.929 6.9625 152.467C13.4954 140.005 24.1361 130.184 37.0818 124.669L70.5598 110.375C83.1852 104.984 97.2592 104.008 110.507 107.604C123.756 111.2 135.404 119.158 143.57 130.192C143.771 130.463 143.909 130.777 143.972 131.108C144.035 131.44 144.022 131.781 143.933 132.107C143.845 132.433 143.684 132.735 143.463 132.989C143.241 133.244 142.964 133.445 142.653 133.577L111.164 147.024C110.808 147.174 110.418 147.23 110.033 147.185C109.648 147.14 109.282 146.996 108.969 146.768C105.539 144.268 101.52 142.698 97.3028 142.212C93.0858 141.726 88.8146 142.34 84.905 143.994L51.4457 158.332C45.4833 160.877 40.7768 165.687 38.3613 171.703C35.9458 177.719 36.0193 184.449 38.5656 190.411C41.1119 196.372 45.9224 201.078 51.9389 203.494C57.9554 205.909 64.6847 205.835 70.6471 203.289L104.107 189.008C108.009 187.327 111.408 184.663 113.973 181.276C116.538 177.889 118.179 173.894 118.739 169.683C118.791 169.299 118.942 168.935 119.177 168.627C119.412 168.319 119.723 168.077 120.079 167.925L151.562 154.479C151.875 154.34 152.214 154.274 152.556 154.287C152.897 154.301 153.231 154.391 153.532 154.553C153.833 154.715 154.093 154.944 154.292 155.221C154.491 155.499 154.623 155.819 154.679 156.156C157.004 169.683 154.7 183.598 148.138 195.654C141.577 207.709 131.143 217.202 118.52 222.596L84.9922 236.877C77.4484 240.108 69.3281 241.777 61.1213 241.783ZM94.4497 109.926C86.838 109.937 79.3079 111.496 72.3183 114.508L38.8399 128.802C32.0127 131.717 25.8266 135.948 20.6347 141.253C15.4427 146.558 11.3467 152.834 8.58035 159.722C5.81403 166.61 4.43163 173.976 4.51209 181.398C4.59255 188.82 6.13429 196.154 9.0493 202.98C11.9643 209.807 16.1954 215.993 21.5011 221.185C26.8068 226.376 33.0833 230.472 39.972 233.238C46.8607 236.004 54.2269 237.386 61.6498 237.305C69.0731 237.225 76.4074 235.684 83.2344 232.769L116.713 218.475C128.542 213.484 138.293 204.573 144.324 193.241C149.811 182.986 152.02 171.296 150.652 159.747L122.978 171.591C122.122 176.304 120.114 180.732 117.134 184.483C114.154 188.234 110.294 191.191 105.896 193.091L72.4367 207.373C68.9341 208.922 65.1591 209.761 61.3301 209.841C57.5011 209.92 53.6944 209.237 50.1311 207.834C46.5678 206.431 43.3187 204.333 40.5726 201.664C37.8265 198.994 35.638 195.806 34.1341 192.284C32.6301 188.762 31.8408 184.977 31.8118 181.147C31.7828 177.318 32.5147 173.521 33.9652 169.976C35.4156 166.432 37.5557 163.211 40.2611 160.5C42.9665 157.79 46.1833 155.644 49.725 154.186L83.1783 139.898C87.6047 138.023 92.427 137.273 97.2137 137.717C102.001 138.161 106.603 139.784 110.609 142.442L138.277 130.597C132.954 124.139 126.271 118.936 118.704 115.358C111.138 111.781 102.876 109.917 94.5058 109.901L94.4497 109.926Z" fill="#142A3B"/>
<path d="M163.937 136.556C164.656 138.241 165.028 140.054 165.028 141.886C165.028 143.718 164.658 145.531 163.939 147.216C163.221 148.9 162.169 150.422 160.846 151.69C159.523 152.958 157.958 153.944 156.244 154.591L111.258 174.122C107.943 175.535 104.203 175.574 100.859 174.231C97.5158 172.888 94.8423 170.273 93.4272 166.959C92.0135 163.644 91.9736 159.903 93.3169 156.559C94.6602 153.215 97.2764 150.54 100.591 149.124L146.662 129.176C149.937 127.94 153.563 128.016 156.783 129.389C160.003 130.762 162.568 133.326 163.943 136.544L163.937 136.556Z" fill="#00E1D8"/>
<path d="M105.896 177.45C102.247 177.455 98.7092 176.198 95.8804 173.893C93.0517 171.589 91.1056 168.378 90.3725 164.804C89.6388 161.23 90.1631 157.512 91.8561 154.28C93.5485 151.048 96.3062 148.5 99.6617 147.067L145.796 127.163L145.896 127.125C149.71 125.676 153.938 125.76 157.691 127.361C161.445 128.961 164.432 131.953 166.026 135.709C166.861 137.666 167.293 139.772 167.295 141.9C167.297 144.028 166.869 146.135 166.037 148.093C165.205 150.052 163.987 151.823 162.454 153.299C160.921 154.776 159.106 155.927 157.117 156.686L112.131 176.166C110.161 177.013 108.04 177.45 105.896 177.45ZM147.466 131.258L101.445 151.206C100 151.739 98.6793 152.561 97.5616 153.621C96.4446 154.68 95.555 155.957 94.9467 157.371C94.3383 158.785 94.0241 160.309 94.0228 161.849C94.0222 163.389 94.3345 164.913 94.9411 166.328C95.5476 167.743 96.4365 169.02 97.5523 170.081C98.6681 171.143 99.9883 171.965 101.433 172.5C102.876 173.035 104.414 173.271 105.953 173.193C107.49 173.114 108.996 172.724 110.378 172.046L155.353 152.522L155.453 152.478C156.884 151.939 158.191 151.115 159.296 150.057C160.4 148.999 161.279 147.729 161.88 146.323C162.481 144.916 162.79 143.402 162.79 141.873C162.79 140.343 162.481 138.83 161.88 137.423C160.739 134.74 158.605 132.6 155.924 131.451C153.243 130.303 150.222 130.234 147.491 131.258H147.466Z" fill="#142A3B"/>
<path d="M249.535 161.28C240.001 161.281 230.599 159.045 222.087 154.753C213.574 150.459 206.188 144.229 200.521 136.563C200.32 136.292 200.184 135.979 200.122 135.647C200.059 135.316 200.072 134.974 200.161 134.649C200.249 134.324 200.41 134.022 200.63 133.768C200.852 133.513 201.127 133.311 201.437 133.178L232.926 119.738C233.284 119.586 233.675 119.53 234.061 119.575C234.447 119.619 234.814 119.764 235.127 119.994C238.554 122.499 242.571 124.074 246.786 124.566C251.003 125.058 255.275 124.449 259.185 122.799L292.644 108.461C295.597 107.201 298.272 105.371 300.517 103.076C302.762 100.782 304.533 98.0679 305.729 95.0892C306.925 92.1105 307.523 88.925 307.488 85.7153C307.453 82.5056 306.786 79.3345 305.525 76.3819C304.264 73.43 302.434 70.7557 300.14 68.5105C297.845 66.2659 295.13 64.4951 292.151 63.299C289.172 62.1031 285.987 61.5056 282.777 61.5406C279.567 61.5757 276.396 62.2426 273.443 63.5032L239.984 77.7847C236.086 79.4628 232.689 82.1221 230.125 85.5036C227.56 88.8846 225.916 92.8726 225.352 97.0785C225.299 97.4633 225.149 97.8276 224.914 98.137C224.679 98.4459 224.368 98.6893 224.012 98.8425L192.553 112.308C192.241 112.447 191.901 112.512 191.559 112.499C191.218 112.486 190.884 112.396 190.583 112.234C190.282 112.072 190.022 111.843 189.823 111.565C189.624 111.287 189.492 110.968 189.436 110.63C187.112 97.1034 189.416 83.188 195.977 71.1324C202.538 59.0767 212.973 49.585 225.595 44.1911L259.098 29.9157C266.466 26.7702 274.382 25.1065 282.393 25.0199C290.405 24.9332 298.354 26.4252 305.789 29.4107C313.224 32.3962 319.998 36.8166 325.724 42.4197C331.45 48.0228 336.016 54.6987 339.162 62.0664C342.308 69.4339 343.972 77.3489 344.058 85.3598C344.145 93.3701 342.653 101.319 339.667 108.754C336.681 116.187 332.26 122.96 326.657 128.686C321.054 134.412 314.377 138.978 307.008 142.124L273.531 156.418C265.941 159.638 257.779 161.292 249.535 161.28ZM205.895 136.152C213.288 145.13 223.259 151.622 234.46 154.753C246.823 158.234 260.007 157.354 271.797 152.26L305.275 137.966C312.102 135.051 318.289 130.82 323.48 125.515C328.673 120.21 332.769 113.933 335.535 107.046C338.301 100.157 339.684 92.7916 339.603 85.3698C339.523 77.9472 337.981 70.6138 335.066 63.7871C332.151 56.9604 327.92 50.7747 322.614 45.5833C317.309 40.3918 311.032 36.2961 304.143 33.53C297.255 30.7639 289.889 29.3816 282.466 29.4621C275.042 29.5425 267.708 31.0841 260.881 33.9988L227.403 48.2929C215.56 53.285 205.8 62.2056 199.766 73.552C194.279 83.8063 192.07 95.497 193.438 107.046L221.112 95.2019C221.965 90.4767 223.974 86.0354 226.961 82.2765C229.948 78.517 233.821 75.5557 238.232 73.6579L271.685 59.3765C275.184 57.8432 278.953 57.0184 282.773 56.9498C286.594 56.8812 290.389 57.5701 293.942 58.9768C297.494 60.3835 300.732 62.4802 303.47 65.1451C306.207 67.8106 308.388 70.9917 309.889 74.5053C311.39 78.0182 312.18 81.7945 312.213 85.6145C312.245 89.435 311.521 93.2238 310.081 96.7622C308.641 100.301 306.514 103.519 303.823 106.231C301.132 108.944 297.931 111.095 294.403 112.563L260.943 126.876C256.518 128.754 251.695 129.505 246.909 129.062C242.121 128.62 237.518 126.996 233.512 124.338L205.895 136.152Z" fill="#142A3B"/>
<path d="M182.815 128.409C182.11 126.76 181.738 124.989 181.72 123.196C181.703 121.403 182.041 119.624 182.715 117.962C183.388 116.3 184.383 114.788 185.644 113.513C186.905 112.237 188.405 111.224 190.06 110.531L232.82 92.6652C236.135 91.2494 239.876 91.2076 243.221 92.5501C246.566 93.8918 249.24 96.5076 250.657 99.8213C252.071 103.136 252.11 106.877 250.767 110.221C249.424 113.565 246.808 116.24 243.493 117.656L200.539 135.603C197.233 136.983 193.515 137.002 190.196 135.654C186.877 134.307 184.224 131.703 182.815 128.409Z" fill="#00E1D8"/>
<path d="M195.352 138.888C192.247 138.89 189.209 137.98 186.615 136.273C184.02 134.565 181.985 132.135 180.758 129.282C179.938 127.361 179.506 125.297 179.487 123.209C179.468 121.121 179.863 119.049 180.648 117.114C181.433 115.179 182.594 113.418 184.062 111.933C185.531 110.448 187.279 109.268 189.206 108.461L231.972 90.5956C235.831 88.953 240.184 88.9088 244.075 90.4723C247.966 92.0364 251.078 95.0805 252.726 98.9359C254.364 102.794 254.405 107.144 252.842 111.032C251.278 114.92 248.238 118.031 244.385 119.682L201.412 137.642C199.495 138.457 197.435 138.88 195.352 138.888ZM184.873 127.524C186.054 130.273 188.271 132.446 191.044 133.572C193.816 134.698 196.921 134.686 199.685 133.54L242.645 115.587C245.31 114.336 247.385 112.098 248.431 109.347C249.477 106.596 249.413 103.545 248.251 100.841C247.09 98.1358 244.923 95.9883 242.208 94.8513C239.493 93.7138 236.442 93.677 233.7 94.7467L190.932 112.594C189.546 113.171 188.288 114.018 187.231 115.085C186.175 116.151 185.341 117.418 184.777 118.809C184.213 120.201 183.931 121.69 183.948 123.191C183.964 124.693 184.279 126.176 184.873 127.556V127.524Z" fill="#142A3B"/>
<path d="M242.813 106.217C242.563 106.221 242.316 106.148 242.107 106.009C241.898 105.87 241.736 105.671 241.642 105.438C240.985 103.913 239.849 102.644 238.405 101.824C236.961 101.004 235.289 100.677 233.643 100.893C233.307 100.939 232.968 100.849 232.698 100.644C232.428 100.439 232.251 100.135 232.206 99.7995C232.16 99.4639 232.25 99.1239 232.455 98.8543C232.661 98.5853 232.965 98.4079 233.3 98.3624C235.5 98.071 237.736 98.5062 239.666 99.6021C241.597 100.699 243.116 102.395 243.992 104.434C244.125 104.746 244.129 105.098 244.003 105.412C243.876 105.726 243.63 105.978 243.318 106.111C243.159 106.18 242.987 106.216 242.813 106.217Z" fill="#142A3B"/>
<path d="M220.832 249.868C220.393 249.867 219.964 249.738 219.597 249.497C219.231 249.255 218.943 248.912 218.769 248.509L201.431 207.902C201.217 207.36 201.223 206.756 201.447 206.218C201.672 205.68 202.097 205.251 202.633 205.023C203.169 204.794 203.773 204.783 204.317 204.992C204.861 205.201 205.302 205.615 205.545 206.144L222.883 246.751C223.116 247.296 223.123 247.912 222.901 248.463C222.681 249.014 222.25 249.454 221.705 249.687C221.43 249.808 221.132 249.869 220.832 249.868Z" fill="#142A3B"/>
<path d="M158.426 252.505C158.14 252.503 157.857 252.448 157.591 252.343C157.318 252.233 157.068 252.071 156.858 251.866C156.648 251.661 156.48 251.416 156.364 251.146C156.248 250.875 156.187 250.585 156.183 250.291C156.18 249.996 156.234 249.705 156.344 249.431L172.802 208.457C172.912 208.185 173.074 207.937 173.279 207.727C173.484 207.518 173.728 207.35 173.998 207.235C174.268 207.12 174.558 207.059 174.851 207.056C175.144 207.053 175.435 207.107 175.708 207.216C175.98 207.326 176.228 207.488 176.438 207.693C176.647 207.898 176.814 208.142 176.93 208.412C177.045 208.682 177.106 208.972 177.109 209.265C177.112 209.558 177.057 209.849 176.948 210.122L160.496 251.102C160.33 251.515 160.044 251.87 159.675 252.119C159.306 252.369 158.872 252.504 158.426 252.505Z" fill="#142A3B"/>
<path d="M265.887 206.625C265.603 206.622 265.321 206.568 265.058 206.462L224.074 190.005C223.533 189.777 223.103 189.345 222.877 188.804C222.652 188.261 222.648 187.653 222.868 187.108C223.086 186.563 223.511 186.127 224.049 185.892C224.587 185.657 225.196 185.644 225.744 185.854L266.722 202.311C267.204 202.505 267.604 202.861 267.852 203.317C268.1 203.773 268.182 204.302 268.084 204.812C267.984 205.322 267.711 205.782 267.311 206.113C266.91 206.444 266.407 206.624 265.887 206.625Z" fill="#142A3B"/>
<path d="M146.656 153.774C146.495 153.808 146.329 153.809 146.168 153.778C146.006 153.747 145.853 153.685 145.715 153.594C145.439 153.412 145.245 153.127 145.178 152.802C145.111 152.477 145.176 152.139 145.359 151.862C145.541 151.585 145.826 151.392 146.151 151.325L152.878 148.451C153.189 148.318 153.541 148.314 153.856 148.44C154.17 148.567 154.422 148.813 154.554 149.124C154.688 149.436 154.692 149.788 154.566 150.102C154.439 150.416 154.193 150.668 153.881 150.801L147.155 153.675C146.997 153.742 146.827 153.776 146.656 153.774Z" fill="#142A3B"/>
<path d="M318.804 122.001C318.55 122.001 318.302 121.926 318.092 121.784C317.881 121.644 317.718 121.442 317.621 121.208C317.525 120.974 317.501 120.716 317.551 120.467C317.602 120.219 317.726 119.991 317.906 119.813C321.945 115.847 325.191 111.148 327.47 105.968C327.607 105.658 327.861 105.415 328.178 105.293C328.494 105.17 328.846 105.179 329.156 105.316C329.466 105.454 329.709 105.708 329.831 106.025C329.953 106.341 329.945 106.693 329.807 107.003C327.397 112.481 323.965 117.451 319.695 121.645C319.578 121.761 319.438 121.852 319.285 121.913C319.133 121.974 318.969 122.003 318.804 122.001Z" fill="#142A3B"/>
<path d="M304.571 131.526C304.275 131.529 303.987 131.428 303.757 131.242C303.527 131.056 303.368 130.796 303.309 130.506C303.249 130.216 303.292 129.914 303.43 129.653C303.568 129.391 303.793 129.185 304.066 129.07C306.517 128.033 308.872 126.781 311.104 125.33C311.387 125.144 311.732 125.078 312.063 125.146C312.395 125.214 312.685 125.412 312.872 125.695C313.058 125.977 313.124 126.322 313.055 126.654C312.987 126.985 312.79 127.276 312.507 127.462C310.15 129.006 307.661 130.339 305.069 131.445C304.91 131.505 304.741 131.533 304.571 131.526Z" fill="#142A3B"/>
<path d="M14.4204 203.688C14.1689 203.693 13.9218 203.622 13.7115 203.484C13.5012 203.346 13.3376 203.148 13.242 202.915C11.6764 199.244 10.5182 195.412 9.78823 191.488C9.76841 191.177 9.86316 190.869 10.0548 190.623C10.2463 190.376 10.5214 190.209 10.8282 190.152C11.1349 190.094 11.4521 190.15 11.7199 190.311C11.9877 190.471 12.1876 190.724 12.2819 191.021C12.9711 194.762 14.0729 198.414 15.5674 201.911C15.6584 202.105 15.6982 202.319 15.6828 202.532C15.6675 202.745 15.5976 202.951 15.48 203.129C15.3623 203.307 15.2007 203.452 15.0109 203.55C14.8209 203.648 14.609 203.696 14.3954 203.688H14.4204Z" fill="#142A3B"/>
<path d="M10.2183 185.03C9.88764 185.03 9.57054 184.899 9.33666 184.666C9.10284 184.431 8.9715 184.114 8.9715 183.784C8.89769 181.793 8.9331 179.799 9.07747 177.812C9.10614 177.475 9.26566 177.161 9.52198 176.94C9.7783 176.719 10.111 176.607 10.449 176.627C10.618 176.636 10.7834 176.678 10.9353 176.753C11.0872 176.827 11.2224 176.932 11.3326 177.06C11.4428 177.188 11.5258 177.338 11.5765 177.5C11.6271 177.661 11.6444 177.831 11.6273 177.999C11.4892 179.89 11.4539 181.788 11.5213 183.684C11.5324 183.854 11.5084 184.025 11.4507 184.186C11.393 184.347 11.303 184.494 11.1861 184.619C11.0691 184.743 10.9279 184.842 10.7711 184.91C10.6143 184.977 10.4452 185.012 10.2744 185.012L10.2183 185.03Z" fill="#142A3B"/>
</g>
<defs>
<clipPath id="clip0_10148_307609">
<rect width="344.09" height="264" fill="white"/>
</clipPath>
</defs>
</svg>
