<svg width="160" height="160" viewBox="0 0 160 160" fill="none" xmlns="http://www.w3.org/2000/svg">
<g opacity="0.15">
<path d="M39.9895 93.1986C43.1495 94.4186 46.6095 95.1986 48.1095 98.0986C48.9395 99.7086 48.8995 101.599 49.1595 103.389C50.4095 112.019 58.7995 118.089 67.3795 116.989C75.1095 115.989 81.5995 109.969 84.6195 102.789C85.9295 99.6686 86.9195 96.0286 89.8395 94.3386C91.4295 93.4186 93.3295 93.2586 95.0995 92.7586C100.65 91.1886 104.87 85.7686 105.03 80.0086C105.2 74.2486 101.29 68.5986 95.8495 66.7086C91.7295 65.2786 87.1195 65.8786 82.9695 64.5486C75.8995 62.2786 70.7995 55.9386 62.9695 55.9886C52.9895 56.0586 39.2095 65.3886 34.3595 73.9386C31.0495 79.7686 31.5695 88.3486 37.2595 91.9086C38.0995 92.4386 39.0295 92.8486 39.9895 93.2186V93.1986Z" fill="#7FEC96"/>
</g>
<path d="M85.7645 90.4182C86.5485 87.0964 84.4912 83.7679 81.1694 82.9839C77.8475 82.1998 74.5191 84.2572 73.735 87.579C72.951 90.9009 75.0083 94.2293 78.3302 95.0134C81.652 95.7974 84.9805 93.7401 85.7645 90.4182Z" fill="#00E1D8"/>
<path d="M79.75 95.9591C75.91 95.9591 72.79 92.8391 72.79 88.9991C72.79 85.1591 75.91 82.0391 79.75 82.0391C83.59 82.0391 86.71 85.1591 86.71 88.9991C86.71 92.8391 83.59 95.9591 79.75 95.9591ZM79.75 83.6091C76.78 83.6091 74.36 86.0291 74.36 88.9991C74.36 91.9691 76.78 94.3891 79.75 94.3891C82.72 94.3891 85.14 91.9691 85.14 88.9991C85.14 86.0291 82.72 83.6091 79.75 83.6091Z" fill="#142A3B"/>
<path d="M80.5407 65.7109H78.9707V82.8309H80.5407V65.7109Z" fill="#142A3B"/>
<path d="M85.6035 91.3735L84.6982 92.6562L105.075 107.036L105.981 105.753L85.6035 91.3735Z" fill="#142A3B"/>
<path d="M73.78 91.3633L53.4268 105.742L54.3327 107.024L74.6859 92.6456L73.78 91.3633Z" fill="#142A3B"/>
<path d="M94.5502 66.6405H65.0202C62.0902 66.6405 59.7002 64.2505 59.7002 61.3205V31.8005C59.7002 28.8605 62.0902 26.4805 65.0202 26.4805H94.5502C97.4802 26.4805 99.8702 28.8705 99.8702 31.8005V61.3205C99.8702 64.2605 97.4802 66.6405 94.5502 66.6405ZM65.0202 28.0405C62.9502 28.0405 61.2702 29.7205 61.2702 31.8005V61.3205C61.2702 63.3905 62.9502 65.0805 65.0202 65.0805H94.5502C96.6202 65.0805 98.3002 63.4005 98.3002 61.3205V31.8005C98.3002 29.7305 96.6202 28.0405 94.5502 28.0405H65.0202Z" fill="#142A3B"/>
<path d="M79.8797 47.4511H79.8598C76.0498 47.4311 72.9598 44.3211 72.9698 40.5111C72.9698 38.6611 73.6998 36.9311 75.0098 35.6311C76.3098 34.3311 78.0397 33.6211 79.8797 33.6211H79.9098C81.7598 33.6211 83.4897 34.3511 84.7898 35.6611C86.0898 36.9711 86.7998 38.7111 86.7998 40.5611C86.7898 44.3611 83.6897 47.4511 79.8797 47.4511ZM79.8797 34.5211C78.2797 34.5211 76.7797 35.1411 75.6397 36.2711C74.4997 37.4011 73.8698 38.9111 73.8598 40.5211C73.8498 43.8411 76.5398 46.5511 79.8598 46.5611H79.8797C83.1897 46.5611 85.8898 43.8711 85.8998 40.5611C85.8998 38.9511 85.2898 37.4411 84.1498 36.3011C83.0198 35.1611 81.5098 34.5311 79.8998 34.5211H79.8797Z" fill="#142A3B"/>
<path d="M93.6102 66.311L65.9402 66.281C65.8202 66.281 65.7002 66.231 65.6202 66.151C65.5402 66.061 65.4902 65.951 65.4902 65.831L65.5702 59.611C65.4602 55.761 67.9502 51.941 71.3602 50.731C73.6402 49.921 76.2802 49.541 79.8302 49.581C83.4002 49.591 86.0102 49.971 88.2902 50.791C91.6902 52.021 94.1602 55.871 94.0202 59.731L94.0602 65.871C94.0602 65.991 94.0102 66.101 93.9302 66.191C93.8502 66.281 93.7302 66.321 93.6102 66.321V66.311ZM66.4002 65.381L93.1602 65.411L93.1202 59.711C93.2402 56.191 91.0302 52.731 87.9802 51.621C85.8002 50.831 83.2902 50.471 79.8302 50.461H79.6502C76.2702 50.461 73.8002 50.801 71.6602 51.561C68.6002 52.641 66.3702 56.091 66.4702 59.591L66.4002 65.381Z" fill="#142A3B"/>
<path d="M73.1604 66.1589C72.9104 66.1589 72.7104 65.9589 72.7104 65.7089L72.6904 58.3289C72.6904 58.0789 72.8904 57.8789 73.1404 57.8789C73.3904 57.8789 73.5904 58.0789 73.5904 58.3289L73.6104 65.7089C73.6104 65.9589 73.4104 66.1589 73.1604 66.1589Z" fill="#142A3B"/>
<path d="M86.3398 66.1592C86.0898 66.1592 85.8898 65.9492 85.8998 65.7092L85.9698 58.3892C85.9698 58.1392 86.1698 57.9492 86.4198 57.9492C86.6698 57.9492 86.8698 58.1592 86.8598 58.3992L86.7898 65.7192C86.7898 65.9692 86.5898 66.1592 86.3398 66.1592Z" fill="#142A3B"/>
<path d="M79.78 54.7916C77.44 54.7916 75.54 52.8916 75.54 50.5516C75.54 50.3016 75.74 50.1016 75.99 50.1016C76.24 50.1016 76.44 50.3016 76.44 50.5516C76.44 52.3916 77.94 53.8916 79.78 53.8916C81.62 53.8916 83.12 52.3916 83.12 50.5516C83.12 50.3016 83.32 50.1016 83.57 50.1016C83.82 50.1016 84.02 50.3016 84.02 50.5516C84.02 52.8916 82.12 54.7916 79.78 54.7916Z" fill="#142A3B"/>
<path d="M63.0604 45.4603C62.8104 45.4603 62.6104 45.2603 62.6104 45.0103V37.7703C62.6104 37.5203 62.8104 37.3203 63.0604 37.3203C63.3104 37.3203 63.5103 37.5203 63.5103 37.7703V45.0103C63.5103 45.2603 63.3104 45.4603 63.0604 45.4603Z" fill="#142A3B"/>
<path d="M63.0604 36.2198C62.8104 36.2198 62.6104 36.0198 62.6104 35.7698V32.5398C62.6104 32.2898 62.8104 32.0898 63.0604 32.0898C63.3104 32.0898 63.5103 32.2898 63.5103 32.5398V35.7698C63.5103 36.0198 63.3104 36.2198 63.0604 36.2198Z" fill="#142A3B"/>
<path d="M49.4504 133.252H19.9304C16.9904 133.252 14.6104 130.862 14.6104 127.932V98.402C14.6104 95.472 17.0004 93.082 19.9304 93.082H49.4504C52.3904 93.082 54.7704 95.472 54.7704 98.402V127.932C54.7704 130.862 52.3804 133.252 49.4504 133.252ZM19.9304 94.652C17.8604 94.652 16.1704 96.332 16.1704 98.402V127.932C16.1704 130.002 17.8504 131.682 19.9304 131.682H49.4504C51.5204 131.682 53.2104 130.002 53.2104 127.932V98.402C53.2104 96.332 51.5303 94.652 49.4504 94.652H19.9304Z" fill="#142A3B"/>
<path d="M34.7901 114.06H34.7601C32.9101 114.06 31.1801 113.33 29.8801 112.02C28.5801 110.71 27.8701 108.97 27.8701 107.12C27.8801 103.32 30.9901 100.23 34.7901 100.23H34.8101C38.6201 100.25 41.7101 103.36 41.7001 107.17C41.7001 109.02 40.9701 110.75 39.6601 112.05C38.3601 113.35 36.6301 114.06 34.7901 114.06ZM34.7901 101.13C31.4801 101.13 28.7801 103.82 28.7701 107.13C28.7701 108.74 29.3801 110.25 30.5201 111.39C31.6501 112.53 33.1601 113.16 34.7701 113.17H34.7901C36.3901 113.17 37.8901 112.55 39.0301 111.42C40.1701 110.29 40.8001 108.78 40.8101 107.17C40.8201 103.85 38.1301 101.14 34.8101 101.13H34.7901Z" fill="#142A3B"/>
<path d="M48.5106 132.92L20.8406 132.89C20.7206 132.89 20.6006 132.84 20.5206 132.76C20.4406 132.67 20.3906 132.56 20.3906 132.44L20.4706 126.22C20.3606 122.37 22.8506 118.55 26.2506 117.34C28.5306 116.53 31.1606 116.15 34.7206 116.19C38.2906 116.2 40.9006 116.58 43.1806 117.4C46.5806 118.63 49.0506 122.48 48.9106 126.35L48.9506 132.48C48.9506 132.6 48.9006 132.71 48.8206 132.8C48.7406 132.89 48.6206 132.93 48.5006 132.93L48.5106 132.92ZM21.3006 131.99L48.0606 132.02L48.0206 126.32C48.1406 122.8 45.9306 119.33 42.8806 118.23C40.7006 117.44 38.1906 117.09 34.7306 117.07H34.5506C31.1706 117.07 28.7006 117.41 26.5606 118.17C23.5006 119.25 21.2706 122.7 21.3706 126.2L21.3006 131.99Z" fill="#142A3B"/>
<path d="M28.0608 132.772C27.8108 132.772 27.6108 132.572 27.6108 132.322L27.5908 124.942C27.5908 124.692 27.7908 124.492 28.0408 124.492C28.2908 124.492 28.4908 124.692 28.4908 124.942L28.5108 132.322C28.5108 132.572 28.3108 132.772 28.0608 132.772Z" fill="#142A3B"/>
<path d="M41.2402 132.773C40.9902 132.773 40.7902 132.563 40.8002 132.323L40.8702 125.003C40.8702 124.753 41.0702 124.562 41.3202 124.562C41.5702 124.562 41.7702 124.773 41.7602 125.013L41.6902 132.333C41.6902 132.583 41.4902 132.773 41.2402 132.773Z" fill="#142A3B"/>
<path d="M34.6804 121.401C32.3404 121.401 30.4404 119.501 30.4404 117.161C30.4404 116.911 30.6404 116.711 30.8904 116.711C31.1404 116.711 31.3404 116.911 31.3404 117.161C31.3404 119.001 32.8404 120.501 34.6804 120.501C36.5204 120.501 38.0204 119.001 38.0204 117.161C38.0204 116.911 38.2204 116.711 38.4704 116.711C38.7204 116.711 38.9204 116.911 38.9204 117.161C38.9204 119.501 37.0204 121.401 34.6804 121.401Z" fill="#142A3B"/>
<path d="M51.4207 112.071C51.1707 112.071 50.9707 111.871 50.9707 111.621V108.141C50.9707 107.891 51.1707 107.691 51.4207 107.691C51.6707 107.691 51.8707 107.891 51.8707 108.141V111.621C51.8707 111.871 51.6707 112.071 51.4207 112.071Z" fill="#142A3B"/>
<path d="M51.4207 106.593C51.1707 106.593 50.9707 106.393 50.9707 106.143V99.1531C50.9707 98.9031 51.1707 98.7031 51.4207 98.7031C51.6707 98.7031 51.8707 98.9031 51.8707 99.1531V106.143C51.8707 106.393 51.6707 106.593 51.4207 106.593Z" fill="#142A3B"/>
<path d="M139.691 133.252H110.171C107.231 133.252 104.851 130.862 104.851 127.932V98.402C104.851 95.472 107.241 93.082 110.171 93.082H139.691C142.631 93.082 145.011 95.472 145.011 98.402V127.932C145.011 130.862 142.621 133.252 139.691 133.252ZM110.171 94.652C108.101 94.652 106.411 96.332 106.411 98.402V127.932C106.411 130.002 108.091 131.682 110.171 131.682H139.691C141.761 131.682 143.451 130.002 143.451 127.932V98.402C143.451 96.332 141.771 94.652 139.691 94.652H110.171Z" fill="#142A3B"/>
<path d="M125.03 114.06H125C123.15 114.06 121.42 113.33 120.12 112.02C118.82 110.71 118.11 108.97 118.11 107.12C118.12 103.32 121.22 100.23 125.03 100.23H125.05C128.86 100.25 131.95 103.36 131.94 107.17C131.94 109.02 131.21 110.75 129.9 112.05C128.59 113.35 126.87 114.06 125.03 114.06ZM125.03 101.13C121.72 101.13 119.02 103.82 119.01 107.13C119.01 108.74 119.62 110.25 120.76 111.39C121.89 112.53 123.4 113.16 125.01 113.17H125.03C126.63 113.17 128.13 112.55 129.27 111.42C130.41 110.29 131.04 108.78 131.05 107.17C131.06 103.85 128.37 101.14 125.05 101.13H125.03Z" fill="#142A3B"/>
<path d="M138.751 132.92L111.081 132.89C110.961 132.89 110.841 132.84 110.761 132.76C110.681 132.67 110.631 132.56 110.631 132.44L110.711 126.22C110.601 122.37 113.091 118.55 116.491 117.34C118.771 116.53 121.411 116.15 124.961 116.19C128.531 116.2 131.141 116.58 133.421 117.4C136.821 118.63 139.291 122.48 139.151 126.35L139.191 132.48C139.191 132.6 139.141 132.71 139.061 132.8C138.981 132.89 138.861 132.93 138.741 132.93L138.751 132.92ZM111.541 131.99L138.301 132.02L138.261 126.32C138.381 122.8 136.171 119.33 133.121 118.23C130.941 117.44 128.431 117.09 124.971 117.07H124.791C121.411 117.07 118.941 117.41 116.801 118.17C113.741 119.25 111.511 122.7 111.611 126.2L111.541 131.99Z" fill="#142A3B"/>
<path d="M118.301 132.772C118.051 132.772 117.851 132.572 117.851 132.322L117.831 124.942C117.831 124.692 118.031 124.492 118.281 124.492C118.531 124.492 118.731 124.692 118.731 124.942L118.751 132.322C118.751 132.572 118.551 132.772 118.301 132.772Z" fill="#142A3B"/>
<path d="M131.48 132.773C131.23 132.773 131.03 132.563 131.04 132.323L131.11 125.003C131.11 124.753 131.31 124.562 131.56 124.562C131.81 124.562 132.01 124.773 132 125.013L131.93 132.333C131.93 132.583 131.73 132.773 131.48 132.773Z" fill="#142A3B"/>
<path d="M124.921 121.401C122.581 121.401 120.681 119.501 120.681 117.161C120.681 116.911 120.881 116.711 121.131 116.711C121.381 116.711 121.581 116.911 121.581 117.161C121.581 119.001 123.081 120.501 124.921 120.501C126.761 120.501 128.261 119.001 128.261 117.161C128.261 116.911 128.461 116.711 128.711 116.711C128.961 116.711 129.161 116.911 129.161 117.161C129.161 119.501 127.261 121.401 124.921 121.401Z" fill="#142A3B"/>
<path d="M114.571 96.8922H111.091C110.841 96.8922 110.641 96.6922 110.641 96.4422C110.641 96.1922 110.841 95.9922 111.091 95.9922H114.571C114.821 95.9922 115.021 96.1922 115.021 96.4422C115.021 96.6922 114.821 96.8922 114.571 96.8922Z" fill="#142A3B"/>
<path d="M123.55 96.8922H116.56C116.31 96.8922 116.11 96.6922 116.11 96.4422C116.11 96.1922 116.31 95.9922 116.56 95.9922H123.55C123.8 95.9922 124 96.1922 124 96.4422C124 96.6922 123.8 96.8922 123.55 96.8922Z" fill="#142A3B"/>
</svg>
