<svg width="160" height="160" viewBox="0 0 160 160" fill="none" xmlns="http://www.w3.org/2000/svg">
<rect width="160" height="160" fill="white"/>
<g opacity="0.15">
<path d="M146.279 102.35C147.619 98.5296 147.149 94.2696 145.779 90.4596C143.629 84.4996 139.269 79.3596 133.729 76.2696C131.509 75.0296 128.919 74.0996 126.439 74.6896C124.529 75.1496 122.949 76.4596 121.589 77.8796C116.299 83.3896 113.419 90.9096 107.949 96.2496C104.929 99.1996 101.169 101.39 97.1094 102.57C95.2494 103.11 93.3194 103.44 91.5294 104.19C89.7394 104.94 88.0494 106.18 87.3094 107.98C86.3194 110.39 87.2994 113.2 88.8394 115.3C92.7894 120.7 100.669 122.81 106.799 120.11C112.239 117.71 116.049 112.15 121.819 110.68C124.399 110.02 127.119 110.27 129.779 110.21C136.449 110.06 143.699 109.67 146.279 102.34V102.35Z" fill="#7FEC96"/>
</g>
<path d="M71.7599 84.31C71.6299 84.31 71.4899 84.27 71.3799 84.19L64.1999 79.19C63.4199 78.65 62.9699 77.8 62.9499 76.86C62.9299 75.92 63.3499 75.04 64.0999 74.47L71.3599 68.9C71.5599 68.75 71.8199 68.72 72.0399 68.82C72.2599 68.92 72.4099 69.14 72.4199 69.39L72.6199 73.2H83.6499C84.0199 73.2 84.3099 73.5 84.3099 73.86C84.3099 74.22 84.0099 74.52 83.6499 74.52H71.9899C71.6399 74.52 71.3399 74.24 71.3299 73.89L71.1699 70.71L64.9099 75.51C64.4999 75.82 64.2699 76.3 64.2899 76.82C64.2999 77.33 64.5499 77.8 64.9699 78.09L71.1799 82.41L71.3399 79.84C71.3599 79.47 71.7099 79.22 72.0399 79.22C72.4099 79.24 72.6899 79.56 72.6599 79.92L72.4299 83.68C72.4199 83.92 72.2699 84.13 72.0599 84.24C71.9699 84.28 71.8699 84.3 71.7699 84.3L71.7599 84.31Z" fill="#142A3B"/>
<path d="M88.1996 91.2393C88.1096 91.2393 88.0096 91.2193 87.9196 91.1793C87.6896 91.0793 87.5396 90.8593 87.5296 90.6093L87.3296 86.5693H76.7196C76.3496 86.5693 76.0596 86.2693 76.0596 85.9093C76.0596 85.5493 76.3596 85.2493 76.7196 85.2493H87.9596C88.3096 85.2493 88.6096 85.5293 88.6196 85.8793L88.7896 89.2593L95.1096 84.2693C95.5096 83.9493 95.7296 83.4793 95.7196 82.9693C95.6996 82.4593 95.4596 81.9993 95.0396 81.7093L88.7896 77.3593L88.6296 79.9293C88.6096 80.2793 88.3196 80.5493 87.9696 80.5493H72.2196C71.8496 80.5493 71.5596 80.2493 71.5596 79.8893C71.5596 79.5293 71.8596 79.2293 72.2196 79.2293H87.3496L87.5396 76.0993C87.5496 75.8593 87.6996 75.6493 87.9096 75.5393C88.1196 75.4293 88.3796 75.4493 88.5796 75.5893L95.7996 80.6093C96.5696 81.1393 97.0196 81.9893 97.0496 82.9193C97.0796 83.8493 96.6696 84.7193 95.9396 85.2993L88.6096 91.0893C88.4896 91.1793 88.3396 91.2293 88.1996 91.2293V91.2393Z" fill="#142A3B"/>
<path d="M21.06 102.271L21.15 95.0809C21.03 90.7709 23.79 86.6109 27.49 85.3009C29.88 84.4609 32.77 83.9909 37.1 84.0009C41.43 84.0209 44.32 84.5109 46.7 85.3709C50.4 86.7109 53.13 90.8909 52.98 95.2009L53.02 101.291V102.311H56.33C58 102.311 59.35 100.961 59.35 99.2909V60.7309C59.35 59.0609 58 57.7109 56.33 57.7109H17.77C16.1 57.7109 14.75 59.0609 14.75 60.7309V99.2909C14.75 100.961 16.1 102.311 17.77 102.311L21.06 102.271ZM37.14 80.5109C33.01 80.5009 29.68 77.1409 29.69 73.0109C29.7 68.8809 33.06 65.5509 37.19 65.5609C41.32 65.5709 44.65 68.9309 44.64 73.0609C44.63 77.1909 41.27 80.5209 37.14 80.5109ZM21.06 102.271L53.03 102.311L21.06 102.271Z" fill="#00E1D8"/>
<path d="M53.0298 102.971L21.0698 102.931L17.7898 102.971C15.7498 102.971 14.0898 101.321 14.0898 99.2812V60.7213C14.0898 58.6913 15.7498 57.0312 17.7798 57.0312H56.3398C58.3698 57.0312 60.0298 58.6813 60.0298 60.7213V99.2812C60.0298 101.311 58.3698 102.971 56.3398 102.971H53.0398H53.0298ZM53.6898 101.641H56.3298C57.6298 101.641 58.6898 100.581 58.6898 99.2812V60.7213C58.6898 59.4213 57.6298 58.3613 56.3298 58.3613H17.7698C16.4698 58.3613 15.4098 59.4213 15.4098 60.7213V99.2812C15.4098 100.581 16.4698 101.641 17.7698 101.641L20.3998 101.611L20.4798 95.0713C20.3498 90.5713 23.2698 86.0912 27.2598 84.6712C29.8698 83.7512 32.8498 83.3313 36.8898 83.3313C36.9598 83.3313 37.0298 83.3313 37.0998 83.3313C41.2498 83.3413 44.2698 83.7812 46.9198 84.7412C50.9098 86.1812 53.7998 90.6913 53.6398 95.2213L53.6798 101.641H53.6898ZM21.7298 101.601L52.3598 101.631L52.3198 95.1913C52.4598 91.1813 49.9498 87.2313 46.4698 85.9813C43.9698 85.0813 41.0798 84.6713 37.0998 84.6513C33.1198 84.6513 30.2098 85.0213 27.7098 85.9113C24.2398 87.1413 21.6998 91.0713 21.8098 95.0413L21.7298 101.591V101.601ZM37.1598 81.1712H37.1298C34.9598 81.1712 32.9198 80.3112 31.3898 78.7712C29.8598 77.2312 29.0198 75.1813 29.0298 73.0113C29.0398 68.5313 32.6898 64.9013 37.1698 64.9013H37.1998C41.6898 64.9113 45.3298 68.5812 45.3098 73.0612C45.3098 75.2312 44.4498 77.2812 42.9098 78.8112C41.3698 80.3312 39.3398 81.1712 37.1798 81.1712H37.1598ZM37.1598 66.2213C33.4198 66.2213 30.3598 69.2613 30.3498 73.0113C30.3498 74.8313 31.0498 76.5413 32.3298 77.8313C33.6098 79.1213 35.3198 79.8312 37.1398 79.8412C37.1398 79.8412 37.1598 79.8412 37.1698 79.8412C38.9798 79.8412 40.6798 79.1413 41.9698 77.8613C43.2598 76.5813 43.9698 74.8713 43.9798 73.0513C43.9898 69.2913 40.9498 66.2313 37.1898 66.2213H37.1698H37.1598Z" fill="#142A3B"/>
<path d="M29.4 102.51C29.19 102.51 29.02 102.34 29.02 102.13L29 93.6105C29 93.4005 29.17 93.2305 29.38 93.2305C29.59 93.2305 29.76 93.4005 29.76 93.6105L29.78 102.13C29.78 102.34 29.61 102.51 29.4 102.51Z" fill="#142A3B"/>
<path d="M44.63 102.513C44.42 102.513 44.25 102.343 44.25 102.133L44.33 93.673C44.33 93.463 44.5 93.293 44.71 93.293C44.92 93.293 45.09 93.463 45.09 93.673L45.01 102.133C45.01 102.343 44.84 102.513 44.63 102.513Z" fill="#142A3B"/>
<path d="M37.05 89.3705C34.43 89.3705 32.29 87.2405 32.29 84.6105C32.29 84.4005 32.46 84.2305 32.67 84.2305C32.88 84.2305 33.05 84.4005 33.05 84.6105C33.05 86.8105 34.84 88.6105 37.05 88.6105C39.26 88.6105 41.05 86.8205 41.05 84.6105C41.05 84.4005 41.22 84.2305 41.43 84.2305C41.64 84.2305 41.81 84.4005 41.81 84.6105C41.81 87.2305 39.68 89.3705 37.05 89.3705Z" fill="#142A3B"/>
<path d="M17.7198 78.6027C17.5098 78.6027 17.3398 78.4327 17.3398 78.2227V69.8527C17.3398 69.6427 17.5098 69.4727 17.7198 69.4727C17.9298 69.4727 18.0998 69.6427 18.0998 69.8527V78.2227C18.0998 78.4327 17.9298 78.6027 17.7198 78.6027Z" fill="#142A3B"/>
<path d="M17.7198 67.9197C17.5098 67.9197 17.3398 67.7497 17.3398 67.5397V63.8097C17.3398 63.5997 17.5098 63.4297 17.7198 63.4297C17.9298 63.4297 18.0998 63.5997 18.0998 63.8097V67.5397C18.0998 67.7497 17.9298 67.9197 17.7198 67.9197Z" fill="#142A3B"/>
<path d="M141.399 102.973H104.489C101.999 102.973 99.9795 100.953 99.9795 98.463V61.553C99.9795 59.063 101.999 57.043 104.489 57.043H141.399C143.889 57.043 145.909 59.063 145.909 61.553V98.463C145.909 100.953 143.889 102.973 141.399 102.973ZM104.489 58.363C102.729 58.363 101.309 59.793 101.309 61.543V98.453C101.309 100.213 102.739 101.633 104.489 101.633H141.399C143.159 101.633 144.579 100.203 144.579 98.453V61.543C144.579 59.783 143.149 58.363 141.399 58.363H104.489Z" fill="#142A3B"/>
<path d="M123.059 80.8936H123.029C118.699 80.8736 115.189 77.3436 115.199 73.0136C115.209 68.6936 118.739 65.1836 123.049 65.1836H123.079C127.409 65.2036 130.919 68.7336 130.909 73.0636C130.889 77.3836 127.369 80.8936 123.059 80.8936ZM123.059 65.9436C119.159 65.9436 115.979 69.1136 115.969 73.0136C115.959 76.9236 119.129 80.1136 123.039 80.1336H123.069C126.969 80.1336 130.149 76.9636 130.159 73.0636C130.169 69.1536 126.999 65.9636 123.089 65.9436H123.069H123.059Z" fill="#142A3B"/>
<path d="M138.929 102.681L106.959 102.641C106.859 102.641 106.759 102.601 106.689 102.531C106.619 102.461 106.579 102.361 106.579 102.261L106.669 95.0711C106.549 90.6811 109.379 86.3111 113.259 84.9411C115.839 84.0311 118.789 83.6211 122.799 83.6211H122.999C127.109 83.6411 130.109 84.0711 132.719 85.0111C136.599 86.4111 139.409 90.8011 139.249 95.2111L139.289 102.301C139.289 102.401 139.249 102.501 139.179 102.571C139.109 102.641 139.009 102.681 138.909 102.681H138.929ZM107.349 101.881L138.549 101.921L138.509 95.1911C138.649 91.0811 136.059 87.0111 132.479 85.7211C129.949 84.8111 127.029 84.3911 123.009 84.3811C118.969 84.4111 116.059 84.7611 113.519 85.6611C109.929 86.9311 107.319 90.9711 107.429 95.0711L107.339 101.891L107.349 101.881Z" fill="#142A3B"/>
<path d="M115.299 102.514C115.089 102.514 114.919 102.344 114.919 102.134L114.899 93.6144C114.899 93.4044 115.069 93.2344 115.279 93.2344C115.489 93.2344 115.659 93.4044 115.659 93.6144L115.679 102.134C115.679 102.344 115.509 102.514 115.299 102.514Z" fill="#142A3B"/>
<path d="M130.52 102.513C130.31 102.513 130.14 102.343 130.14 102.133L130.22 93.673C130.22 93.463 130.39 93.293 130.6 93.293C130.81 93.293 130.98 93.463 130.98 93.673L130.9 102.133C130.9 102.343 130.73 102.513 130.52 102.513Z" fill="#142A3B"/>
<path d="M122.94 89.3744C120.32 89.3744 118.18 87.2444 118.18 84.6144C118.18 84.4044 118.35 84.2344 118.56 84.2344C118.77 84.2344 118.94 84.4044 118.94 84.6144C118.94 86.8144 120.73 88.6144 122.94 88.6144C125.15 88.6144 126.94 86.8244 126.94 84.6144C126.94 84.4044 127.11 84.2344 127.32 84.2344C127.53 84.2344 127.7 84.4044 127.7 84.6144C127.7 87.2344 125.57 89.3744 122.94 89.3744Z" fill="#142A3B"/>
<path d="M103.619 72.5636C103.409 72.5636 103.239 72.3936 103.239 72.1836V63.8136C103.239 63.6036 103.409 63.4336 103.619 63.4336C103.829 63.4336 103.999 63.6036 103.999 63.8136V72.1836C103.999 72.3936 103.829 72.5636 103.619 72.5636Z" fill="#142A3B"/>
<path d="M103.619 78.6033C103.409 78.6033 103.239 78.4333 103.239 78.2233V74.4933C103.239 74.2833 103.409 74.1133 103.619 74.1133C103.829 74.1133 103.999 74.2833 103.999 74.4933V78.2233C103.999 78.4333 103.829 78.6033 103.619 78.6033Z" fill="#142A3B"/>
</svg>
