<svg width="160" height="160" viewBox="0 0 160 160" fill="none" xmlns="http://www.w3.org/2000/svg">
<g opacity="0.15">
<path d="M81.7904 56.8297C71.4704 51.8997 66.4304 58.3197 65.8204 58.6797C54.7504 65.1797 52.4404 76.7497 52.0504 78.9297C50.1704 89.4897 54.1604 100.79 61.4904 106.84C76.6704 119.37 108.02 110.86 120.19 90.8297C129.94 74.7797 127.31 51.4397 116.36 42.3997C115.44 41.6397 109.36 36.6197 104.2 38.5797C99.6704 40.2997 97.5704 46.7597 97.2104 51.0097C96.7404 56.4797 86.1004 58.8797 81.8004 56.8297H81.7904Z" fill="#7FEC96"/>
</g>
<path d="M79.8006 44.1928L84.1106 52.9228C84.1406 52.9828 84.1906 53.0228 84.2606 53.0328L93.8906 54.4328C94.2606 54.4828 94.4006 54.9328 94.1406 55.1928L87.1706 61.9828C87.1706 61.9828 87.1006 62.0928 87.1106 62.1528L88.7606 71.7428C88.8206 72.1028 88.4406 72.3828 88.1106 72.2128L79.4906 67.6828C79.4306 67.6528 79.3606 67.6528 79.3106 67.6828L70.6906 72.2128C70.3606 72.3828 69.9806 72.1028 70.0406 71.7428L71.6906 62.1528C71.7006 62.0928 71.6806 62.0228 71.6306 61.9828L64.6606 55.1928C64.4006 54.9328 64.5406 54.4828 64.9106 54.4328L74.5406 53.0328C74.6006 53.0328 74.6606 52.9828 74.6906 52.9228L79.0006 44.1928C79.1606 43.8628 79.6406 43.8628 79.8006 44.1928Z" fill="#00E1D8"/>
<path d="M70.4807 73.0014C70.2407 73.0014 70.0007 72.9214 69.7907 72.7814C69.4207 72.5214 69.2407 72.0714 69.3207 71.6314L70.9207 62.3114L64.1507 55.7114C63.8307 55.3914 63.7107 54.9314 63.8507 54.5014C63.9907 54.0714 64.3507 53.7714 64.8007 53.7014L74.1507 52.3414L78.3307 43.8614C78.7307 43.0514 80.0407 43.0514 80.4407 43.8614L84.6207 52.3414L93.9707 53.7014C94.4207 53.7714 94.7807 54.0714 94.9207 54.5014C95.0607 54.9314 94.9507 55.3914 94.6207 55.7114L87.8507 62.3114L89.4507 71.6214C89.5307 72.0714 89.3507 72.5114 88.9807 72.7714C88.6107 73.0314 88.1407 73.0714 87.7407 72.8614L79.3707 68.4614L71.0007 72.8614C70.8307 72.9514 70.6407 73.0014 70.4507 73.0014H70.4807ZM79.4007 66.9414C79.5407 66.9414 79.6907 66.9714 79.8107 67.0414L87.9307 71.3114L86.3807 62.2814C86.3407 62.0414 86.4807 61.6214 86.6507 61.4614L93.2007 55.0714L84.1407 53.7514C83.8307 53.7014 83.5707 53.5114 83.4407 53.2414L79.3907 45.0314L75.3407 53.2414C75.2107 53.5114 74.9507 53.7014 74.6507 53.7414L65.5807 55.0614L72.1407 61.4514C72.3107 61.6214 72.4507 62.0314 72.4107 62.2714L70.8607 71.3014L78.9707 67.0414C79.1107 66.9714 79.2607 66.9414 79.4107 66.9414H79.4007Z" fill="#142A3B"/>
<path d="M73.1706 69.6223C73.0206 69.6223 72.8806 69.5423 72.8006 69.4023C72.6906 69.2023 72.7706 68.9423 72.9706 68.8423L74.8706 67.8423C75.0706 67.7323 75.3306 67.8123 75.4306 68.0223C75.5406 68.2223 75.4606 68.4823 75.2606 68.5823L73.3606 69.5823C73.3006 69.6123 73.2306 69.6323 73.1706 69.6323V69.6223Z" fill="#142A3B"/>
<path d="M90.1912 56.0008C90.1912 56.0008 90.1512 56.0008 90.1312 56.0008L87.5612 55.6308C87.3312 55.6008 87.1712 55.3908 87.2112 55.1608C87.2412 54.9308 87.4612 54.7708 87.6812 54.8108L90.2512 55.1808C90.4812 55.2108 90.6412 55.4208 90.6012 55.6508C90.5712 55.8608 90.3912 56.0108 90.1912 56.0108V56.0008Z" fill="#142A3B"/>
<path d="M86.3804 55.4513C86.3804 55.4513 86.3404 55.4513 86.3204 55.4513L85.0104 55.2613C84.7804 55.2313 84.6204 55.0213 84.6604 54.7913C84.6904 54.5613 84.9104 54.4113 85.1304 54.4413L86.4404 54.6313C86.6704 54.6613 86.8304 54.8713 86.7904 55.1013C86.7604 55.3113 86.5804 55.4613 86.3804 55.4613V55.4513Z" fill="#142A3B"/>
<path d="M79.3608 100.33C73.6408 100.33 68.5708 98.1405 64.2808 93.8305C47.6708 77.1105 47.7808 34.2605 47.7908 32.4505C47.7908 29.9905 49.8008 27.9805 52.2608 27.9805H106.491C108.961 27.9805 110.961 29.9805 110.961 32.4505C110.971 34.3105 111.041 77.1205 94.4408 93.8305C90.1508 98.1505 85.0808 100.33 79.3608 100.33ZM52.2608 29.4305C50.6008 29.4305 49.2508 30.7805 49.2508 32.4405C49.2508 32.8805 49.1408 76.5105 65.3208 92.7905C69.3208 96.8205 74.0508 98.8605 79.3608 98.8605C84.6708 98.8605 89.4008 96.8205 93.4108 92.7905C109.601 76.5005 109.511 32.8805 109.511 32.4405C109.511 30.7705 108.161 29.4205 106.501 29.4205H52.2708L52.2608 29.4305Z" fill="#142A3B"/>
<path d="M54.8103 76.1913C54.6403 76.1913 54.4603 76.1313 54.3303 76.0113C37.1203 60.7213 34.3103 49.3413 34.9803 42.4813C35.3403 38.8113 38.4303 36.0312 42.1703 36.0312H48.4403C48.8403 36.0312 49.1703 36.3612 49.1703 36.7612C49.1703 37.1612 48.8403 37.4913 48.4403 37.4913H42.1703C39.1903 37.4913 36.7203 39.7013 36.4303 42.6213C35.7903 49.1413 38.5403 60.0313 55.3003 74.9113C55.6003 75.1813 55.6303 75.6413 55.3603 75.9413C55.2203 76.1013 55.0103 76.1813 54.8103 76.1813V76.1913Z" fill="#142A3B"/>
<path d="M103.93 76.1592C103.73 76.1592 103.53 76.0792 103.38 75.9192C103.11 75.6192 103.14 75.1592 103.44 74.8892C120.25 59.9892 123.01 49.0692 122.37 42.5392C122.08 39.6192 119.62 37.4092 116.63 37.4092H110.36C109.96 37.4092 109.63 37.0792 109.63 36.6792C109.63 36.2792 109.96 35.9492 110.36 35.9492H116.63C120.37 35.9492 123.46 38.7192 123.82 42.3992C124.5 49.2692 121.68 60.6692 104.41 75.9792C104.27 76.0992 104.1 76.1592 103.93 76.1592Z" fill="#142A3B"/>
<path d="M109.66 129.151H49.0904C48.6904 129.151 48.3604 128.821 48.3604 128.421V127.091C48.3604 124.111 50.7803 121.691 53.7603 121.691H105C107.98 121.691 110.4 124.111 110.4 127.091V128.421C110.4 128.821 110.07 129.151 109.67 129.151H109.66ZM49.8204 127.691H108.93V127.091C108.93 124.921 107.16 123.151 104.99 123.151H53.7504C51.5804 123.151 49.8104 124.921 49.8104 127.091V127.691H49.8204Z" fill="#142A3B"/>
<path d="M60.0601 123.151C59.6601 123.151 59.3301 122.821 59.3301 122.421V117.181C59.3301 115.391 60.4601 113.791 62.1501 113.191C65.7101 111.911 71.9801 108.401 73.9801 99.2107C74.0701 98.8207 74.4601 98.5607 74.8501 98.6507C75.2401 98.7407 75.4901 99.1207 75.4101 99.5207C73.2601 109.401 66.4901 113.181 62.6401 114.561C61.5101 114.971 60.7801 115.991 60.7801 117.181V122.421C60.7801 122.821 60.4501 123.151 60.0501 123.151H60.0601Z" fill="#142A3B"/>
<path d="M98.6897 123.149C98.2897 123.149 97.9597 122.819 97.9597 122.419V117.239C97.9597 116.029 97.1897 114.969 96.0497 114.599C91.8997 113.239 84.6997 109.469 83.1197 99.479C83.0597 99.079 83.3297 98.709 83.7297 98.649C84.1297 98.589 84.4997 98.859 84.5597 99.259C86.0197 108.479 92.6697 111.969 96.4997 113.219C98.2397 113.789 99.4097 115.409 99.4097 117.249V122.429C99.4097 122.829 99.0797 123.159 98.6797 123.159L98.6897 123.149Z" fill="#142A3B"/>
<path d="M95.5304 118.211H93.0704C92.8404 118.211 92.6504 118.021 92.6504 117.791C92.6504 117.561 92.8404 117.371 93.0704 117.371H95.5304C95.7604 117.371 95.9504 117.561 95.9504 117.791C95.9504 118.021 95.7604 118.211 95.5304 118.211Z" fill="#142A3B"/>
<path d="M90.5007 118.211H66.6407C66.4107 118.211 66.2207 118.021 66.2207 117.791C66.2207 117.561 66.4107 117.371 66.6407 117.371H90.5007C90.7307 117.371 90.9207 117.561 90.9207 117.791C90.9207 118.021 90.7307 118.211 90.5007 118.211Z" fill="#142A3B"/>
<path d="M62.3699 125.992H56.5899C56.3599 125.992 56.1699 125.802 56.1699 125.572C56.1699 125.342 56.3599 125.152 56.5899 125.152H62.3699C62.5999 125.152 62.7899 125.342 62.7899 125.572C62.7899 125.802 62.5999 125.992 62.3699 125.992Z" fill="#142A3B"/>
<path d="M54.6902 125.992H52.8702C52.6402 125.992 52.4502 125.802 52.4502 125.572C52.4502 125.342 52.6402 125.152 52.8702 125.152H54.6902C54.9202 125.152 55.1102 125.342 55.1102 125.572C55.1102 125.802 54.9202 125.992 54.6902 125.992Z" fill="#142A3B"/>
<path d="M52.3903 46.2191C52.1803 46.2191 52.0003 46.0591 51.9803 45.8491C51.8803 44.9691 51.8003 44.1191 51.7203 43.2991C51.7003 43.0691 51.8703 42.8691 52.1003 42.8491C52.3503 42.8091 52.5303 42.9991 52.5503 43.2291C52.6303 44.0491 52.7103 44.8891 52.8103 45.7591C52.8403 45.9891 52.6703 46.1991 52.4403 46.2191C52.4203 46.2191 52.4103 46.2191 52.3903 46.2191Z" fill="#142A3B"/>
<path d="M51.9002 40.802C51.6802 40.802 51.5002 40.632 51.4802 40.412C51.1502 35.722 51.1702 32.532 51.1702 32.502C51.1702 32.272 51.3602 32.082 51.5902 32.082C51.8202 32.082 52.0102 32.272 52.0002 32.502C52.0002 32.532 51.9802 35.692 52.3102 40.352C52.3302 40.582 52.1502 40.782 51.9202 40.792C51.9102 40.792 51.9002 40.792 51.8902 40.792L51.9002 40.802Z" fill="#142A3B"/>
</svg>
