<svg xmlns="http://www.w3.org/2000/svg" width="98" height="103" viewBox="0 0 98 103" fill="none">
<path d="M91.6201 71.9212H94.6201C96.0001 71.9212 97.1201 70.8012 97.1201 69.4212V56.4512C97.1201 55.0712 96.0001 53.9512 94.6201 53.9512H91.6201" fill="#00E1D8"/>
<path d="M94.6201 72.6609H91.6201V71.1809H94.6201C95.5901 71.1809 96.3801 70.3909 96.3801 69.4209V56.4509C96.3801 55.4809 95.5901 54.6909 94.6201 54.6909H91.6201V53.2109H94.6201C96.4101 53.2109 97.8601 54.6609 97.8601 56.4509V69.4209C97.8601 71.2109 96.4101 72.6609 94.6201 72.6609Z" fill="#142A3B"/>
<path d="M91.6201 94.6419H94.6201C96.0001 94.6419 97.1201 93.5219 97.1201 92.1419V79.1719C97.1201 77.7919 96.0001 76.6719 94.6201 76.6719H91.6201" fill="#00E1D8"/>
<path d="M94.6201 95.3816H91.6201V93.9016H94.6201C95.5901 93.9016 96.3801 93.1116 96.3801 92.1416V79.1716C96.3801 78.2016 95.5901 77.4116 94.6201 77.4116H91.6201V75.9316H94.6201C96.4101 75.9316 97.8601 77.3816 97.8601 79.1716V92.1416C97.8601 93.9316 96.4101 95.3816 94.6201 95.3816Z" fill="#142A3B"/>
<path d="M87.6296 102.041H11.6896C8.87961 102.041 6.59961 99.7607 6.59961 96.9507V6.06071C6.59961 3.25071 8.87961 0.970703 11.6896 0.970703H87.6296C90.4396 0.970703 92.7196 3.25071 92.7196 6.06071V96.9407C92.7196 99.7507 90.4396 102.031 87.6296 102.031V102.041ZM11.6896 2.4607C9.69961 2.4607 8.07961 4.0807 8.07961 6.0707V96.9507C8.07961 98.9407 9.69961 100.561 11.6896 100.561H87.6296C89.6196 100.561 91.2396 98.9407 91.2396 96.9507V6.06071C91.2396 4.07071 89.6196 2.4507 87.6296 2.4507H11.6896V2.4607Z" fill="#142A3B"/>
<path d="M15.9102 21.041C13.7002 21.041 11.9102 19.251 11.9102 17.041C11.9102 14.831 13.7102 13.041 15.9102 13.041C18.1102 13.041 19.9102 14.831 19.9102 17.041C19.9102 19.251 18.1102 21.041 15.9102 21.041ZM15.9102 14.521C14.5202 14.521 13.3902 15.651 13.3902 17.041C13.3902 18.431 14.5202 19.561 15.9102 19.561C17.3002 19.561 18.4302 18.431 18.4302 17.041C18.4302 15.651 17.3002 14.521 15.9102 14.521Z" fill="#142A3B"/>
<path d="M15.9102 89.9727C13.7002 89.9727 11.9102 88.1827 11.9102 85.9727C11.9102 83.7627 13.7102 81.9727 15.9102 81.9727C18.1102 81.9727 19.9102 83.7627 19.9102 85.9727C19.9102 88.1827 18.1102 89.9727 15.9102 89.9727ZM15.9102 83.4527C14.5202 83.4527 13.3902 84.5827 13.3902 85.9727C13.3902 87.3627 14.5202 88.4927 15.9102 88.4927C17.3002 88.4927 18.4302 87.3627 18.4302 85.9727C18.4302 84.5827 17.3002 83.4527 15.9102 83.4527Z" fill="#142A3B"/>
<path d="M15.9102 66.9902C13.7002 66.9902 11.9102 65.2002 11.9102 62.9902C11.9102 60.7802 13.7102 58.9902 15.9102 58.9902C18.1102 58.9902 19.9102 60.7802 19.9102 62.9902C19.9102 65.2002 18.1102 66.9902 15.9102 66.9902ZM15.9102 60.4702C14.5202 60.4702 13.3902 61.6002 13.3902 62.9902C13.3902 64.3802 14.5202 65.5102 15.9102 65.5102C17.3002 65.5102 18.4302 64.3802 18.4302 62.9902C18.4302 61.6002 17.3002 60.4702 15.9102 60.4702Z" fill="#142A3B"/>
<path d="M15.9102 44.0215C13.7002 44.0215 11.9102 42.2315 11.9102 40.0215C11.9102 37.8115 13.7102 36.0215 15.9102 36.0215C18.1102 36.0215 19.9102 37.8115 19.9102 40.0215C19.9102 42.2315 18.1102 44.0215 15.9102 44.0215ZM15.9102 37.5015C14.5202 37.5015 13.3902 38.6315 13.3902 40.0215C13.3902 41.4115 14.5202 42.5415 15.9102 42.5415C17.3002 42.5415 18.4302 41.4115 18.4302 40.0215C18.4302 38.6315 17.3002 37.5015 15.9102 37.5015Z" fill="#142A3B"/>
<path d="M12.65 17.7808H1.49C1.08 17.7808 0.75 17.4508 0.75 17.0408C0.75 16.6308 1.08 16.3008 1.49 16.3008H12.65C13.06 16.3008 13.39 16.6308 13.39 17.0408C13.39 17.4508 13.06 17.7808 12.65 17.7808Z" fill="#142A3B"/>
<path d="M12.65 40.8101H1.49C1.08 40.8101 0.75 40.4801 0.75 40.0701C0.75 39.6601 1.08 39.3301 1.49 39.3301H12.65C13.06 39.3301 13.39 39.6601 13.39 40.0701C13.39 40.4801 13.06 40.8101 12.65 40.8101Z" fill="#142A3B"/>
<path d="M12.65 63.8511H1.49C1.08 63.8511 0.75 63.5211 0.75 63.1111C0.75 62.7011 1.08 62.3711 1.49 62.3711H12.65C13.06 62.3711 13.39 62.7011 13.39 63.1111C13.39 63.5211 13.06 63.8511 12.65 63.8511Z" fill="#142A3B"/>
<path d="M12.65 86.8823H1.49C1.08 86.8823 0.75 86.5523 0.75 86.1423C0.75 85.7323 1.08 85.4023 1.49 85.4023H12.65C13.06 85.4023 13.39 85.7323 13.39 86.1423C13.39 86.5523 13.06 86.8823 12.65 86.8823Z" fill="#142A3B"/>
<path d="M74.2296 40.7116H31.3496C30.2496 40.7116 29.3496 39.8216 29.3496 38.7116V21.6816C29.3496 20.5816 30.2496 19.6816 31.3496 19.6816H74.2296C75.3296 19.6816 76.2296 20.5816 76.2296 21.6816V38.7116C76.2296 39.8116 75.3296 40.7116 74.2296 40.7116ZM31.3496 21.1616C31.0696 21.1616 30.8396 21.3916 30.8396 21.6816V38.7116C30.8396 38.9916 31.0696 39.2216 31.3496 39.2216H74.2296C74.5096 39.2216 74.7396 38.9916 74.7396 38.7116V21.6816C74.7396 21.4016 74.5096 21.1616 74.2296 21.1616H31.3496Z" fill="#142A3B"/>
<path d="M74.2296 55.7923H31.3496C30.2496 55.7923 29.3496 54.8923 29.3496 53.7923V49.5723C29.3496 48.4723 30.2496 47.5723 31.3496 47.5723H74.2296C75.3296 47.5723 76.2296 48.4623 76.2296 49.5723V53.7923C76.2296 54.8923 75.3296 55.7923 74.2296 55.7923ZM31.3496 49.0623C31.0696 49.0623 30.8396 49.2923 30.8396 49.5723V53.7923C30.8396 54.0723 31.0696 54.3123 31.3496 54.3123H74.2296C74.5096 54.3123 74.7396 54.0823 74.7396 53.7923V49.5723C74.7396 49.2923 74.5096 49.0623 74.2296 49.0623H31.3496Z" fill="#142A3B"/>
<path d="M47.5494 52.1115H41.7794C41.5494 52.1115 41.3594 51.9215 41.3594 51.6915C41.3594 51.4615 41.5494 51.2715 41.7794 51.2715H47.5494C47.7794 51.2715 47.9694 51.4615 47.9694 51.6915C47.9694 51.9215 47.7794 52.1115 47.5494 52.1115Z" fill="#142A3B"/>
<path d="M63.7996 52.1115H51.5196C51.2896 52.1115 51.0996 51.9215 51.0996 51.6915C51.0996 51.4615 51.2896 51.2715 51.5196 51.2715H63.7996C64.0296 51.2715 64.2196 51.4615 64.2196 51.6915C64.2196 51.9215 64.0296 52.1115 63.7996 52.1115Z" fill="#142A3B"/>
<path d="M42.7697 29.0412H40.0997C39.8697 29.0412 39.6797 28.8512 39.6797 28.6212C39.6797 28.3912 39.8697 28.2012 40.0997 28.2012H42.7697C42.9997 28.2012 43.1897 28.3912 43.1897 28.6212C43.1897 28.8512 42.9997 29.0412 42.7697 29.0412Z" fill="#142A3B"/>
<path d="M48.5298 29.0412H44.7198C44.4898 29.0412 44.2998 28.8512 44.2998 28.6212C44.2998 28.3912 44.4898 28.2012 44.7198 28.2012H48.5298C48.7598 28.2012 48.9498 28.3912 48.9498 28.6212C48.9498 28.8512 48.7598 29.0412 48.5298 29.0412Z" fill="#142A3B"/>
<path d="M65.4803 29.0412H50.2403C50.0103 29.0412 49.8203 28.8512 49.8203 28.6212C49.8203 28.3912 50.0103 28.2012 50.2403 28.2012H65.4803C65.7103 28.2012 65.9003 28.3912 65.9003 28.6212C65.9003 28.8512 65.7103 29.0412 65.4803 29.0412Z" fill="#142A3B"/>
<path d="M54.1199 32.2013H40.0899C39.8599 32.2013 39.6699 32.0113 39.6699 31.7813C39.6699 31.5513 39.8599 31.3613 40.0899 31.3613H54.1199C54.3499 31.3613 54.5399 31.5513 54.5399 31.7813C54.5399 32.0113 54.3499 32.2013 54.1199 32.2013Z" fill="#142A3B"/>
<path d="M65.1504 32.2013H56.0704C55.8404 32.2013 55.6504 32.0113 55.6504 31.7813C55.6504 31.5513 55.8404 31.3613 56.0704 31.3613H65.1504C65.3804 31.3613 65.5704 31.5513 65.5704 31.7813C65.5704 32.0113 65.3804 32.2013 65.1504 32.2013Z" fill="#142A3B"/>
<path d="M63.3496 98.4494H61.2696C61.0396 98.4494 60.8496 98.2594 60.8496 98.0294C60.8496 97.7994 61.0396 97.6094 61.2696 97.6094H63.3496C63.5796 97.6094 63.7696 97.7994 63.7696 98.0294C63.7696 98.2594 63.5796 98.4494 63.3496 98.4494Z" fill="#142A3B"/>
<path d="M71.5399 98.4494H66.3399C66.1099 98.4494 65.9199 98.2594 65.9199 98.0294C65.9199 97.7994 66.1099 97.6094 66.3399 97.6094H71.5399C71.7699 97.6094 71.9599 97.7994 71.9599 98.0294C71.9599 98.2594 71.7699 98.4494 71.5399 98.4494Z" fill="#142A3B"/>
<path d="M85.7502 98.4494H74.3702C74.1402 98.4494 73.9502 98.2594 73.9502 98.0294C73.9502 97.7994 74.1402 97.6094 74.3702 97.6094H85.7502C85.9802 97.6094 86.1702 97.7994 86.1702 98.0294C86.1702 98.2594 85.9802 98.4494 85.7502 98.4494Z" fill="#142A3B"/>
<path d="M94.3702 65.2306C94.1402 65.2306 93.9502 65.0406 93.9502 64.8106V61.0606C93.9502 60.8306 94.1402 60.6406 94.3702 60.6406C94.6002 60.6406 94.7902 60.8306 94.7902 61.0606V64.8106C94.7902 65.0406 94.6002 65.2306 94.3702 65.2306Z" fill="#142A3B"/>
<path d="M94.3702 87.9494C94.1402 87.9494 93.9502 87.7594 93.9502 87.5294V83.7794C93.9502 83.5494 94.1402 83.3594 94.3702 83.3594C94.6002 83.3594 94.7902 83.5494 94.7902 83.7794V87.5294C94.7902 87.7594 94.6002 87.9494 94.3702 87.9494Z" fill="#142A3B"/>
</svg>