<svg width="160" height="160" viewBox="0 0 160 160" fill="none" xmlns="http://www.w3.org/2000/svg">
<g opacity="0.15">
<path d="M38.1502 69.7399C36.8602 69.1699 35.6502 68.4799 34.4502 67.7299C33.2502 66.9799 32.0602 66.2499 30.9702 65.3499C29.8802 64.4499 28.7902 63.5499 27.8402 62.5099C26.8902 61.4699 26.1302 60.2699 25.3302 59.0999C24.5302 57.9299 23.8302 56.7299 23.2002 55.4599C22.5702 54.1899 21.8302 52.9699 21.3902 51.6299C20.9502 50.2899 20.7402 48.8799 20.5102 47.4799C20.2802 46.0799 20.2002 44.6899 20.2002 43.2599C20.2002 41.9099 20.2802 40.5499 20.5302 39.2199C20.7802 37.8899 21.0402 36.5399 21.5202 35.2699C22.0002 33.9999 22.6002 32.7599 23.2902 31.5999C23.9802 30.4399 24.8002 29.3199 25.6902 28.3099C26.5802 27.2999 27.6702 26.4299 28.7402 25.6199C29.8102 24.8099 30.9402 23.9899 32.1702 23.4399C33.4002 22.8899 34.7602 22.6999 36.1102 22.4599C37.6102 22.1899 39.0002 21.8199 40.3802 21.6399C41.8502 21.4499 43.2802 21.3599 44.6402 20.8799C45.9202 20.4299 47.2002 19.7899 48.4102 18.7399C49.6202 17.6899 50.4802 16.3799 51.4102 15.0999C52.3402 13.8199 53.2302 12.4999 54.2902 11.3599C55.3502 10.2199 56.5902 9.30994 58.1402 8.68994C59.4602 8.16994 60.8502 7.95994 62.2802 8.03994C63.6302 8.11994 65.0002 8.49994 66.3802 8.99994C67.6702 9.46994 69.0502 9.90994 70.2902 10.6299C71.5302 11.3499 72.5202 12.3899 73.6302 13.2499C74.7402 14.1099 75.8902 15.0199 76.8602 15.9599C77.9602 17.0299 79.0502 17.9799 79.8302 18.9699C80.6602 20.0199 81.1802 21.2599 81.7402 22.4699C82.3002 23.6799 82.8002 24.9199 83.0602 26.2199C83.3202 27.5199 83.6102 28.8799 83.5402 30.1999C83.4702 31.5199 83.2102 32.8999 82.7802 34.1499C82.3502 35.3999 81.4902 36.4599 80.6802 37.5499C79.8702 38.6399 79.1302 39.6799 77.9902 40.4899C77.0302 41.1699 75.9502 41.6599 74.8802 42.1399C73.8102 42.6199 72.7002 42.9999 71.6002 43.3899C70.5002 43.7799 69.3402 44.0499 68.2702 44.5099C66.6802 45.1799 65.0802 46.1199 63.7802 47.2599C62.4802 48.3999 61.4602 49.9499 61.0602 51.6799C60.7102 53.1699 60.8102 54.6899 61.1302 56.2099C61.4502 57.7299 62.0002 59.1499 62.3002 60.6299C62.6002 62.1099 62.6702 63.6799 62.2802 65.1699C61.8902 66.6599 60.9702 67.8099 59.8502 68.7999C58.7302 69.7899 57.4702 70.4699 56.0302 70.9899C54.5902 71.5099 53.1502 71.8699 51.7102 72.0099C50.1502 72.1599 48.6102 72.1599 47.0902 72.0499C45.5402 71.9299 44.0102 71.6999 42.5202 71.3199C41.0302 70.9399 39.5902 70.3599 38.1802 69.7499L38.1502 69.7399Z" fill="#7FEC96"/>
</g>
<path d="M96.94 127.238H41.25C39.62 127.238 38.29 125.908 38.29 124.278V31.4481C38.29 29.8681 39.58 28.5781 41.16 28.5781H93.78C93.97 28.5781 94.15 28.6581 94.29 28.7881L112.69 47.4981C112.82 47.6281 112.89 47.8081 112.89 47.9981V100.488C112.89 100.878 112.57 101.198 112.18 101.198C111.79 101.198 111.47 100.878 111.47 100.488V48.2881L93.48 29.9981H41.16C40.36 29.9981 39.71 30.6481 39.71 31.4481V124.278C39.71 125.128 40.4 125.818 41.25 125.818H96.94C97.33 125.818 97.65 126.138 97.65 126.528C97.65 126.918 97.33 127.238 96.94 127.238Z" fill="#142A3B"/>
<path d="M111.71 48.9481H93.7803C93.3903 48.9481 93.0703 48.6281 93.0703 48.2381V29.2881C93.0703 28.8981 93.3903 28.5781 93.7803 28.5781C94.1703 28.5781 94.4903 28.8981 94.4903 29.2881V47.5181H111.71C112.1 47.5181 112.42 47.8381 112.42 48.2281C112.42 48.6181 112.1 48.9381 111.71 48.9381V48.9481Z" fill="#142A3B"/>
<path d="M102.74 64.7575H95.2596C95.0396 64.7575 94.8496 64.5775 94.8496 64.3475C94.8496 64.1175 95.0296 63.9375 95.2596 63.9375H102.74C102.96 63.9375 103.15 64.1175 103.15 64.3475C103.15 64.5775 102.97 64.7575 102.74 64.7575Z" fill="#142A3B"/>
<path d="M91.2795 64.7575H58.4295C58.2095 64.7575 58.0195 64.5775 58.0195 64.3475C58.0195 64.1175 58.1995 63.9375 58.4295 63.9375H91.2795C91.4995 63.9375 91.6895 64.1175 91.6895 64.3475C91.6895 64.5775 91.5095 64.7575 91.2795 64.7575Z" fill="#142A3B"/>
<path d="M54.45 64.7575H49.12C48.9 64.7575 48.71 64.5775 48.71 64.3475C48.71 64.1175 48.89 63.9375 49.12 63.9375H54.45C54.67 63.9375 54.86 64.1175 54.86 64.3475C54.86 64.5775 54.68 64.7575 54.45 64.7575Z" fill="#142A3B"/>
<path d="M102.74 56.9489H81.2401C81.0201 56.9489 80.8301 56.7689 80.8301 56.5389C80.8301 56.3089 81.0101 56.1289 81.2401 56.1289H102.74C102.96 56.1289 103.15 56.3089 103.15 56.5389C103.15 56.7689 102.97 56.9489 102.74 56.9489Z" fill="#142A3B"/>
<path d="M77.26 56.9489H68.41C68.19 56.9489 68 56.7689 68 56.5389C68 56.3089 68.18 56.1289 68.41 56.1289H77.26C77.48 56.1289 77.67 56.3089 77.67 56.5389C77.67 56.7689 77.49 56.9489 77.26 56.9489Z" fill="#142A3B"/>
<path d="M64.43 56.9489H49.12C48.9 56.9489 48.71 56.7689 48.71 56.5389C48.71 56.3089 48.89 56.1289 49.12 56.1289H64.43C64.65 56.1289 64.84 56.3089 64.84 56.5389C64.84 56.7689 64.66 56.9489 64.43 56.9489Z" fill="#142A3B"/>
<path d="M102.74 72.5505H84.9803C84.7603 72.5505 84.5703 72.3705 84.5703 72.1405C84.5703 71.9105 84.7503 71.7305 84.9803 71.7305H102.74C102.96 71.7305 103.15 71.9105 103.15 72.1405C103.15 72.3705 102.97 72.5505 102.74 72.5505Z" fill="#142A3B"/>
<path d="M80.9596 72.5505H67.2196C66.9996 72.5505 66.8096 72.3705 66.8096 72.1405C66.8096 71.9105 66.9896 71.7305 67.2196 71.7305H80.9596C81.1796 71.7305 81.3696 71.9105 81.3696 72.1405C81.3696 72.3705 81.1896 72.5505 80.9596 72.5505Z" fill="#142A3B"/>
<path d="M49.12 72.5505C48.9 72.5505 48.71 72.3705 48.71 72.1405C48.71 71.9105 48.89 71.7305 49.12 71.7305H63.23C63.45 71.7305 63.64 71.9105 63.64 72.1305C63.64 72.3505 63.46 72.5405 63.23 72.5405H49.12V72.5505Z" fill="#142A3B"/>
<path d="M102.74 80.3473H94.5604C94.3404 80.3473 94.1504 80.1673 94.1504 79.9373C94.1504 79.7073 94.3304 79.5273 94.5604 79.5273H102.74C102.96 79.5273 103.15 79.7073 103.15 79.9373C103.15 80.1673 102.97 80.3473 102.74 80.3473Z" fill="#142A3B"/>
<path d="M90.58 80.3473H59.66C59.44 80.3473 59.25 80.1673 59.25 79.9373C59.25 79.7073 59.43 79.5273 59.66 79.5273H90.58C90.8 79.5273 90.99 79.7073 90.99 79.9373C90.99 80.1673 90.81 80.3473 90.58 80.3473Z" fill="#142A3B"/>
<path d="M55.68 80.3473H49.12C48.9 80.3473 48.71 80.1673 48.71 79.9373C48.71 79.7073 48.89 79.5273 49.12 79.5273H55.68C55.9 79.5273 56.09 79.7073 56.09 79.9373C56.09 80.1673 55.91 80.3473 55.68 80.3473Z" fill="#142A3B"/>
<path d="M64.36 103.75H49.12C48.9 103.75 48.71 103.57 48.71 103.34C48.71 103.11 48.89 102.93 49.12 102.93H64.36C64.58 102.93 64.77 103.11 64.77 103.34C64.77 103.57 64.59 103.75 64.36 103.75Z" fill="#142A3B"/>
<path d="M91.28 88.1481H71.2C70.98 88.1481 70.79 87.9681 70.79 87.7381C70.79 87.5081 70.97 87.3281 71.2 87.3281H91.28C91.5 87.3281 91.69 87.5081 91.69 87.7381C91.69 87.9681 91.51 88.1481 91.28 88.1481Z" fill="#142A3B"/>
<path d="M67.21 88.1481H49.12C48.9 88.1481 48.71 87.9681 48.71 87.7381C48.71 87.5081 48.89 87.3281 49.12 87.3281H67.21C67.43 87.3281 67.62 87.5081 67.62 87.7381C67.62 87.9681 67.44 88.1481 67.21 88.1481Z" fill="#142A3B"/>
<path d="M79.6097 95.9489H49.1297C48.9097 95.9489 48.7197 95.7689 48.7197 95.5389C48.7197 95.3089 48.8997 95.1289 49.1297 95.1289H79.6097C79.8297 95.1289 80.0197 95.3089 80.0197 95.5389C80.0197 95.7689 79.8397 95.9489 79.6097 95.9489Z" fill="#142A3B"/>
<path d="M121.831 106.25C121.511 105.38 121.131 104.53 120.651 103.7C120.181 102.87 119.641 102.1 119.051 101.39L120.721 96.2997C119.811 95.4597 118.831 94.6997 117.801 94.0397L113.291 96.9297C111.591 96.1397 109.761 95.6397 107.901 95.4597L105.481 90.6797C104.261 90.7297 103.031 90.8797 101.821 91.1397L100.671 96.3697C99.8006 96.6897 98.9506 97.0697 98.1206 97.5497C97.2906 98.0197 96.5206 98.5597 95.8106 99.1497L90.7206 97.4797C89.8806 98.3897 89.1206 99.3697 88.4606 100.4L91.3506 104.91C90.5606 106.61 90.0606 108.44 89.8806 110.3L85.1006 112.72C85.1506 113.94 85.3006 115.17 85.5606 116.38L90.7906 117.53C91.1106 118.4 91.4906 119.25 91.9706 120.08C92.4406 120.91 92.9806 121.68 93.5706 122.39L91.9006 127.48C92.8106 128.32 93.7906 129.08 94.8206 129.74L99.3306 126.85C101.031 127.64 102.861 128.14 104.721 128.32L107.141 133.1C108.361 133.05 109.591 132.9 110.801 132.64L111.951 127.41C112.821 127.09 113.671 126.71 114.501 126.23C115.331 125.76 116.101 125.22 116.811 124.63L121.901 126.3C122.741 125.39 123.501 124.41 124.161 123.38L121.271 118.87C122.061 117.17 122.561 115.34 122.741 113.48L127.521 111.06C127.471 109.84 127.321 108.61 127.061 107.4L121.831 106.25ZM110.751 119.64C106.471 122.09 101.011 120.6 98.5606 116.31C96.1106 112.03 97.6006 106.57 101.891 104.12C106.171 101.67 111.631 103.16 114.081 107.45C116.531 111.73 115.041 117.19 110.751 119.64Z" fill="#00E1D8"/>
<path d="M107.16 133.788C106.89 133.788 106.65 133.638 106.52 133.398L104.28 128.958C102.6 128.758 100.96 128.308 99.4104 127.628L95.2304 130.308C95.0004 130.458 94.6904 130.458 94.4604 130.308C93.3904 129.628 92.3804 128.838 91.4504 127.978C91.2404 127.788 91.1704 127.498 91.2604 127.238L92.8104 122.518C92.2804 121.848 91.8104 121.138 91.3904 120.418C90.9804 119.698 90.6104 118.928 90.3004 118.128L85.4404 117.068C85.1704 117.008 84.9604 116.798 84.9004 116.528C84.6304 115.288 84.4704 114.018 84.4204 112.748C84.4104 112.468 84.5604 112.208 84.8104 112.088L89.2504 109.848C89.4504 108.158 89.9004 106.528 90.5804 104.978L87.9004 100.798C87.7504 100.568 87.7504 100.268 87.9004 100.028C88.5904 98.9583 89.3704 97.9483 90.2304 97.0183C90.4204 96.8083 90.7104 96.7383 90.9704 96.8283L95.6904 98.3783C96.3604 97.8483 97.0604 97.3783 97.7904 96.9583C98.5204 96.5483 99.2804 96.1783 100.08 95.8683L101.14 91.0083C101.2 90.7383 101.41 90.5283 101.68 90.4683C102.92 90.1983 104.19 90.0383 105.46 89.9883C105.75 90.0183 106 90.1283 106.12 90.3783L108.36 94.8183C110.04 95.0183 111.68 95.4683 113.23 96.1483L117.41 93.4683C117.65 93.3183 117.95 93.3183 118.18 93.4683C119.25 94.1483 120.26 94.9383 121.19 95.7983C121.4 95.9883 121.47 96.2783 121.38 96.5383L119.83 101.258C120.36 101.928 120.84 102.638 121.25 103.358C121.66 104.078 122.03 104.848 122.34 105.648L127.19 106.708C127.46 106.768 127.67 106.978 127.73 107.248C128 108.488 128.16 109.758 128.21 111.028C128.22 111.308 128.07 111.568 127.82 111.688L123.38 113.928C123.18 115.618 122.73 117.248 122.05 118.798L124.73 122.978C124.88 123.208 124.88 123.508 124.73 123.748C124.04 124.818 123.26 125.828 122.4 126.758C122.21 126.968 121.92 127.048 121.66 126.948L116.94 125.398C116.27 125.928 115.56 126.398 114.84 126.818C114.12 127.228 113.35 127.598 112.55 127.908L111.49 132.768C111.43 133.038 111.22 133.248 110.95 133.308C109.71 133.578 108.44 133.738 107.17 133.788H107.14H107.16ZM99.3504 126.108C99.4504 126.108 99.5504 126.128 99.6504 126.178C101.28 126.938 103.02 127.408 104.81 127.588C105.05 127.608 105.27 127.758 105.38 127.978L107.59 132.348C108.47 132.298 109.36 132.188 110.22 132.018L111.27 127.238C111.32 126.998 111.49 126.808 111.72 126.718C112.57 126.408 113.39 126.028 114.16 125.588C114.93 125.148 115.67 124.638 116.37 124.058C116.56 123.908 116.81 123.848 117.04 123.928L121.69 125.458C122.28 124.798 122.82 124.088 123.32 123.358L120.68 119.238C120.55 119.038 120.53 118.778 120.63 118.558C121.39 116.928 121.87 115.188 122.04 113.398C122.06 113.158 122.21 112.948 122.43 112.828L126.8 110.618C126.75 109.738 126.64 108.848 126.47 107.978L121.69 106.928C121.45 106.878 121.26 106.708 121.17 106.478C120.86 105.618 120.48 104.798 120.04 104.038C119.61 103.278 119.09 102.538 118.51 101.828C118.36 101.638 118.31 101.388 118.38 101.158L119.91 96.5083C119.25 95.9183 118.54 95.3783 117.81 94.8783L113.69 97.5183C113.49 97.6483 113.23 97.6683 113.01 97.5683C111.38 96.8083 109.64 96.3383 107.85 96.1583C107.61 96.1383 107.39 95.9883 107.28 95.7683L105.07 91.3983C104.19 91.4483 103.3 91.5583 102.43 91.7283L101.38 96.5083C101.33 96.7483 101.16 96.9383 100.93 97.0283C100.08 97.3383 99.2604 97.7183 98.4904 98.1583C97.7204 98.5983 96.9804 99.1083 96.2804 99.6883C96.0904 99.8383 95.8404 99.8883 95.6104 99.8183L90.9604 98.2883C90.3704 98.9483 89.8304 99.6583 89.3304 100.388L91.9704 104.508C92.1004 104.708 92.1204 104.968 92.0204 105.188C91.2604 106.818 90.7904 108.558 90.6104 110.348C90.5904 110.588 90.4404 110.808 90.2204 110.918L85.8504 113.128C85.9004 114.008 86.0104 114.898 86.1804 115.768L90.9604 116.818C91.2004 116.868 91.3904 117.038 91.4804 117.268C91.7904 118.118 92.1704 118.938 92.6104 119.708C93.0504 120.478 93.5604 121.218 94.1404 121.918C94.2904 122.108 94.3404 122.358 94.2704 122.588L92.7404 127.238C93.4004 127.828 94.1104 128.368 94.8404 128.868L98.9604 126.228C99.0804 126.158 99.2104 126.118 99.3404 126.118L99.3504 126.108ZM106.35 121.518C103 121.518 99.7404 119.768 97.9604 116.658C95.3204 112.038 96.9304 106.138 101.55 103.498C106.17 100.858 112.07 102.468 114.71 107.088C117.35 111.708 115.74 117.608 111.12 120.248C109.62 121.108 107.97 121.518 106.35 121.518ZM106.32 103.658C104.94 103.658 103.54 104.008 102.26 104.738C98.3304 106.988 96.9504 112.018 99.2004 115.958C101.45 119.898 106.48 121.268 110.42 119.018C114.36 116.768 115.73 111.738 113.48 107.798C111.96 105.148 109.18 103.658 106.33 103.658H106.32Z" fill="#142A3B"/>
<path d="M94.9907 117.869C94.8407 117.869 94.7007 117.789 94.6307 117.649C94.2507 116.929 93.9407 116.159 93.7107 115.379C93.6507 115.169 93.7707 114.939 93.9907 114.879C94.2107 114.819 94.4307 114.939 94.4907 115.159C94.7007 115.889 94.9907 116.599 95.3507 117.269C95.4607 117.469 95.3807 117.709 95.1807 117.819C95.1207 117.849 95.0507 117.869 94.9907 117.869Z" fill="#142A3B"/>
<path d="M93.7606 114.079C93.5606 114.079 93.3906 113.929 93.3606 113.729C93.0706 111.699 93.3106 109.599 94.0606 107.679C94.1406 107.469 94.3806 107.369 94.5906 107.449C94.8006 107.529 94.9006 107.769 94.8206 107.979C94.1306 109.779 93.9006 111.729 94.1706 113.619C94.2006 113.839 94.0506 114.049 93.8206 114.079C93.8006 114.079 93.7806 114.079 93.7606 114.079Z" fill="#142A3B"/>
<path d="M118.44 108.048C118.27 108.048 118.11 107.938 118.05 107.768C117.79 106.968 117.44 106.198 117.02 105.458C116.91 105.268 116.98 105.018 117.17 104.908C117.37 104.798 117.61 104.868 117.72 105.058C118.17 105.848 118.54 106.678 118.81 107.518C118.88 107.728 118.76 107.958 118.55 108.028C118.51 108.038 118.47 108.048 118.42 108.048H118.44Z" fill="#142A3B"/>
<path d="M117.77 117.66C117.71 117.66 117.65 117.65 117.59 117.62C117.39 117.52 117.3 117.28 117.4 117.08C118.54 114.73 118.92 112.02 118.47 109.46C118.43 109.24 118.58 109.03 118.8 108.99C119.02 108.94 119.23 109.1 119.27 109.32C119.75 112.05 119.35 114.94 118.13 117.44C118.06 117.58 117.92 117.67 117.76 117.67L117.77 117.66Z" fill="#142A3B"/>
</svg>
