<?xml version="1.0" encoding="utf-8"?>
<!-- Generator: Adobe Illustrator 27.1.1, SVG Export Plug-In . SVG Version: 6.00 Build 0)  -->
<svg version="1.1" id="Joana_drafts" xmlns="http://www.w3.org/2000/svg" xmlns:xlink="http://www.w3.org/1999/xlink" x="0px"
	 y="0px" viewBox="0 0 1001.3 175.4" style="enable-background:new 0 0 1001.3 175.4;" xml:space="preserve">
<style type="text/css">
	.st0{fill:#FFFFFF;}
</style>
<g>
	<path class="st0" d="M166.4,114.8c-0.5,0-1.1-0.1-1.6-0.2c-3.3-0.9-5.2-4.2-4.3-7.5c9.9-37.5-10.1-76.4-46.4-90
		c-3.2-1.2-4.8-4.7-3.6-7.9c1.2-3.2,4.7-4.8,7.9-3.6c42.2,15.8,65.5,61,54,104.6C171.6,113,169.2,114.8,166.4,114.8z"/>
	<path class="st0" d="M16.6,133.8c-2.2,0-4.2-1.2-5.3-3.1C-12.5,88.5,2.5,35.1,44.7,11.4c5.7-3.2,11.8-5.8,18-7.6
		c3.2-1,6.6,0.9,7.6,4.1s-0.9,6.6-4.1,7.6c-15.4,4.6-28.9,14-38.7,26.8C9.5,66.2,7.2,98.5,21.9,124.7c1.7,2.9,0.6,6.7-2.3,8.3
		C18.7,133.5,17.6,133.8,16.6,133.8z"/>
	<path class="st0" d="M87.7,175.4c-13,0-25.8-2.8-37.5-8.4c-2.9-1.7-3.9-5.4-2.3-8.3c1.5-2.6,4.7-3.7,7.5-2.7
		c27.2,12.9,59.5,8.3,82.1-11.6c2.5-2.2,6.4-2,8.6,0.5c2.2,2.5,2,6.4-0.5,8.6l0,0C129.6,167.6,109,175.4,87.7,175.4z"/>
	<path class="st0" d="M87.7,148.5c-33.6,0-60.7-27.3-60.7-60.9c0-4.4,0.5-8.8,1.5-13.1c0.8-3.3,4.2-5.3,7.4-4.4
		c3.1,0.8,5.1,3.9,4.5,7.1c-5.9,26.1,10.6,52.1,36.7,57.9s52.1-10.6,57.9-36.7c5.9-26.1-10.6-52.1-36.7-57.9
		c-3.5-0.8-7.1-1.2-10.6-1.2c-7.5,0-14.8,1.7-21.5,5c-3,1.5-6.7,0.3-8.2-2.8s-0.3-6.7,2.8-8.2l0,0c8.4-4.2,17.6-6.3,27-6.3
		c33.5,0,60.7,27.2,60.7,60.7S121.3,148.4,87.7,148.5L87.7,148.5z"/>
	<path class="st0" d="M87.7,119.5c-17.6,0-31.8-14.2-31.8-31.8S70.1,56,87.7,56s31.8,14.2,31.8,31.8l0,0
		C119.5,105.3,105.2,119.5,87.7,119.5z M87.7,68.2c-10.8,0-19.6,8.8-19.6,19.6s8.8,19.6,19.6,19.6s19.6-8.8,19.6-19.6
		C107.2,77,98.5,68.2,87.7,68.2z"/>
	<circle class="st0" cx="31.2" cy="146.9" r="6.3"/>
	<circle class="st0" cx="157.7" cy="131.3" r="6.3"/>
	<circle class="st0" cx="43.9" cy="53.8" r="6.3"/>
	<circle class="st0" cx="90.2" cy="6.3" r="6.3"/>
	<circle class="st0" cx="88.4" cy="87.8" r="6.3"/>
	<path class="st0" d="M392.1,86.9c0,19.8-11.3,31.6-30.2,31.6s-30.2-11.8-30.2-31.6s11.3-31.6,30.2-31.6S392.1,67.2,392.1,86.9z
		 M344.7,86.9c0,13.7,6.2,21.4,17.1,21.4s17.2-7.6,17.2-21.4s-6.3-21.4-17.2-21.4S344.7,73.2,344.7,86.9L344.7,86.9z"/>
	<path class="st0" d="M461.4,86.9c0,19.8-11.3,31.6-30.2,31.6s-30.2-11.8-30.2-31.6s11.3-31.6,30.2-31.6S461.4,67.2,461.4,86.9z
		 M414,86.9c0,13.7,6.2,21.4,17.1,21.4s17.2-7.6,17.2-21.4s-6.3-21.4-17.2-21.4S414,73.2,414,86.9z"/>
	<path class="st0" d="M284,87.1c0,19.8-10.3,31.4-26.8,31.4c-9.7,0-17.1-5-20.6-12.4v5.2c0,3.3-2.7,6-6,6l0,0c-3.3,0-6-2.7-6-6V35.8
		c0-3.6,2.9-6.5,6.5-6.5l0,0l0,0c3.6,0,6.5,2.9,6.5,6.5v30.7c3.6-6.7,10.6-11,19.5-11C273.6,55.4,284,67.2,284,87.1z M271,86.9
		c0-13.2-6.3-21-16.8-21c-10.2,0-16.8,7.6-16.8,20.3v1.5c0,12.7,6.5,20.4,16.8,20.4C264.7,108.1,271,100.2,271,86.9L271,86.9z"/>
	<path class="st0" d="M324.1,104.6c1.1,0.7,1.6,2.1,1.2,3.4c0,0-2.1,10.6-13.4,10.6c-15.8,0-15.8-12.1-15.8-16.3V35.8
		c0-3.6,2.9-6.5,6.5-6.5s6.5,2.9,6.5,6.5v56.4c0,0-0.1,11,0.7,12.9c1,2.1,3,2.6,5,2.6c2,0,3.9-0.9,5.2-2.5
		C321.1,103.9,322.9,103.7,324.1,104.6z"/>
	<path class="st0" d="M549.6,55.4c-8.1,0-17,3.9-21,12.1c-3.6-8.3-11.8-12.1-20.4-12.1c-8.1-0.2-15.7,4.2-19.7,11.3
		c-2-6.6-6.4-11.3-14.4-11.3c-7.8,0-9.8,3-9.8,6.2c0,2.1,1.6,3.9,3.8,4.2c2.6,0.3,4.7-1,6.5,0.4c1.2,0.9,1.6,2.9,1.7,4.1v40.6
		c0,3.6,2.9,6.5,6.5,6.5s6.5-2.9,6.5-6.5l0,0V85c0-13.6,8.5-18.9,15.8-18.9c7.3,0,12.5,4,12.5,14v30.8c0,3.6,2.9,6.5,6.5,6.5l0,0
		c3.6,0,6.5-2.9,6.5-6.5c0,0,0,0,0,0V84.3c0-11.8,7.3-18.2,15.8-18.2c7.2,0,12.5,4,12.5,14v30.8c0,3.6,2.9,6.5,6.5,6.5
		s6.5-2.9,6.5-6.5V78C572,62.5,561.2,55.4,549.6,55.4z"/>
	<path class="st0" d="M713.6,62.3L713.6,62.3c-0.5,3-3.3,4.8-6.4,4.8c-12.1,0-17.6,11.6-17.6,18.1v25.6c0,3.6-2.9,6.5-6.5,6.5l0,0
		c-3.6,0-6.5-2.9-6.5-6.5V62.5c0-3.2,2.6-5.8,5.8-5.8l0,0l0,0c3,0,5.5,2.2,5.8,5.2l0.6,5.6c3.3-7.9,9.7-12,19-12h0.1
		c3.2,0,5.8,2.6,5.7,5.8C713.7,61.6,713.7,62,713.6,62.3z"/>
	<path class="st0" d="M777.6,87c0,19.8-11.3,31.5-30.2,31.5s-30.2-11.8-30.2-31.5s11.3-31.5,30.2-31.5S777.6,67.3,777.6,87z
		 M730.3,87c0,13.7,6.2,21.3,17.1,21.3s17.2-7.6,17.2-21.3s-6.3-21.3-17.2-21.3S730.3,73.3,730.3,87z"/>
	<path class="st0" d="M878.9,65.4l-15.1,45.3c-1.3,4-5.1,6.7-9.3,6.7h-0.1c-4.2,0-7.9-2.7-9.3-6.7l-13-39.1l-12.4,39
		c-1.3,4.1-5.1,6.8-9.3,6.8l0,0c-4.2,0-7.9-2.7-9.3-6.7L786,65.4c-1.1-3.4,0.7-7.1,4.1-8.3c0.7-0.2,1.4-0.3,2.1-0.3l0,0
		c2.9,0,5.5,1.9,6.3,4.8l12.3,43.6l13.2-42.2c1.1-3.6,4.5-6.1,8.3-6.1l0,0c3.8,0,7.2,2.5,8.3,6.1l13.2,42.2l12.3-43.6
		c0.8-2.8,3.4-4.8,6.3-4.8l0,0c3.6,0,6.6,3,6.5,6.6C879.2,64,879.1,64.7,878.9,65.4z"/>
	<path class="st0" d="M933.4,109.8c0.7,2.2-0.3,4.7-2.3,5.8c-3.9,2-8.3,3-12.7,2.9c-10.4,0-18.4-4.7-18.5-17.2V66.9h-6.4
		c-2.8,0-5.1-2.3-5.1-5.1c0,0,0,0,0,0l0,0c0-2.8,2.3-5.1,5.1-5.1l0,0h6.4V36.4c0-2.9,1.9-5.5,4.7-6.2l0,0c3.5-1,7,1,8,4.5
		c0.2,0.6,0.2,1.2,0.2,1.7v20.3h16.1c2.8,0,5.1,2.3,5.1,5.1c0,0,0,0,0,0l0,0c0,2.8-2.3,5.1-5.1,5.1l0,0h-16.1v32.2
		c0,5.9,3.5,8.6,8.8,8.6c1.8,0,3.7-0.3,5.4-1c2.5-1,5.3,0.3,6.3,2.8C933.3,109.6,933.3,109.7,933.4,109.8L933.4,109.8z"/>
	<path class="st0" d="M1001.3,78.1v33.8c0,3.6-2.9,6.5-6.5,6.5c0,0,0,0,0,0l0,0c-3.6,0-6.5-2.9-6.5-6.5c0,0,0,0,0,0V82.2
		c0-12-5.6-16-13-16c-8,0-16.5,5.2-16.5,19.1v25.5c0,3.6-2.9,6.5-6.5,6.5l0,0c-3.6,0-6.5-2.9-6.5-6.5V35.9c0-3.6,2.9-6.5,6.5-6.5
		l0,0c3.6,0,6.5,2.9,6.5,6.5v30.5c4-7.5,11.2-10.9,19.6-10.9C991.4,55.5,1001.3,62.9,1001.3,78.1z"/>
	<path class="st0" d="M647.1,107.9h-20.2c-4.6,0-7.5-2.1-7.5-5.8c0-3.5,1.7-5.7,5.8-6.7c3.3,0.8,6.7,1.1,10.1,1.1
		c15.9,0,26.3-8.1,26.3-20.5c0.1-5.8-2.5-11.3-7.1-14.8c0.2-3.2,1.3-5.6,4.2-5.6c0.3,0,0.6,0,1,0.1c1.7,0.3,3.4-0.9,3.6-2.7
		c0.1-0.8-0.1-1.7-0.6-2.3v-0.1c-1.6-2-4.4-2.5-6.3-2.5h-0.1c-6.4,0-9.8,2.8-10.6,8.7c-3.4-0.9-6.8-1.4-10.3-1.4
		c-15.8,0-26.3,8.1-26.3,20.5c0,7.3,3.3,13.1,9.3,16.6c-5.7,1.9-9.5,5.8-9.5,12.1c0,5.6,3.8,9.3,8.5,11.5
		c-6.9,1.8-10.8,6.2-10.8,11.6c0,5.1,2.8,9.4,9,12.2c4.7,2.1,11.2,3.3,19.9,3.3c17.6,0,31.2-7.4,31.2-20
		C666.4,113.7,659.3,107.9,647.1,107.9z M635.2,64.6c7.5,0,13.1,4.6,13.1,11.4s-5.6,11.5-13.1,11.5s-13-4.6-13-11.5
		S627.8,64.6,635.2,64.6L635.2,64.6z M636.5,133.7c-4.2,0.1-8.4-0.4-12.5-1.6c-4.4-1.5-6.5-3.9-6.5-7c0-4,3.5-6.4,10.9-6.4h16.4
		c8,0,10.5,2.3,10.5,6.2C655.3,129.6,648.9,133.7,636.5,133.7z"/>
</g>
</svg>
