<svg width="576" height="202" viewBox="0 0 576 202" fill="none" xmlns="http://www.w3.org/2000/svg">
<path d="M125.61 27.7698C102.12 29.4398 79.8701 36.3398 67.7601 55.3098C54.2301 76.5198 52.8601 115.28 69.5401 133.73C82.7901 148.38 102.92 154.72 122.45 157.53C186.98 166.82 232.18 147.09 296.19 159.43C350.45 169.89 428.25 203.1 485.33 183.52C495.26 180.11 510.17 171.62 517.37 163.96C551.21 127.98 544.63 55.5798 499.68 39.2098C479.52 31.8698 439.05 37.3298 417.72 39.7398C378.15 44.2098 338.05 53.8498 298.18 52.5798C259.41 51.3498 222.97 35.3898 184.68 30.8498C168.12 28.8898 146.37 26.2798 125.6 27.7498L125.61 27.7698Z" fill="#F0F6FF"/>
<path d="M459.04 38.9805C461.08 33.8405 466.78 30.1905 472.32 30.9505C474.06 26.0505 479.03 22.4905 484.23 22.4305C489.43 22.3705 494.49 25.8105 496.34 30.6705C499.03 28.6505 503.05 29.3605 505.66 31.4805C508.27 33.6005 509.74 36.8005 510.88 39.9605C512.69 45.0005 507.05 43.6605 503.88 43.6605C499.01 43.6605 494.14 43.6405 489.27 43.6405C479.53 43.6405 469.79 43.6505 460.05 43.8005C459.64 43.8005 459.2 43.8005 458.86 43.5805C458.28 43.1905 458.25 42.3705 458.34 41.6805C458.46 40.7505 458.7 39.8505 459.04 39.0005V38.9805Z" fill="#8CBCFD"/>
<path d="M503.41 42.7495C502.71 42.7495 502 42.7095 501.32 42.6595C500.72 42.6195 500.15 42.5895 499.64 42.5895L485.03 42.5695C475.81 42.5695 465.9 42.5695 455.83 42.7295C455.37 42.7295 454.69 42.7495 454.07 42.3395C453.51 41.9695 452.9 41.1695 453.11 39.4795C453.24 38.4895 453.49 37.4995 453.87 36.5495C456.04 31.0595 461.77 27.4295 467.43 27.8095C469.52 22.9295 474.67 19.4195 479.98 19.3595C485.16 19.2895 490.26 22.5095 492.55 27.1395C495.67 25.5795 499.56 26.5995 502.05 28.6195C504.94 30.9695 506.47 34.4395 507.58 37.5395C508.17 39.1995 508.13 40.4495 507.43 41.3695C506.59 42.4895 505.05 42.7395 503.41 42.7395V42.7495ZM481.32 40.5595C482.57 40.5595 483.8 40.5595 485.03 40.5595L499.64 40.5795C500.18 40.5795 500.8 40.6195 501.44 40.6595C503.06 40.7595 505.28 40.8995 505.83 40.1695C506.08 39.8395 506.03 39.1495 505.69 38.2195C504.67 35.3895 503.29 32.2195 500.78 30.1795C498.65 28.4495 495.09 27.5895 492.69 29.3995L491.63 30.1995L491.16 28.9595C489.46 24.4995 484.78 21.3195 480 21.3695C475.23 21.4295 470.62 24.7295 469.02 29.2195L468.75 29.9895L467.94 29.8795C463.02 29.1995 457.64 32.4595 455.73 37.2895C455.41 38.0795 455.2 38.9095 455.1 39.7295C455.01 40.4095 455.14 40.6495 455.18 40.6695C455.27 40.7295 455.64 40.7295 455.79 40.7195C464.54 40.5895 473.17 40.5595 481.32 40.5595Z" fill="#142A3B"/>
<path d="M143.39 73.6598H123.62C123.32 73.6598 123.08 73.8998 123.08 74.1998V124.23C123.08 124.53 122.84 124.77 122.54 124.77H106.94C106.64 124.77 106.4 124.53 106.4 124.23V74.1998C106.4 73.8998 106.16 73.6598 105.86 73.6598H85.9902C85.6902 73.6598 85.4502 73.4198 85.4502 73.1198V61.2998C85.4502 60.9998 85.6902 60.7598 85.9902 60.7598H143.4C143.7 60.7598 143.94 60.9998 143.94 61.2998V73.1198C143.94 73.4198 143.7 73.6598 143.4 73.6598H143.39Z" fill="#00E1D8"/>
<path d="M194.45 115.799L193.34 123.899C193.32 124.079 193.2 124.249 193.04 124.329C191.16 125.299 189.02 125.739 186.71 125.739C180.67 125.739 176.3 123.809 174.55 119.339C174.39 118.929 173.84 118.859 173.59 119.209C170.69 123.299 165.24 125.739 156.93 125.739C147.33 125.739 141.89 121.469 141.89 113.609C141.89 105.749 147.03 100.419 160.81 97.6993L171.32 95.6493C171.58 95.5993 171.77 95.3693 171.77 95.0993V94.4093C171.77 89.9693 168.03 86.3293 163.61 86.6893C159.77 86.9993 156.97 88.8493 155.98 93.5093C155.91 93.8293 155.59 94.0293 155.28 93.9393L142.98 90.3693C142.7 90.2893 142.52 89.9993 142.58 89.7093C144.41 80.7893 151.94 75.2793 164.89 75.2793C179.83 75.2793 188.07 81.3893 188.07 93.8993V111.549C188.07 114.069 189.24 115.329 191.56 115.329C192.39 115.329 193.13 115.279 193.8 115.149C194.18 115.069 194.51 115.389 194.46 115.769L194.45 115.799ZM171.77 108.189V104.739C171.77 104.369 171.42 104.099 171.06 104.179L163.91 105.859C159.84 106.829 158.19 108.189 158.19 110.899C158.19 113.609 159.94 115.069 162.94 115.069C167.01 115.069 171.77 112.649 171.77 108.179V108.189Z" fill="#00E1D8"/>
<path d="M250.62 92.4698V124.21C250.62 124.52 250.37 124.78 250.05 124.78H234.69C234.38 124.78 234.12 124.53 234.12 124.21V97.0298C234.12 90.1398 231.31 87.9098 227.23 87.9098C222.48 87.9098 218.5 91.1098 218.5 99.1598V124.2C218.5 124.51 218.25 124.77 217.93 124.77H202.57C202.26 124.77 202 124.52 202 124.2V76.8298C202 76.5198 202.25 76.2598 202.57 76.2598H216.21C216.51 76.2598 216.76 76.4998 216.77 76.7998L217.12 83.5398C217.15 84.1098 217.9 84.2698 218.18 83.7798C221.4 78.1498 226.89 75.2998 233.82 75.2998C243.81 75.2998 250.6 81.2198 250.6 92.4698H250.62Z" fill="#00E1D8"/>
<path d="M311.54 128.56C311.54 139.81 300.68 145.63 284.28 145.63C266.72 145.63 259.45 141.17 259.45 134.18C259.45 130.52 261.68 127.1 266.96 125.45C267.44 125.3 267.5 124.66 267.06 124.42C263.55 122.51 261 119.48 261 114.98C261 110.48 263.73 107.29 267.82 105.5C268.22 105.32 268.27 104.76 267.9 104.53C263.38 101.7 261 97.4299 261 91.7999C261 81.3199 269.63 75.3099 284.67 75.3099C288.03 75.3099 291.13 75.6499 293.82 76.1699C294.13 76.2299 294.41 76.0299 294.47 75.7199C295.84 68.6199 300.28 62.7199 309.24 63.2499C309.5 63.2699 309.72 63.4699 309.77 63.7199L311.41 73.4999C311.47 73.8699 311.16 74.1899 310.78 74.1499C305.44 73.5799 301.99 75.3099 300.44 77.9299C300.28 78.1899 300.4 78.5299 300.67 78.6799C305.69 81.5099 308.33 85.9699 308.33 91.7999C308.33 102.28 299.7 108.19 284.66 108.19C281.22 108.19 278.16 107.91 275.48 107.35C275.39 107.33 275.3 107.33 275.21 107.35C273.08 107.94 272.24 109 272.24 110.71C272.24 112.84 274.08 114.01 277.28 114.01H293.87C305.03 114.01 311.52 118.86 311.52 128.56H311.54ZM298.54 130.21C298.54 128.27 297.09 127.11 292.62 127.11H279.33C273.99 127.11 271.96 128.18 271.96 130.51C271.96 133.32 276.03 134.97 285.44 134.97C294.36 134.97 298.53 132.93 298.53 130.22L298.54 130.21ZM277.49 91.8599C277.52 96.1899 280.55 98.8999 284.95 98.7799C288.73 98.6799 291.86 95.5299 291.85 91.7499C291.83 87.4399 288.83 84.6299 284.47 84.7199C280.64 84.7999 277.47 88.0299 277.5 91.8599H277.49Z" fill="#00E1D8"/>
<path d="M365.34 105.28H333.31C332.99 105.28 332.73 105.58 332.8 105.9C333.99 111.75 337.53 114.11 342.87 114.11C347.49 114.11 350.44 112.35 351.63 109.25C351.73 108.99 352 108.85 352.27 108.93L364.67 112.88C364.95 112.97 365.11 113.28 365 113.55C362.03 121.65 353.89 125.75 342.87 125.75C325.89 125.75 316.68 116.54 316.68 100.53C316.68 84.5196 325.8 75.3096 342 75.3096C358.2 75.3096 366.25 84.5196 366.25 99.8496C366.25 101.33 366.09 103.51 365.85 104.86C365.81 105.11 365.59 105.28 365.34 105.28ZM333.29 96.3596H350.32C350.64 96.3596 350.89 96.0696 350.83 95.7496C349.85 89.9296 346.87 86.8496 341.9 86.8496C336.93 86.8496 333.75 89.5796 332.77 95.7596C332.72 96.0696 332.97 96.3596 333.28 96.3596H333.29Z" fill="#00E1D8"/>
<path d="M425.02 92.4698V124.19C425.02 124.51 424.76 124.77 424.44 124.77H409.11C408.79 124.77 408.53 124.51 408.53 124.19V97.0298C408.53 90.1398 405.72 87.9098 401.64 87.9098C396.89 87.9098 392.91 91.1098 392.91 99.1598V124.19C392.91 124.51 392.65 124.77 392.33 124.77H377C376.68 124.77 376.42 124.51 376.42 124.19V76.8498C376.42 76.5298 376.68 76.2698 377 76.2698H390.62C390.93 76.2698 391.18 76.5098 391.2 76.8198L391.54 83.4998C391.57 84.0798 392.33 84.2498 392.63 83.7398C395.85 78.1398 401.34 75.2998 408.24 75.2998C418.23 75.2998 425.02 81.2198 425.02 92.4698Z" fill="#00E1D8"/>
<path d="M472.4 121.7C472.44 121.92 472.35 122.14 472.16 122.26C468.93 124.38 463.67 125.75 458.78 125.75C447.82 125.75 441.03 121.48 440.93 110.23V88.57C440.93 88.26 440.68 88.01 440.37 88.01H433.14C432.83 88.01 432.58 87.76 432.58 87.45V76.82C432.58 76.51 432.83 76.26 433.14 76.26H440.37C440.68 76.26 440.93 76.01 440.93 75.7V65.81C440.93 65.56 441.1 65.34 441.34 65.27L456.72 61.02C457.07 60.92 457.42 61.19 457.42 61.56V75.7C457.42 76.01 457.67 76.26 457.98 76.26H471.42C471.73 76.26 471.98 76.51 471.98 76.82V87.45C471.98 87.76 471.73 88.01 471.42 88.01H457.98C457.67 88.01 457.42 88.26 457.42 88.57V107.51C457.42 112.17 459.75 114.01 463.82 114.01C466.47 114.01 468.37 113.41 470.11 112.33C470.44 112.12 470.88 112.33 470.94 112.72L472.4 121.71V121.7Z" fill="#00E1D8"/>
<path d="M498.45 117.5C498.45 122.54 494.86 125.55 489.04 125.55C483.22 125.55 479.73 122.54 479.73 117.5C479.73 112.46 483.22 109.35 489.04 109.35C494.86 109.35 498.45 112.36 498.45 117.5ZM497.66 81.5298L496.04 101.31C495.92 102.78 494.69 103.92 493.21 103.92H484.96C483.48 103.92 482.25 102.79 482.13 101.31L480.51 81.5298C480.51 81.4498 480.51 81.3798 480.51 81.2998V63.5998C480.51 62.0298 481.78 60.7598 483.35 60.7598H494.84C496.41 60.7598 497.68 62.0298 497.68 63.5998V81.2998C497.68 81.3798 497.68 81.4498 497.68 81.5298H497.66Z" fill="#00E1D8"/>
<path d="M120.19 123.32H104.59C103.74 123.32 103.05 122.63 103.05 121.78V72.1998H83.6401C82.7901 72.1998 82.1001 71.5098 82.1001 70.6598V58.8398C82.1001 57.9898 82.7901 57.2998 83.6401 57.2998H141.05C141.9 57.2998 142.59 57.9898 142.59 58.8398V70.6598C142.59 71.5098 141.9 72.1998 141.05 72.1998H121.74V121.78C121.74 122.63 121.05 123.32 120.2 123.32H120.19ZM105.05 121.32H119.73V71.7398C119.73 70.8898 120.42 70.1998 121.27 70.1998H140.59V59.2998H84.1001V70.1998H103.51C104.36 70.1998 105.05 70.8898 105.05 71.7398V121.32Z" fill="#142A3B"/>
<path d="M184.36 124.29C177.86 124.29 173.57 122.16 171.58 117.97C168.25 122.11 162.4 124.29 154.58 124.29C144.39 124.29 138.54 119.51 138.54 111.16C138.54 102.17 144.62 96.9598 158.26 94.2698L168.42 92.2898V91.9598C168.42 90.0598 167.62 88.2299 166.22 86.9398C164.87 85.6898 163.13 85.0898 161.34 85.2398C157.51 85.5498 155.43 87.4098 154.6 91.2698C154.51 91.6998 154.24 92.0699 153.87 92.2999C153.5 92.5198 153.06 92.5798 152.65 92.4598L140.35 88.8898C139.57 88.6598 139.09 87.8698 139.25 87.0698C141.27 77.2498 149.54 71.8398 162.54 71.8398C178.36 71.8398 186.72 78.6298 186.72 91.4598V109.11C186.72 111.09 187.44 111.89 189.21 111.89C190.04 111.89 190.69 111.84 191.25 111.72C191.74 111.62 192.25 111.77 192.62 112.11C192.99 112.45 193.16 112.96 193.1 113.46L191.99 121.56C191.92 122.07 191.61 122.51 191.16 122.74C189.2 123.75 186.92 124.27 184.37 124.27L184.36 124.29ZM171.68 115.53C171.74 115.53 171.8 115.53 171.87 115.54C172.44 115.61 172.92 115.98 173.13 116.52C174.63 120.35 178.41 122.29 184.36 122.29C186.5 122.29 188.41 121.89 190.03 121.09L191.03 113.81C190.49 113.88 189.9 113.91 189.21 113.91C186.31 113.91 184.72 112.21 184.72 109.13V91.4799C184.72 79.7899 177.26 73.8598 162.54 73.8598C150.77 73.8598 143.25 78.5598 141.3 87.0898L152.76 90.4099C153.84 86.0299 156.68 83.6298 161.18 83.2598C163.53 83.0598 165.81 83.8598 167.58 85.4898C169.39 87.1598 170.43 89.5199 170.43 91.9799V92.6698C170.43 93.4098 169.9 94.0598 169.17 94.1998L158.66 96.2498C145.97 98.7498 140.55 103.22 140.55 111.18C140.55 116.26 142.98 122.31 154.59 122.31C162.23 122.31 167.56 120.25 170.43 116.2C170.72 115.79 171.19 115.55 171.69 115.55L171.68 115.53ZM160.59 113.62C156.99 113.62 154.84 111.69 154.84 108.45C154.84 104.52 157.96 103.24 161.33 102.43L168.48 100.75C168.95 100.64 169.44 100.75 169.82 101.05C170.2 101.35 170.42 101.8 170.42 102.28V105.73C170.42 110.67 165.42 113.62 160.59 113.62ZM168.42 102.82L161.79 104.37C157.65 105.36 156.84 106.61 156.84 108.44C156.84 110.54 158.1 111.61 160.59 111.61C163.84 111.61 168.42 109.78 168.42 105.72V102.81V102.82Z" fill="#142A3B"/>
<path d="M247.72 123.32H232.36C231.5 123.32 230.79 122.62 230.79 121.75V94.5701C230.79 87.3701 227.64 86.4501 224.9 86.4501C219.99 86.4501 217.17 90.1901 217.17 96.7001V121.74C217.17 122.6 216.47 123.31 215.6 123.31H200.24C199.38 123.31 198.67 122.61 198.67 121.74V74.3701C198.67 73.5101 199.37 72.8001 200.24 72.8001H213.88C214.72 72.8001 215.4 73.4501 215.44 74.2901L215.72 79.6301C219.14 74.5201 224.57 71.8301 231.49 71.8301C242.62 71.8301 249.27 78.6201 249.27 90.0001V121.74C249.27 122.6 248.57 123.31 247.7 123.31L247.72 123.32ZM232.8 121.32H247.29V90.0201C247.29 79.9001 241.39 73.8501 231.51 73.8501C224.83 73.8501 219.72 76.6101 216.74 81.8301C216.39 82.4501 215.69 82.7501 215 82.5901C214.32 82.4301 213.84 81.8501 213.81 81.1501L213.48 74.8301H200.69V121.33H215.18V96.7201C215.18 89.0501 218.82 84.4701 224.91 84.4701C230.14 84.4701 232.8 87.8701 232.8 94.5901V121.33V121.32Z" fill="#142A3B"/>
<path d="M281.94 144.17C264.8 144.17 256.11 139.98 256.11 131.72C256.11 127.47 258.75 124.09 263.4 122.35C259.64 120.01 257.66 116.63 257.66 112.52C257.66 108.41 260.14 104.58 264.35 102.46C259.91 99.4098 257.66 94.9998 257.66 89.3298C257.66 78.2098 266.65 71.8398 282.33 71.8398C285.36 71.8398 288.36 72.1098 291.23 72.6398C293.05 63.9798 298.78 59.2998 306.96 59.7898C307.68 59.8298 308.3 60.3798 308.42 61.0998L310.06 70.8798C310.14 71.3598 310 71.8398 309.66 72.1998C309.32 72.5598 308.83 72.7398 308.34 72.6898C304.14 72.2398 300.85 73.2898 299.23 75.5898C304.31 78.6198 307 83.3698 307 89.3498C307 100.4 298.01 106.74 282.33 106.74C278.88 106.74 275.76 106.46 273.05 105.9C271.27 106.42 270.91 107.19 270.91 108.27C270.91 110.17 273.11 110.57 274.95 110.57H291.54C303.57 110.57 310.2 116.09 310.2 126.12C310.2 137.44 299.64 144.19 281.94 144.19V144.17ZM282.33 73.8398C267.92 73.8398 259.66 79.4898 259.66 89.3298C259.66 94.5398 261.82 98.5398 266.09 101.21C266.57 101.51 266.85 102.06 266.81 102.63C266.77 103.21 266.41 103.71 265.88 103.94C261.93 105.67 259.66 108.8 259.66 112.51C259.66 116.22 261.52 119.08 265.2 121.07C265.75 121.37 266.07 121.97 266.01 122.59C265.95 123.21 265.52 123.74 264.92 123.93C260.53 125.3 258.11 128.07 258.11 131.71C258.11 140.34 271.07 142.16 281.94 142.16C298.63 142.16 308.2 136.3 308.2 126.09C308.2 114.89 299.14 112.54 291.54 112.54H274.95C271.17 112.54 268.91 110.93 268.91 108.24C268.91 106.02 270.12 104.61 272.61 103.92C272.85 103.85 273.11 103.85 273.35 103.9C275.95 104.45 278.97 104.72 282.32 104.72C296.72 104.72 304.99 99.1098 304.99 89.3298C304.99 83.8798 302.58 79.7598 297.84 77.0798C297.47 76.8698 297.19 76.5198 297.09 76.1098C296.98 75.7098 297.04 75.2998 297.25 74.9498C299.12 71.7998 303.01 70.2398 307.99 70.6298L306.5 61.7598C296.85 61.3698 293.99 68.8898 293.11 73.4398C293.03 73.8498 292.8 74.2098 292.45 74.4398C292.11 74.6698 291.69 74.7598 291.29 74.6798C288.4 74.1198 285.39 73.8398 282.33 73.8398ZM283.11 133.49C273.36 133.49 268.63 131.7 268.63 128.03C268.63 124.13 273.11 123.63 277 123.63H290.29C293.26 123.63 297.21 124.06 297.21 127.73C297.21 131.4 292.07 133.48 283.12 133.48L283.11 133.49ZM277 125.63C270.63 125.63 270.63 127.25 270.63 128.03C270.63 130.23 275.18 131.49 283.11 131.49C292.04 131.49 295.2 129.47 295.2 127.74C295.2 127.06 295.2 125.64 290.28 125.64H276.99L277 125.63ZM282.33 97.3098C279.95 97.3098 277.92 96.5598 276.44 95.1298C274.96 93.6998 274.17 91.7198 274.16 89.3998C274.13 84.9998 277.7 81.3498 282.11 81.2498C284.51 81.1998 286.69 81.9798 288.21 83.4598C289.71 84.9198 290.5 86.9298 290.51 89.2798C290.53 93.5898 287 97.1898 282.64 97.3098C282.53 97.3098 282.43 97.3098 282.33 97.3098ZM276.16 89.3798C276.17 91.1498 276.75 92.6398 277.83 93.6898C278.98 94.7998 280.64 95.3598 282.59 95.3098C285.87 95.2198 288.53 92.5198 288.51 89.2898C288.51 87.4898 287.91 85.9698 286.81 84.8898C285.67 83.7798 284.02 83.2098 282.15 83.2498C278.88 83.3198 276.13 86.1298 276.15 89.3798H276.16Z" fill="#142A3B"/>
<path d="M340.53 124.29C323.25 124.29 313.34 114.73 313.34 98.0696C313.34 81.4096 322.93 71.8496 339.66 71.8496C356.39 71.8496 364.91 81.1596 364.91 97.3896C364.91 98.7896 364.76 101.09 364.5 102.58C364.37 103.3 363.74 103.83 363.01 103.83H331.58C332.71 108.48 335.57 110.66 340.54 110.66C343.37 110.66 347.03 109.93 348.36 106.44C348.65 105.68 349.47 105.28 350.24 105.53L362.64 109.48C363.03 109.61 363.36 109.89 363.55 110.26C363.73 110.63 363.75 111.06 363.61 111.45C360.57 119.74 352.38 124.3 340.54 124.3L340.53 124.29ZM339.66 73.8496C323.98 73.8496 315.34 82.4496 315.34 98.0696C315.34 113.69 324.29 122.29 340.53 122.29C351.24 122.29 358.67 118.36 361.54 111.22L350.05 107.56C348.98 109.98 346.45 112.65 340.53 112.65C334.61 112.65 330.7 109.62 329.48 103.64C329.39 103.2 329.5 102.74 329.79 102.38C330.08 102.02 330.51 101.82 330.97 101.82H362.59C362.77 100.59 362.91 98.7796 362.91 97.3896C362.91 82.2096 354.65 73.8496 339.66 73.8496ZM347.98 94.8996H330.95C330.51 94.8996 330.08 94.7096 329.79 94.3696C329.5 94.0296 329.37 93.5796 329.44 93.1496C330.47 86.6796 333.87 83.3996 339.56 83.3996C343.33 83.3996 348.12 85.0896 349.47 93.1296C349.54 93.5696 349.42 94.0196 349.13 94.3596C348.84 94.6996 348.42 94.8996 347.97 94.8996H347.98ZM331.52 92.8996H347.4C346.4 87.8496 343.83 85.3896 339.56 85.3896C335.04 85.3896 332.47 87.7796 331.51 92.8996H331.52Z" fill="#142A3B"/>
<path d="M422.1 123.32H406.77C405.9 123.32 405.19 122.61 405.19 121.74V94.5798C405.19 87.3798 402.04 86.4598 399.3 86.4598C394.31 86.4598 391.57 90.0998 391.57 96.7098V121.74C391.57 122.61 390.86 123.32 389.99 123.32H374.66C373.79 123.32 373.08 122.61 373.08 121.74V74.3998C373.08 73.5298 373.79 72.8198 374.66 72.8198H388.28C389.12 72.8198 389.81 73.4798 389.86 74.3098L390.13 79.6398C393.56 74.5298 398.98 71.8398 405.9 71.8398C417.03 71.8398 423.68 78.6298 423.68 90.0098V121.73C423.68 122.6 422.97 123.31 422.1 123.31V123.32ZM407.19 121.32H421.68V90.0198C421.68 79.8998 415.78 73.8498 405.9 73.8498C399.24 73.8498 394.14 76.5998 391.15 81.7898C390.79 82.4098 390.09 82.7199 389.4 82.5499C388.72 82.3899 388.23 81.7998 388.2 81.0998L387.88 74.8198H375.09V121.32H389.58V96.7098C389.58 89.0398 393.22 84.4598 399.31 84.4598C404.54 84.4598 407.2 87.8598 407.2 94.5798V121.32H407.19Z" fill="#142A3B"/>
<path d="M456.44 124.29C444.03 124.29 437.69 118.73 437.59 107.78V86.5599H430.8C429.94 86.5599 429.25 85.8599 429.25 85.0099V74.3799C429.25 73.5199 429.95 72.8299 430.8 72.8299H437.59V63.3899C437.59 62.6899 438.06 62.0799 438.73 61.8899L454.11 57.6399C454.58 57.5099 455.08 57.5999 455.47 57.8999C455.86 58.1999 456.08 58.6499 456.08 59.1399V72.8299H469.08C469.94 72.8299 470.63 73.5299 470.63 74.3799V85.0099C470.63 85.8699 469.93 86.5599 469.08 86.5599H456.08V105.06C456.08 108.91 457.7 110.56 461.48 110.56C463.75 110.56 465.53 110.09 467.25 109.03C467.69 108.76 468.23 108.73 468.7 108.94C469.17 109.16 469.51 109.59 469.59 110.11L471.05 119.1C471.15 119.71 470.88 120.32 470.37 120.65C466.99 122.87 461.52 124.3 456.44 124.3V124.29ZM431.25 84.5599H438.04C438.9 84.5599 439.59 85.2599 439.59 86.1199V107.78C439.68 117.68 445.03 122.3 456.44 122.3C461.03 122.3 465.93 121.06 469.03 119.13L467.72 111.07C465.85 112.1 463.9 112.56 461.48 112.56C456.57 112.56 454.08 110.04 454.08 105.06V86.1199C454.08 85.2599 454.78 84.5599 455.63 84.5599H468.63V74.8199H455.63C454.77 74.8199 454.08 74.1199 454.08 73.2599V59.7099L439.59 63.7199V73.2699C439.59 74.1299 438.89 74.8299 438.04 74.8299H431.25V84.5699V84.5599Z" fill="#142A3B"/>
<path d="M486.7 124.09C480.34 124.09 476.39 120.62 476.39 115.04C476.39 109.46 480.34 105.89 486.7 105.89C493.06 105.89 497.11 109.4 497.11 115.04C497.11 120.68 493.12 124.09 486.7 124.09ZM486.7 107.89C481.42 107.89 478.39 110.5 478.39 115.04C478.39 119.58 481.42 122.09 486.7 122.09C491.98 122.09 495.11 119.45 495.11 115.04C495.11 110.63 492.05 107.89 486.7 107.89ZM490.87 102.46H482.62C480.64 102.46 478.95 100.91 478.79 98.9298L477.17 79.1498C477.17 79.0498 477.16 78.9398 477.16 78.8398V61.1398C477.16 59.0198 478.88 57.2998 481 57.2998H492.49C494.61 57.2998 496.33 59.0198 496.33 61.1398V78.8398C496.33 78.9398 496.33 79.0498 496.32 79.1498L494.7 98.9398C494.54 100.92 492.86 102.47 490.87 102.47V102.46ZM481 59.2998C479.99 59.2998 479.16 60.1298 479.16 61.1398V78.8398C479.16 78.8398 479.16 78.9398 479.16 78.9798L480.78 98.7698C480.86 99.7198 481.66 100.46 482.61 100.46H490.86C491.81 100.46 492.62 99.7198 492.69 98.7698L494.31 78.9898C494.31 78.9398 494.31 78.8898 494.31 78.8398V61.1398C494.31 60.1298 493.48 59.2998 492.47 59.2998H480.98H481Z" fill="#142A3B"/>
<path d="M45.98 34.3698C48.24 29.7798 54.55 26.5098 60.69 27.1898C62.61 22.8098 68.1199 19.6198 73.8799 19.5698C79.63 19.5198 85.17 20.7698 87.22 25.1098C90.2 23.3098 93.26 19.5698 99.7 22.0098C102.93 23.2298 107.16 27.1898 104.79 33.2998C103.01 37.8998 99.14 38.5598 95.64 38.5498C90.25 38.5498 84.85 38.5298 79.46 38.5298C68.67 38.5298 57.89 38.5398 47.1 38.6698C46.65 38.6698 46.16 38.6698 45.79 38.4698C45.15 38.1298 45.12 37.3898 45.21 36.7698C45.34 35.9398 45.6 35.1398 45.98 34.3698Z" fill="#8CBCFD"/>
<path d="M44.3999 36.6698C43.9299 36.6698 43.3499 36.6398 42.8199 36.3498C42.2999 36.0698 41.4599 35.3398 41.7299 33.6198C41.8699 32.7098 42.1599 31.8098 42.5899 30.9298C45.0099 25.9898 51.3999 22.7298 57.5899 23.1298C59.9099 18.6998 65.4599 15.6198 71.3699 15.5698C76.6599 15.5398 82.9299 17.0098 85.6599 21.2498C88.3899 19.5798 91.5599 17.8098 97.7299 19.0298C99.8199 19.4398 102.7 21.3998 104.17 24.3398C105.04 26.0798 105.75 28.8498 104.17 32.1398C101.97 36.6998 97.4999 36.6198 94.2399 36.5598C93.8599 36.5598 93.4999 36.5498 93.1399 36.5498L76.9599 36.5298C66.7599 36.5298 55.7599 36.5298 44.6199 36.6698C44.5499 36.6698 44.4799 36.6698 44.3999 36.6698ZM56.5899 25.0998C51.4899 25.0998 46.3299 27.8698 44.3899 31.8098C44.0499 32.4998 43.8199 33.2098 43.7099 33.9298C43.6699 34.2198 43.6699 34.5398 43.7699 34.5898C43.9299 34.6798 44.3499 34.6698 44.5999 34.6698C55.7499 34.5298 66.7499 34.5198 76.9699 34.5298L93.1499 34.5498C93.5199 34.5498 93.8999 34.5498 94.2899 34.5598C97.4499 34.6198 100.74 34.6798 102.38 31.2698C103.37 29.2098 103.38 27.1798 102.4 25.2298C101.23 22.8898 98.9299 21.2998 97.3599 20.9898C91.7299 19.8798 89.1499 21.4598 86.4199 23.1298L84.8799 24.0698L84.4099 23.0698C82.4599 18.9398 76.4699 17.5198 71.4099 17.5698C66.0599 17.6198 60.8899 20.5698 59.1299 24.5898L58.8299 25.2598L58.0999 25.1798C57.5999 25.1298 57.0999 25.0998 56.5999 25.0998H56.5899Z" fill="#142A3B"/>
<path d="M379.21 181.73C364.5 181.27 349.85 181.44 335.14 181.44C328.41 181.44 321.52 182.3 314.85 181.9C313.06 181.79 311.08 181.46 309.98 180.05C309.02 178.83 308.99 177.1 309.42 175.61C310.29 172.55 312.9 170.14 315.91 169.12C318.92 168.1 322.28 168.36 325.27 169.44C327.84 159.77 337.39 152.43 347.4 152.43C357.41 152.43 366.96 159.77 369.53 169.44C375.23 166.19 383.36 168.02 386.74 173.74C387.85 175.62 388.35 178.15 387.05 179.89C385.65 181.76 382.92 181.85 380.59 181.77C380.13 181.75 379.67 181.74 379.21 181.72V181.73Z" fill="#8CBCFD"/>
<path d="M315.94 179.76C314.65 179.76 313.35 179.73 312.07 179.65C310.19 179.54 307.85 179.18 306.47 177.42C305.42 176.08 305.15 174.14 305.73 172.09C306.65 168.85 309.39 166.11 312.86 164.92C315.59 163.99 318.76 163.99 321.88 164.92C324.95 155.31 334.56 148.18 344.68 148.18C354.74 148.18 364.31 155.23 367.43 164.76C373.6 162 381.5 164.26 384.88 169.99C386.09 172.04 386.79 175.03 385.13 177.25C383.5 179.42 380.66 179.63 377.83 179.53L376.45 179.48C364.96 179.12 353.29 179.15 342.01 179.18C338.81 179.18 335.61 179.2 332.41 179.2C329.71 179.2 326.92 179.34 324.23 179.48C321.5 179.62 318.7 179.76 315.93 179.76H315.94ZM317.24 166.23C315.93 166.23 314.67 166.43 313.51 166.82C310.65 167.79 308.41 170.02 307.66 172.64C307.26 174.04 307.4 175.37 308.04 176.19C308.93 177.32 310.72 177.57 312.19 177.66C316.1 177.9 320.19 177.69 324.13 177.48C326.85 177.34 329.66 177.2 332.41 177.2C335.61 177.2 338.81 177.2 342 177.18C353.3 177.15 364.99 177.12 376.51 177.48L377.89 177.53C380.17 177.61 382.44 177.48 383.52 176.05C384.6 174.61 383.99 172.44 383.15 171.01C380.09 165.84 372.69 163.99 367.3 167.07L366.17 167.71L365.84 166.46C363.37 157.19 354.27 150.19 344.67 150.19C335.07 150.19 325.97 157.19 323.51 166.46L323.23 167.51L322.2 167.14C320.54 166.54 318.85 166.24 317.23 166.24L317.24 166.23Z" fill="#142A3B"/>
</svg>
