<svg width="160" height="160" viewBox="0 0 160 160" fill="none" xmlns="http://www.w3.org/2000/svg">
<g opacity="0.15">
<path d="M39.99 93.1986C43.15 94.4186 46.61 95.1986 48.11 98.0986C48.94 99.7086 48.9 101.599 49.16 103.389C50.41 112.019 58.8 118.089 67.38 116.989C75.11 115.989 81.6 109.969 84.62 102.789C85.93 99.6686 86.92 96.0286 89.84 94.3386C91.43 93.4186 93.33 93.2586 95.1 92.7586C100.65 91.1886 104.87 85.7686 105.03 80.0086C105.2 74.2486 101.29 68.5986 95.85 66.7086C91.73 65.2786 87.12 65.8786 82.97 64.5486C75.9 62.2786 70.8 55.9386 62.97 55.9886C52.99 56.0586 39.21 65.3886 34.36 73.9386C31.05 79.7686 31.57 88.3486 37.26 91.9086C38.1 92.4386 39.03 92.8486 39.99 93.2186V93.1986Z" fill="#7FEC96"/>
</g>
<path d="M85.764 90.4182C86.5481 87.0964 84.4907 83.7679 81.1689 82.9839C77.847 82.1998 74.5186 84.2572 73.7345 87.579C72.9505 90.9009 75.0078 94.2293 78.3297 95.0134C81.6515 95.7974 84.98 93.7401 85.764 90.4182Z" fill="#00E1D8"/>
<path d="M79.75 95.9591C75.91 95.9591 72.79 92.8391 72.79 88.9991C72.79 85.1591 75.91 82.0391 79.75 82.0391C83.59 82.0391 86.71 85.1591 86.71 88.9991C86.71 92.8391 83.59 95.9591 79.75 95.9591ZM79.75 83.6091C76.78 83.6091 74.36 86.0291 74.36 88.9991C74.36 91.9691 76.78 94.3891 79.75 94.3891C82.72 94.3891 85.14 91.9691 85.14 88.9991C85.14 86.0291 82.72 83.6091 79.75 83.6091Z" fill="#142A3B"/>
<path d="M80.5397 65.7109H78.9697V82.8309H80.5397V65.7109Z" fill="#142A3B"/>
<path d="M85.6025 91.3735L84.6973 92.6562L105.074 107.036L105.98 105.753L85.6025 91.3735Z" fill="#142A3B"/>
<path d="M73.78 91.3633L53.4268 105.742L54.3327 107.024L74.6859 92.6456L73.78 91.3633Z" fill="#142A3B"/>
<path d="M94.5497 66.6405H65.0197C62.0897 66.6405 59.6997 64.2505 59.6997 61.3205V31.8005C59.6997 28.8605 62.0897 26.4805 65.0197 26.4805H94.5497C97.4797 26.4805 99.8697 28.8705 99.8697 31.8005V61.3205C99.8697 64.2605 97.4797 66.6405 94.5497 66.6405ZM65.0197 28.0405C62.9497 28.0405 61.2697 29.7205 61.2697 31.8005V61.3205C61.2697 63.3905 62.9497 65.0805 65.0197 65.0805H94.5497C96.6197 65.0805 98.2997 63.4005 98.2997 61.3205V31.8005C98.2997 29.7305 96.6197 28.0405 94.5497 28.0405H65.0197Z" fill="#142A3B"/>
<path d="M79.8797 47.4511H79.8598C76.0498 47.4311 72.9598 44.3211 72.9698 40.5111C72.9698 38.6611 73.6998 36.9311 75.0098 35.6311C76.3098 34.3311 78.0397 33.6211 79.8797 33.6211H79.9098C81.7598 33.6211 83.4897 34.3511 84.7898 35.6611C86.0898 36.9711 86.7998 38.7111 86.7998 40.5611C86.7898 44.3611 83.6897 47.4511 79.8797 47.4511ZM79.8797 34.5211C78.2797 34.5211 76.7797 35.1411 75.6397 36.2711C74.4997 37.4011 73.8698 38.9111 73.8598 40.5211C73.8498 43.8411 76.5398 46.5511 79.8598 46.5611H79.8797C83.1897 46.5611 85.8898 43.8711 85.8998 40.5611C85.8998 38.9511 85.2898 37.4411 84.1498 36.3011C83.0198 35.1611 81.5098 34.5311 79.8998 34.5211H79.8797Z" fill="#142A3B"/>
<path d="M93.6097 66.311L65.9398 66.281C65.8198 66.281 65.6998 66.231 65.6198 66.151C65.5398 66.061 65.4897 65.951 65.4897 65.831L65.5697 59.611C65.4597 55.761 67.9497 51.941 71.3597 50.731C73.6397 49.921 76.2797 49.541 79.8298 49.581C83.3997 49.591 86.0097 49.971 88.2897 50.791C91.6897 52.021 94.1597 55.871 94.0197 59.731L94.0597 65.871C94.0597 65.991 94.0097 66.101 93.9297 66.191C93.8497 66.281 93.7297 66.321 93.6097 66.321V66.311ZM66.3997 65.381L93.1598 65.411L93.1198 59.711C93.2398 56.191 91.0298 52.731 87.9798 51.621C85.7998 50.831 83.2897 50.471 79.8298 50.461H79.6497C76.2697 50.461 73.7998 50.801 71.6598 51.561C68.5998 52.641 66.3697 56.091 66.4697 59.591L66.3997 65.381Z" fill="#142A3B"/>
<path d="M73.1599 66.1589C72.9099 66.1589 72.7099 65.9589 72.7099 65.7089L72.6899 58.3289C72.6899 58.0789 72.8899 57.8789 73.1399 57.8789C73.3899 57.8789 73.5899 58.0789 73.5899 58.3289L73.6099 65.7089C73.6099 65.9589 73.4099 66.1589 73.1599 66.1589Z" fill="#142A3B"/>
<path d="M86.3398 66.1592C86.0898 66.1592 85.8898 65.9492 85.8998 65.7092L85.9698 58.3892C85.9698 58.1392 86.1698 57.9492 86.4198 57.9492C86.6698 57.9492 86.8698 58.1592 86.8598 58.3992L86.7898 65.7192C86.7898 65.9692 86.5898 66.1592 86.3398 66.1592Z" fill="#142A3B"/>
<path d="M79.7795 54.7916C77.4395 54.7916 75.5396 52.8916 75.5396 50.5516C75.5396 50.3016 75.7395 50.1016 75.9895 50.1016C76.2395 50.1016 76.4396 50.3016 76.4396 50.5516C76.4396 52.3916 77.9395 53.8916 79.7795 53.8916C81.6195 53.8916 83.1196 52.3916 83.1196 50.5516C83.1196 50.3016 83.3195 50.1016 83.5695 50.1016C83.8195 50.1016 84.0195 50.3016 84.0195 50.5516C84.0195 52.8916 82.1195 54.7916 79.7795 54.7916Z" fill="#142A3B"/>
<path d="M63.0599 45.4603C62.8099 45.4603 62.6099 45.2603 62.6099 45.0103V37.7703C62.6099 37.5203 62.8099 37.3203 63.0599 37.3203C63.3099 37.3203 63.5099 37.5203 63.5099 37.7703V45.0103C63.5099 45.2603 63.3099 45.4603 63.0599 45.4603Z" fill="#142A3B"/>
<path d="M63.0599 36.2198C62.8099 36.2198 62.6099 36.0198 62.6099 35.7698V32.5398C62.6099 32.2898 62.8099 32.0898 63.0599 32.0898C63.3099 32.0898 63.5099 32.2898 63.5099 32.5398V35.7698C63.5099 36.0198 63.3099 36.2198 63.0599 36.2198Z" fill="#142A3B"/>
<path d="M49.4499 133.252H19.9299C16.9899 133.252 14.6099 130.862 14.6099 127.932V98.402C14.6099 95.472 16.9999 93.082 19.9299 93.082H49.4499C52.3899 93.082 54.7699 95.472 54.7699 98.402V127.932C54.7699 130.862 52.3799 133.252 49.4499 133.252ZM19.9299 94.652C17.8599 94.652 16.1699 96.332 16.1699 98.402V127.932C16.1699 130.002 17.8499 131.682 19.9299 131.682H49.4499C51.5199 131.682 53.2099 130.002 53.2099 127.932V98.402C53.2099 96.332 51.5299 94.652 49.4499 94.652H19.9299Z" fill="#142A3B"/>
<path d="M34.7896 114.06H34.7596C32.9096 114.06 31.1796 113.33 29.8796 112.02C28.5796 110.71 27.8696 108.97 27.8696 107.12C27.8796 103.32 30.9896 100.23 34.7896 100.23H34.8096C38.6196 100.25 41.7096 103.36 41.6996 107.17C41.6996 109.02 40.9696 110.75 39.6596 112.05C38.3596 113.35 36.6296 114.06 34.7896 114.06ZM34.7896 101.13C31.4796 101.13 28.7796 103.82 28.7696 107.13C28.7696 108.74 29.3796 110.25 30.5196 111.39C31.6496 112.53 33.1596 113.16 34.7696 113.17H34.7896C36.3896 113.17 37.8896 112.55 39.0296 111.42C40.1696 110.29 40.7996 108.78 40.8096 107.17C40.8196 103.85 38.1296 101.14 34.8096 101.13H34.7896Z" fill="#142A3B"/>
<path d="M48.5096 132.92L20.8396 132.89C20.7196 132.89 20.5996 132.84 20.5196 132.76C20.4396 132.67 20.3896 132.56 20.3896 132.44L20.4696 126.22C20.3596 122.37 22.8496 118.55 26.2496 117.34C28.5296 116.53 31.1597 116.15 34.7197 116.19C38.2896 116.2 40.8996 116.58 43.1796 117.4C46.5796 118.63 49.0496 122.48 48.9096 126.35L48.9496 132.48C48.9496 132.6 48.8996 132.71 48.8196 132.8C48.7396 132.89 48.6196 132.93 48.4996 132.93L48.5096 132.92ZM21.2996 131.99L48.0597 132.02L48.0196 126.32C48.1397 122.8 45.9296 119.33 42.8797 118.23C40.6996 117.44 38.1896 117.09 34.7296 117.07H34.5496C31.1696 117.07 28.6996 117.41 26.5596 118.17C23.4996 119.25 21.2696 122.7 21.3696 126.2L21.2996 131.99Z" fill="#142A3B"/>
<path d="M28.0598 132.772C27.8098 132.772 27.6098 132.572 27.6098 132.322L27.5898 124.942C27.5898 124.692 27.7898 124.492 28.0398 124.492C28.2898 124.492 28.4898 124.692 28.4898 124.942L28.5098 132.322C28.5098 132.572 28.3098 132.772 28.0598 132.772Z" fill="#142A3B"/>
<path d="M41.2397 132.773C40.9897 132.773 40.7897 132.563 40.7997 132.323L40.8697 125.003C40.8697 124.753 41.0697 124.562 41.3197 124.562C41.5697 124.562 41.7697 124.773 41.7597 125.013L41.6897 132.333C41.6897 132.583 41.4897 132.773 41.2397 132.773Z" fill="#142A3B"/>
<path d="M34.6799 121.401C32.3399 121.401 30.4399 119.501 30.4399 117.161C30.4399 116.911 30.6399 116.711 30.8899 116.711C31.1399 116.711 31.3399 116.911 31.3399 117.161C31.3399 119.001 32.8399 120.501 34.6799 120.501C36.5199 120.501 38.0199 119.001 38.0199 117.161C38.0199 116.911 38.2199 116.711 38.4699 116.711C38.7199 116.711 38.9199 116.911 38.9199 117.161C38.9199 119.501 37.0199 121.401 34.6799 121.401Z" fill="#142A3B"/>
<path d="M51.4197 112.071C51.1697 112.071 50.9697 111.871 50.9697 111.621V108.141C50.9697 107.891 51.1697 107.691 51.4197 107.691C51.6697 107.691 51.8697 107.891 51.8697 108.141V111.621C51.8697 111.871 51.6697 112.071 51.4197 112.071Z" fill="#142A3B"/>
<path d="M51.4197 106.593C51.1697 106.593 50.9697 106.393 50.9697 106.143V99.1531C50.9697 98.9031 51.1697 98.7031 51.4197 98.7031C51.6697 98.7031 51.8697 98.9031 51.8697 99.1531V106.143C51.8697 106.393 51.6697 106.593 51.4197 106.593Z" fill="#142A3B"/>
<path d="M139.69 133.252H110.17C107.23 133.252 104.85 130.862 104.85 127.932V98.402C104.85 95.472 107.24 93.082 110.17 93.082H139.69C142.63 93.082 145.01 95.472 145.01 98.402V127.932C145.01 130.862 142.62 133.252 139.69 133.252ZM110.17 94.652C108.1 94.652 106.41 96.332 106.41 98.402V127.932C106.41 130.002 108.09 131.682 110.17 131.682H139.69C141.76 131.682 143.45 130.002 143.45 127.932V98.402C143.45 96.332 141.77 94.652 139.69 94.652H110.17Z" fill="#142A3B"/>
<path d="M125.03 114.06H125C123.15 114.06 121.42 113.33 120.12 112.02C118.82 110.71 118.11 108.97 118.11 107.12C118.12 103.32 121.22 100.23 125.03 100.23H125.05C128.86 100.25 131.95 103.36 131.94 107.17C131.94 109.02 131.21 110.75 129.9 112.05C128.59 113.35 126.87 114.06 125.03 114.06ZM125.03 101.13C121.72 101.13 119.02 103.82 119.01 107.13C119.01 108.74 119.62 110.25 120.76 111.39C121.89 112.53 123.4 113.16 125.01 113.17H125.03C126.63 113.17 128.13 112.55 129.27 111.42C130.41 110.29 131.04 108.78 131.05 107.17C131.06 103.85 128.37 101.14 125.05 101.13H125.03Z" fill="#142A3B"/>
<path d="M138.75 132.92L111.08 132.89C110.96 132.89 110.84 132.84 110.76 132.76C110.68 132.67 110.63 132.56 110.63 132.44L110.71 126.22C110.6 122.37 113.09 118.55 116.49 117.34C118.77 116.53 121.41 116.15 124.96 116.19C128.53 116.2 131.14 116.58 133.42 117.4C136.82 118.63 139.29 122.48 139.15 126.35L139.19 132.48C139.19 132.6 139.14 132.71 139.06 132.8C138.98 132.89 138.86 132.93 138.74 132.93L138.75 132.92ZM111.54 131.99L138.3 132.02L138.26 126.32C138.38 122.8 136.17 119.33 133.12 118.23C130.94 117.44 128.43 117.09 124.97 117.07H124.79C121.41 117.07 118.94 117.41 116.8 118.17C113.74 119.25 111.51 122.7 111.61 126.2L111.54 131.99Z" fill="#142A3B"/>
<path d="M118.3 132.772C118.05 132.772 117.85 132.572 117.85 132.322L117.83 124.942C117.83 124.692 118.03 124.492 118.28 124.492C118.53 124.492 118.73 124.692 118.73 124.942L118.75 132.322C118.75 132.572 118.55 132.772 118.3 132.772Z" fill="#142A3B"/>
<path d="M131.48 132.773C131.23 132.773 131.03 132.563 131.04 132.323L131.11 125.003C131.11 124.753 131.31 124.562 131.56 124.562C131.81 124.562 132.01 124.773 132 125.013L131.93 132.333C131.93 132.583 131.73 132.773 131.48 132.773Z" fill="#142A3B"/>
<path d="M124.92 121.401C122.58 121.401 120.68 119.501 120.68 117.161C120.68 116.911 120.88 116.711 121.13 116.711C121.38 116.711 121.58 116.911 121.58 117.161C121.58 119.001 123.08 120.501 124.92 120.501C126.76 120.501 128.26 119.001 128.26 117.161C128.26 116.911 128.46 116.711 128.71 116.711C128.96 116.711 129.16 116.911 129.16 117.161C129.16 119.501 127.26 121.401 124.92 121.401Z" fill="#142A3B"/>
<path d="M114.57 96.8922H111.09C110.84 96.8922 110.64 96.6922 110.64 96.4422C110.64 96.1922 110.84 95.9922 111.09 95.9922H114.57C114.82 95.9922 115.02 96.1922 115.02 96.4422C115.02 96.6922 114.82 96.8922 114.57 96.8922Z" fill="#142A3B"/>
<path d="M123.55 96.8922H116.56C116.31 96.8922 116.11 96.6922 116.11 96.4422C116.11 96.1922 116.31 95.9922 116.56 95.9922H123.55C123.8 95.9922 124 96.1922 124 96.4422C124 96.6922 123.8 96.8922 123.55 96.8922Z" fill="#142A3B"/>
</svg>
