<svg width="101" height="101" viewBox="0 0 101 101" fill="none" xmlns="http://www.w3.org/2000/svg">
<rect width="100" height="100" transform="translate(0.28125 0.563965)" fill="white"/>
<g opacity="0.15">
<path d="M52.6697 51.564C47.8697 49.2765 45.5322 52.2515 45.2447 52.4265C40.0947 55.4515 39.0197 60.8265 38.8447 61.839C37.9697 66.7515 39.8197 72.0015 43.2322 74.814C50.2947 80.639 64.8572 76.689 70.5197 67.3765C75.0447 59.914 73.8322 49.064 68.7322 44.864C68.3072 44.514 65.4822 42.1765 63.0822 43.089C60.9697 43.889 60.0072 46.889 59.8322 48.864C59.6072 51.4015 54.6697 52.5265 52.6697 51.564Z" fill="#7FEC96"/>
</g>
<path d="M48.0691 71.889C36.5941 71.889 27.2441 62.5515 27.2441 51.064C27.2441 39.5765 36.5816 30.239 48.0691 30.239C59.5566 30.239 68.8941 39.5765 68.8941 51.064C68.8941 62.5515 59.5566 71.889 48.0691 71.889ZM48.0691 31.1265C37.0691 31.1265 28.1191 40.0765 28.1191 51.0765C28.1191 62.0765 37.0691 71.0265 48.0691 71.0265C59.0691 71.0265 68.0191 62.0765 68.0191 51.0765C68.0191 40.0765 59.0691 31.1265 48.0691 31.1265Z" fill="#142A3B"/>
<path d="M48.0695 68.9265C38.2195 68.9265 30.207 60.914 30.207 51.064C30.207 41.214 38.2195 33.2015 48.0695 33.2015C57.9195 33.2015 65.932 41.214 65.932 51.064C65.932 60.914 57.9195 68.9265 48.0695 68.9265ZM48.0695 34.0765C38.707 34.0765 31.082 41.7015 31.082 51.064C31.082 60.4265 38.707 68.0515 48.0695 68.0515C57.432 68.0515 65.057 60.4265 65.057 51.064C65.057 41.7015 57.432 34.0765 48.0695 34.0765Z" fill="#142A3B"/>
<path d="M41.7567 69.014C41.7567 69.014 41.7192 69.014 41.6942 69.014C41.1942 68.889 40.6942 68.7265 40.2192 68.5515C40.0942 68.5015 40.0317 68.3515 40.0817 68.2265C40.1317 68.1015 40.2692 68.0265 40.4067 68.0765C40.8567 68.2515 41.3442 68.4015 41.8192 68.5265C41.9567 68.564 42.0317 68.7015 42.0067 68.8265C41.9817 68.939 41.8817 69.014 41.7692 69.014H41.7567Z" fill="#142A3B"/>
<path d="M38.5948 67.739C38.5948 67.739 38.5073 67.739 38.4698 67.7015C36.9198 66.814 35.6073 65.639 34.5448 64.214C34.4573 64.1015 34.4823 63.9515 34.5948 63.864C34.7073 63.7765 34.8573 63.8015 34.9448 63.914C35.9698 65.289 37.2323 66.414 38.7198 67.264C38.8448 67.3265 38.8823 67.489 38.8073 67.6015C38.7573 67.6765 38.6823 67.7265 38.5948 67.7265V67.739Z" fill="#142A3B"/>
<path d="M39.7816 38.764C39.7066 38.764 39.6191 38.7265 39.5691 38.6515L38.4816 37.0015C38.4066 36.889 38.4316 36.7265 38.5566 36.6515C38.6691 36.5765 38.8316 36.6015 38.9066 36.7265L39.9941 38.3765C40.0691 38.489 40.0441 38.6515 39.9191 38.7265C39.8816 38.7515 39.8316 38.764 39.7816 38.764Z" fill="#142A3B"/>
<path d="M57.4438 65.5265C57.3688 65.5265 57.2813 65.489 57.2313 65.414L56.1437 63.764C56.0687 63.6515 56.0938 63.489 56.2188 63.414C56.3438 63.339 56.4937 63.364 56.5687 63.489L57.6563 65.139C57.7313 65.2515 57.7063 65.414 57.5813 65.489C57.5438 65.514 57.4938 65.5265 57.4438 65.5265Z" fill="#142A3B"/>
<path d="M34.7458 44.339C34.7458 44.339 34.6708 44.339 34.6333 44.314L32.8833 43.389C32.7583 43.3265 32.7083 43.1765 32.7833 43.0515C32.8583 42.9265 32.9958 42.889 33.1208 42.9515L34.8708 43.8765C34.9958 43.939 35.0458 44.089 34.9708 44.214C34.9208 44.3015 34.8333 44.3515 34.7458 44.3515V44.339Z" fill="#142A3B"/>
<path d="M63.1462 59.2265C63.1462 59.2265 63.0712 59.2265 63.0337 59.2015L61.2837 58.2765C61.1587 58.214 61.1087 58.064 61.1837 57.939C61.2462 57.814 61.3962 57.7765 61.5212 57.839L63.2712 58.764C63.3962 58.8265 63.4462 58.9765 63.3712 59.1015C63.3212 59.189 63.2337 59.239 63.1462 59.239V59.2265Z" fill="#142A3B"/>
<path d="M33.8582 60.7015C33.7832 60.7015 33.6957 60.664 33.6457 60.589C33.5707 60.4765 33.5957 60.314 33.7207 60.239L35.3707 59.1515C35.4832 59.0765 35.6457 59.1015 35.7207 59.2265C35.7957 59.339 35.7707 59.5015 35.6457 59.5765L33.9957 60.664C33.9957 60.664 33.9082 60.7015 33.8582 60.7015Z" fill="#142A3B"/>
<path d="M60.6199 43.039C60.5449 43.039 60.4574 43.0015 60.4074 42.9265C60.3324 42.814 60.3574 42.6515 60.4824 42.5765L62.1324 41.489C62.2449 41.414 62.4074 41.439 62.4824 41.564C62.5574 41.6765 62.5324 41.839 62.4074 41.914L60.7574 43.0015C60.7574 43.0015 60.6699 43.039 60.6199 43.039Z" fill="#142A3B"/>
<path d="M40.1579 66.389C40.1579 66.389 40.0829 66.389 40.0454 66.364C39.9204 66.3015 39.8704 66.1515 39.9454 66.0265L40.8704 64.2765C40.9329 64.1515 41.0829 64.1139 41.2079 64.1764C41.3329 64.2389 41.3829 64.3889 41.3079 64.5139L40.3829 66.264C40.3329 66.3515 40.2454 66.4015 40.1579 66.4015V66.389Z" fill="#142A3B"/>
<path d="M55.0583 38.0015C55.0583 38.0015 54.9833 38.0015 54.9458 37.9765C54.8208 37.914 54.7708 37.764 54.8458 37.639L55.7708 35.8765C55.8333 35.7515 55.9833 35.714 56.1083 35.7765C56.2333 35.839 56.2833 35.989 56.2083 36.114L55.2833 37.8765C55.2333 37.964 55.1458 38.014 55.0583 38.014V38.0015Z" fill="#142A3B"/>
<path d="M48.0703 36.2765C47.9328 36.2765 47.8203 36.164 47.8203 36.0265V34.039C47.8203 33.9015 47.9328 33.789 48.0703 33.789C48.2078 33.789 48.3203 33.9015 48.3203 34.039V36.0265C48.3203 36.164 48.2078 36.2765 48.0703 36.2765Z" fill="#142A3B"/>
<path d="M48.0703 68.339C47.9328 68.339 47.8203 68.2265 47.8203 68.089V66.1015C47.8203 65.964 47.9328 65.8515 48.0703 65.8515C48.2078 65.8515 48.3203 65.964 48.3203 66.1015V68.089C48.3203 68.2265 48.2078 68.339 48.0703 68.339Z" fill="#142A3B"/>
<path d="M33.0324 51.314H31.0449C30.9074 51.314 30.7949 51.2015 30.7949 51.064C30.7949 50.9265 30.9074 50.814 31.0449 50.814H33.0324C33.1699 50.814 33.2824 50.9265 33.2824 51.064C33.2824 51.2015 33.1699 51.314 33.0324 51.314Z" fill="#142A3B"/>
<path d="M65.0832 51.314H63.0957C62.9582 51.314 62.8457 51.2015 62.8457 51.064C62.8457 50.9265 62.9582 50.814 63.0957 50.814H65.0832C65.2207 50.814 65.3332 50.9265 65.3332 51.064C65.3332 51.2015 65.2207 51.314 65.0832 51.314Z" fill="#142A3B"/>
<path d="M52.2064 57.889C52.0689 57.889 51.9314 57.8265 51.8439 57.7015L47.6564 51.7515C47.5189 51.5515 47.5689 51.2765 47.7564 51.139C47.9439 51.0015 48.2314 51.0515 48.3689 51.239L52.5564 57.189C52.6939 57.389 52.6439 57.664 52.4564 57.8015C52.3814 57.8515 52.2939 57.8765 52.2064 57.8765V57.889Z" fill="#142A3B"/>
<path d="M48.0699 51.939C47.8324 51.939 47.6324 51.7515 47.6324 51.5015L47.5449 38.5015C47.5449 38.264 47.7324 38.064 47.9824 38.064C48.2199 38.064 48.4199 38.2515 48.4199 38.5015L48.5074 51.5015C48.5074 51.739 48.2699 51.9515 48.0699 51.939Z" fill="#142A3B"/>
<path d="M48.0695 52.8015C49.0291 52.8015 49.807 52.0236 49.807 51.064C49.807 50.1044 49.0291 49.3265 48.0695 49.3265C47.1099 49.3265 46.332 50.1044 46.332 51.064C46.332 52.0236 47.1099 52.8015 48.0695 52.8015Z" fill="#00E1D8"/>
<path d="M48.0695 53.2515C46.8695 53.2515 45.8945 52.2765 45.8945 51.0765C45.8945 49.8765 46.8695 48.9015 48.0695 48.9015C49.2695 48.9015 50.2445 49.8765 50.2445 51.0765C50.2445 52.2765 49.2695 53.2515 48.0695 53.2515ZM48.0695 49.764C47.357 49.764 46.7695 50.3515 46.7695 51.064C46.7695 51.7765 47.357 52.364 48.0695 52.364C48.782 52.364 49.3695 51.7765 49.3695 51.064C49.3695 50.3515 48.782 49.764 48.0695 49.764Z" fill="#142A3B"/>
<path d="M52.5199 28.2515H43.6324C42.3449 28.2515 41.2949 27.2015 41.2949 25.914C41.2949 24.6265 42.3449 23.5765 43.6324 23.5765H52.5199C53.8074 23.5765 54.8574 24.6265 54.8574 25.914C54.8574 27.2015 53.8074 28.2515 52.5199 28.2515ZM43.6324 24.464C42.8324 24.464 42.1699 25.114 42.1699 25.9265C42.1699 26.739 42.8199 27.389 43.6324 27.389H52.5199C53.3199 27.389 53.9824 26.739 53.9824 25.9265C53.9824 25.114 53.3324 24.464 52.5199 24.464H43.6324Z" fill="#142A3B"/>
<path d="M50.2324 31.1265H45.9199C45.6824 31.1265 45.4824 30.9265 45.4824 30.689V27.814C45.4824 27.5765 45.6824 27.3765 45.9199 27.3765H50.2324C50.4699 27.3765 50.6699 27.5765 50.6699 27.814V30.689C50.6699 30.9265 50.4699 31.1265 50.2324 31.1265ZM46.3574 30.2515H49.7949V28.2515H46.3574V30.2515Z" fill="#142A3B"/>
<path d="M44.5938 28.064C44.4563 28.064 44.3438 27.9515 44.3438 27.814V24.0265C44.3438 23.889 44.4563 23.7765 44.5938 23.7765C44.7312 23.7765 44.8438 23.889 44.8438 24.0265V27.814C44.8438 27.9515 44.7312 28.064 44.5938 28.064Z" fill="#142A3B"/>
<path d="M46.9062 28.064C46.7688 28.064 46.6562 27.9515 46.6562 27.814V24.0265C46.6562 23.889 46.7688 23.7765 46.9062 23.7765C47.0437 23.7765 47.1562 23.889 47.1562 24.0265V27.814C47.1562 27.9515 47.0437 28.064 46.9062 28.064Z" fill="#142A3B"/>
<path d="M49.2305 28.064C49.093 28.064 48.9805 27.9515 48.9805 27.814V24.0265C48.9805 23.889 49.093 23.7765 49.2305 23.7765C49.368 23.7765 49.4805 23.889 49.4805 24.0265V27.814C49.4805 27.9515 49.368 28.064 49.2305 28.064Z" fill="#142A3B"/>
<path d="M51.5566 28.064C51.4191 28.064 51.3066 27.9515 51.3066 27.814V24.0265C51.3066 23.889 51.4191 23.7765 51.5566 23.7765C51.6941 23.7765 51.8066 23.889 51.8066 24.0265V27.814C51.8066 27.9515 51.6941 28.064 51.5566 28.064Z" fill="#142A3B"/>
<path d="M64.2808 35.0015C63.8933 35.0015 63.5058 34.8765 63.1808 34.6515L59.1808 31.8015C58.7683 31.514 58.4933 31.064 58.4058 30.564C58.3183 30.064 58.4308 29.5515 58.7308 29.139C59.3433 28.2765 60.5308 28.0765 61.3933 28.689L65.3933 31.5265C66.2558 32.139 66.4558 33.3265 65.8433 34.189C65.5433 34.6015 65.1058 34.8765 64.6058 34.964C64.4933 34.9765 64.3933 34.989 64.2808 34.989V35.0015ZM63.6933 33.939C63.9183 34.1015 64.1933 34.1515 64.4683 34.114C64.7433 34.064 64.9808 33.914 65.1433 33.7015C65.4683 33.239 65.3683 32.589 64.8933 32.264L60.8933 29.4265C60.4308 29.1015 59.7808 29.2015 59.4558 29.6765C59.2933 29.9015 59.2308 30.1765 59.2808 30.4515C59.3308 30.7265 59.4808 30.964 59.6933 31.1265L63.6933 33.9765V33.939Z" fill="#142A3B"/>
<path d="M61.5064 36.1015C61.4189 36.1015 61.3314 36.0765 61.2564 36.0265L58.5314 34.089C58.3314 33.9515 58.2939 33.6765 58.4314 33.4765L59.7189 31.6515C59.7814 31.5515 59.8939 31.489 60.0064 31.4765C60.1189 31.4515 60.2439 31.4765 60.3314 31.5515L63.0564 33.489C63.2564 33.6265 63.2939 33.9015 63.1564 34.1015L61.8689 35.9265C61.8064 36.0265 61.6939 36.089 61.5814 36.1015C61.5564 36.1015 61.5314 36.1015 61.5064 36.1015ZM59.3814 33.6265L61.3939 35.064L62.1814 33.964L60.1689 32.5265L59.3814 33.6265Z" fill="#142A3B"/>
<path d="M31.8567 35.0015C31.7442 35.0015 31.6442 35.0015 31.5317 34.9765C31.0317 34.889 30.5942 34.614 30.2942 34.2015C29.6817 33.339 29.8817 32.1515 30.7442 31.539L34.7442 28.7015C35.6067 28.089 36.7942 28.289 37.4067 29.1515C37.7067 29.564 37.8192 30.0765 37.7317 30.5765C37.6442 31.0765 37.3692 31.514 36.9567 31.814L32.9567 34.664C32.6317 34.889 32.2567 35.014 31.8567 35.014V35.0015ZM32.4442 33.939L36.4442 31.089C36.6692 30.9265 36.8192 30.689 36.8567 30.414C36.8942 30.139 36.8442 29.864 36.6817 29.639C36.3567 29.1765 35.7067 29.064 35.2442 29.4015L31.2442 32.239C30.7817 32.564 30.6692 33.214 30.9942 33.6765C31.1567 33.9015 31.3942 34.0515 31.6692 34.1015C31.9442 34.139 32.2192 34.089 32.4442 33.9265V33.939Z" fill="#142A3B"/>
<path d="M34.6322 36.1015C34.6322 36.1015 34.5822 36.1015 34.5572 36.1015C34.4447 36.0765 34.3447 36.014 34.2697 35.9265L32.9822 34.1015C32.8447 33.9015 32.8822 33.6265 33.0822 33.489L35.8072 31.5515C35.9072 31.489 36.0197 31.4515 36.1322 31.4765C36.2447 31.5015 36.3447 31.564 36.4197 31.6515L37.7072 33.4765C37.7697 33.5765 37.8072 33.689 37.7822 33.8015C37.7572 33.914 37.6947 34.014 37.6072 34.089L34.8822 36.0265C34.8072 36.0765 34.7197 36.1015 34.6322 36.1015ZM33.9447 33.9515L34.7322 35.0515L36.7447 33.614L35.9572 32.514L33.9447 33.9515Z" fill="#142A3B"/>
</svg>
