<svg width="101" height="101" viewBox="0 0 101 101" fill="none" xmlns="http://www.w3.org/2000/svg">
<rect width="100" height="100" transform="translate(0.78125 0.563965)" fill="white"/>
<g clip-path="url(#clip0_3005_28910)">
<g opacity="0.1">
<path d="M92.6091 53.7027C92.5523 54.3209 92.4387 54.9276 92.3228 55.5367C92.2069 56.1458 92.1341 56.764 91.9614 57.3549C91.7887 57.9458 91.5069 58.5095 91.2796 59.0867C91.0523 59.664 90.8251 60.2412 90.5592 60.7981C90.2933 61.3549 90.0251 61.9162 89.7092 62.4503C89.3933 62.9844 89.0273 63.4867 88.6796 63.9981C88.3319 64.5094 87.95 64.9981 87.5614 65.4822C87.1728 65.9663 86.7227 66.3913 86.3023 66.8459C85.8818 67.3004 85.5001 67.7891 85.0501 68.2095C84.6001 68.63 84.1683 69.0822 83.6864 69.4799C83.2046 69.8777 82.7296 70.2731 82.2319 70.6413C81.7341 71.0094 81.2068 71.3413 80.6864 71.6754C80.1659 72.0095 79.5273 72.2754 78.9637 72.5845C78.4001 72.8936 77.8568 73.2776 77.2728 73.5526C76.6887 73.8276 76.0978 74.1185 75.5001 74.3594C74.9023 74.6003 74.2477 74.7208 73.6364 74.9345C73.025 75.1481 72.4046 75.3413 71.7841 75.5322C71.1637 75.7231 70.5432 75.9095 69.9182 76.0845C69.2932 76.2595 68.6728 76.4481 68.0432 76.6095C67.4137 76.7709 66.7932 76.9595 66.1637 77.1163C65.5341 77.2731 64.9069 77.439 64.2773 77.6004C63.6478 77.7617 63.0001 77.8503 62.3728 78.0185C61.7455 78.1867 61.1251 78.3799 60.5001 78.564C59.8751 78.748 59.2614 78.9527 58.6432 79.1572C58.025 79.3618 57.4546 79.6777 56.8455 79.9095C56.2364 80.1413 55.666 80.3435 55.1001 80.5571C54.5342 80.7708 53.891 80.9095 53.3182 81.1118C52.7455 81.3141 52.1341 81.514 51.5546 81.6958C50.975 81.8777 50.3841 82.1504 49.7909 82.3026C49.1978 82.4549 48.5705 82.5617 47.9614 82.6572C47.3437 82.7198 46.7231 82.7494 46.1023 82.7459C45.4856 82.7976 44.8663 82.8127 44.2478 82.7913C43.6316 82.7329 43.0192 82.6396 42.4137 82.5117C41.8007 82.4032 41.1939 82.2628 40.5955 82.0912C40.025 81.9208 39.4591 81.6663 38.8614 81.4254C38.2637 81.1845 37.6796 80.9345 37.0796 80.6254C36.4796 80.3163 35.8841 80.1094 35.3182 79.7571C34.7523 79.4049 34.2796 78.9686 33.75 78.5754C33.2205 78.1822 32.6659 77.8344 32.175 77.4026C31.6841 76.9708 31.1773 76.5367 30.7341 76.0617C30.3042 75.5657 29.9036 75.0452 29.5342 74.5027C29.1631 73.9643 28.8312 73.3999 28.5409 72.814C28.2303 72.2426 27.971 71.6449 27.766 71.0277C27.5786 70.4518 27.4536 69.8574 27.3932 69.2549C27.2989 68.6525 27.2989 68.0391 27.3932 67.4367C27.4926 66.8298 27.6907 66.2433 27.9796 65.7004C28.32 65.1902 28.7122 64.7164 29.15 64.2867C29.5546 63.8435 30.0114 63.4367 30.4591 63.0117C30.9068 62.5868 31.2978 62.1276 31.7205 61.689C32.15 61.259 32.5445 60.7955 32.9 60.3027C33.2409 59.8072 33.6273 59.3163 33.8364 58.7231C34.0273 58.1822 34.0023 57.5595 34.0364 56.9049C34.0808 56.3218 34.0402 55.7354 33.9159 55.164C33.7597 54.5993 33.5599 54.0477 33.3182 53.514C33.0909 52.9708 32.9137 52.4049 32.6705 51.8754C32.4273 51.3458 32.216 50.7527 31.9591 50.1845C31.7023 49.6163 31.3932 49.1049 31.1523 48.5368C30.9114 47.9686 30.716 47.4003 30.4887 46.8253C30.2614 46.2503 30.0955 45.6709 29.8841 45.0936C29.6727 44.5163 29.3932 43.9709 29.2023 43.3891C29.0114 42.8072 28.8159 42.2276 28.6455 41.639C28.475 41.0504 28.2637 40.4731 28.1182 39.8799C27.9728 39.2867 27.9228 38.6662 27.8091 38.0617C27.6955 37.4571 27.5455 36.8618 27.4637 36.2595C27.3819 35.6572 27.2796 35.0413 27.2364 34.4413C27.1932 33.8413 27.2523 33.2117 27.2569 32.6026C27.2614 31.9935 27.3773 31.3844 27.4319 30.7844C27.4864 30.1844 27.45 29.5527 27.5614 28.9527C27.6727 28.3527 27.8864 27.7731 28.0592 27.1844C28.2129 26.5903 28.4065 26.0071 28.6387 25.439C28.9128 24.8901 29.2281 24.3629 29.5819 23.8617C29.897 23.3363 30.2526 22.8364 30.6455 22.3663C31.0619 21.9148 31.5133 21.4968 31.9955 21.1163C32.4691 20.7273 32.9722 20.3755 33.5001 20.064C34.0268 19.7513 34.5743 19.475 35.1387 19.2368C35.7116 19.0197 36.2976 18.839 36.8932 18.6958C37.4736 18.5007 38.0648 18.3391 38.6637 18.2117C39.2725 18.1376 39.8846 18.0944 40.4978 18.0822C41.1069 18.0459 41.7137 18.0503 42.3296 18.0708C42.9455 18.0912 43.5546 18.0549 44.1659 18.1322C44.7773 18.2094 45.3637 18.3821 45.9637 18.5117C46.5679 18.6303 47.1633 18.7906 47.7455 18.9913C48.32 19.2113 48.8789 19.4702 49.4182 19.7662C49.9723 20.0382 50.5103 20.3417 51.0296 20.6753C51.5409 21.0231 52.0114 21.4185 52.4887 21.8117C52.966 22.2049 53.4432 22.589 53.8978 23.0117C54.3523 23.4345 54.8182 23.8322 55.2614 24.2685C55.7046 24.7049 56.1705 25.1072 56.6 25.5481C57.0296 25.9891 57.4114 26.4822 57.8523 26.9118C58.2932 27.3413 58.7614 27.7413 59.2159 28.1549C59.6705 28.5685 60.1251 28.9936 60.6092 29.3754C61.0932 29.7572 61.616 30.0777 62.1387 30.4163C62.6613 30.8003 63.207 31.1517 63.7728 31.4686C64.3654 31.7393 64.9724 31.9776 65.591 32.1822C66.2046 32.3959 66.8478 32.5049 67.4728 32.6617C68.0978 32.8186 68.7341 32.9322 69.3727 33.0481C70.0114 33.1641 70.6432 33.2753 71.2841 33.3685C71.9251 33.4617 72.5682 33.5253 73.2091 33.5958C73.85 33.6663 74.4955 33.7458 75.1364 33.8231C75.7773 33.9003 76.4091 34.0754 77.0455 34.1822C77.6818 34.289 78.3137 34.4277 78.9432 34.5731C79.5728 34.7186 80.2296 34.7709 80.8455 34.9709C81.4614 35.1709 82.0069 35.5344 82.6023 35.8026C83.1903 36.065 83.7611 36.364 84.3114 36.6981C84.8765 37.0117 85.4201 37.3625 85.9387 37.7481C86.4566 38.1485 86.9521 38.5771 87.4228 39.0321C87.8651 39.5143 88.2816 40.0196 88.6705 40.5458C89.0555 41.072 89.4135 41.6174 89.7432 42.1799C90.0831 42.7339 90.3942 43.3052 90.6751 43.8913C90.998 44.4584 91.2916 45.0418 91.5546 45.639C91.75 46.2618 91.9123 46.8945 92.0409 47.5345C92.2007 48.1644 92.3267 48.8025 92.4182 49.4459C92.5388 50.0862 92.6245 50.7326 92.675 51.3822C92.7018 52.1563 92.6798 52.9313 92.6091 53.7027Z" fill="#55D890"/>
</g>
<path d="M81.2197 38.4754H20.3424C19.9765 38.4754 19.6257 38.33 19.3669 38.0713C19.1082 37.8126 18.9629 37.4616 18.9629 37.0957V26.2185C18.9635 25.853 19.1091 25.5027 19.3677 25.2445C19.6264 24.9863 19.9769 24.8412 20.3424 24.8412H81.2197C81.5852 24.8412 81.9357 24.9863 82.1944 25.2445C82.453 25.5027 82.5987 25.853 82.5993 26.2185V37.0957C82.5993 37.4616 82.4539 37.8126 82.1952 38.0713C81.9365 38.33 81.5856 38.4754 81.2197 38.4754ZM20.3424 25.5776C20.1722 25.5776 20.009 25.645 19.8884 25.7652C19.7679 25.8853 19.6999 26.0483 19.6993 26.2185V37.0957C19.6993 37.2663 19.767 37.43 19.8876 37.5506C20.0082 37.6712 20.1718 37.7389 20.3424 37.7389H81.2197C81.3903 37.7389 81.5538 37.6712 81.6745 37.5506C81.7951 37.43 81.8629 37.2663 81.8629 37.0957V26.2185C81.8623 26.0483 81.7942 25.8853 81.6737 25.7652C81.5531 25.645 81.3899 25.5776 81.2197 25.5776H20.3424Z" fill="#142A3B"/>
<path d="M82.0106 57.2549H19.5583C19.4008 57.2549 19.2497 57.1925 19.1381 57.0813C19.0265 56.9701 18.9635 56.8192 18.9629 56.6617V44.2162C18.9635 44.0587 19.0265 43.9078 19.1381 43.7966C19.2497 43.6854 19.4008 43.623 19.5583 43.623H82.0106C82.1681 43.623 82.3193 43.6854 82.4309 43.7966C82.5425 43.9078 82.6055 44.0587 82.6061 44.2162V56.6617C82.6055 56.8192 82.5425 56.9701 82.4309 57.0813C82.3193 57.1925 82.1681 57.2549 82.0106 57.2549ZM19.7061 56.5208H81.8697V44.3594H19.6993L19.7061 56.5208Z" fill="#142A3B"/>
<path d="M81.2197 76.0094H20.3424C19.9767 76.0088 19.6262 75.8633 19.3676 75.6047C19.109 75.3461 18.9635 74.9956 18.9629 74.6299V63.7526C18.9635 63.3871 19.1091 63.0368 19.3677 62.7786C19.6264 62.5203 19.9769 62.3753 20.3424 62.3753H81.2197C81.5852 62.3753 81.9357 62.5203 82.1944 62.7786C82.453 63.0368 82.5987 63.3871 82.5993 63.7526V74.6299C82.5987 74.9956 82.4531 75.3461 82.1945 75.6047C81.936 75.8633 81.5854 76.0088 81.2197 76.0094ZM20.3424 63.1117C20.1722 63.1117 20.009 63.1791 19.8884 63.2992C19.7679 63.4194 19.6999 63.5824 19.6993 63.7526V74.6299C19.6993 74.8005 19.767 74.9641 19.8876 75.0847C20.0082 75.2053 20.1718 75.273 20.3424 75.273H81.2197C81.3903 75.273 81.5538 75.2053 81.6745 75.0847C81.7951 74.9641 81.8629 74.8005 81.8629 74.6299V63.7526C81.8623 63.5824 81.7942 63.4194 81.6737 63.2992C81.5531 63.1791 81.3899 63.1117 81.2197 63.1117H20.3424Z" fill="#142A3B"/>
<path d="M26.1273 35.0072C27.9775 35.0072 29.4773 33.5073 29.4773 31.6572C29.4773 29.807 27.9775 28.3072 26.1273 28.3072C24.2772 28.3072 22.7773 29.807 22.7773 31.6572C22.7773 33.5073 24.2772 35.0072 26.1273 35.0072Z" fill="#00E1D8"/>
<path d="M26.1264 35.2367C25.1774 35.2355 24.2677 34.8579 23.5966 34.1869C22.9256 33.5159 22.5481 32.6061 22.5469 31.6572C22.5487 30.7086 22.9264 29.7994 23.5974 29.1289C24.2684 28.4583 25.1778 28.081 26.1264 28.0798C27.0748 28.081 27.984 28.4584 28.6546 29.129C29.3252 29.7996 29.7025 30.7088 29.7037 31.6572C29.7031 32.6059 29.3261 33.5157 28.6554 34.1868C27.9847 34.8579 27.0752 35.2355 26.1264 35.2367ZM26.1264 28.5344C25.2982 28.535 24.504 28.8641 23.9182 29.4496C23.3323 30.035 23.0026 30.8289 23.0014 31.6572C23.0026 32.4856 23.3322 33.2797 23.918 33.8655C24.5038 34.4513 25.298 34.781 26.1264 34.7822C26.9546 34.781 27.7485 34.4513 28.334 33.8654C28.9194 33.2796 29.2485 32.4854 29.2491 31.6572C29.2485 30.8291 28.9193 30.0352 28.3338 29.4497C27.7483 28.8642 26.9544 28.535 26.1264 28.5344Z" fill="#142A3B"/>
<path d="M26.1273 53.789C27.9775 53.789 29.4773 52.2891 29.4773 50.439C29.4773 48.5888 27.9775 47.089 26.1273 47.089C24.2772 47.089 22.7773 48.5888 22.7773 50.439C22.7773 52.2891 24.2772 53.789 26.1273 53.789Z" fill="#00E1D8"/>
<path d="M26.1264 54.0185C25.1774 54.0173 24.2677 53.6398 23.5966 52.9688C22.9256 52.2977 22.5481 51.3879 22.5469 50.4389C22.5487 49.4903 22.9264 48.5812 23.5974 47.9106C24.2684 47.2401 25.1778 46.8629 26.1264 46.8617C27.0748 46.8629 27.984 47.2401 28.6546 47.9107C29.3252 48.5813 29.7025 49.4905 29.7037 50.4389C29.7025 51.3875 29.3253 52.297 28.6547 52.968C27.9842 53.639 27.075 54.0166 26.1264 54.0185ZM26.1264 47.3162C25.2982 47.3168 24.504 47.646 23.9182 48.2314C23.3323 48.8169 23.0026 49.6107 23.0014 50.4389C23.0026 51.2673 23.3322 52.0616 23.918 52.6474C24.5038 53.2332 25.298 53.5627 26.1264 53.5639C26.9546 53.5627 27.7485 53.233 28.334 52.6472C28.9194 52.0613 29.2485 51.2671 29.2491 50.4389C29.2485 49.6109 28.9193 48.817 28.3338 48.2315C27.7483 47.6461 26.9544 47.3168 26.1264 47.3162Z" fill="#142A3B"/>
<path d="M26.1273 72.5412C27.9775 72.5412 29.4773 71.0414 29.4773 69.1912C29.4773 67.3411 27.9775 65.8412 26.1273 65.8412C24.2772 65.8412 22.7773 67.3411 22.7773 69.1912C22.7773 71.0414 24.2772 72.5412 26.1273 72.5412Z" fill="#00E1D8"/>
<path d="M26.1264 72.7708C25.1774 72.7696 24.2677 72.392 23.5966 71.721C22.9256 71.05 22.5481 70.1402 22.5469 69.1912C22.5487 68.2427 22.9264 67.3335 23.5974 66.663C24.2684 65.9924 25.1778 65.6151 26.1264 65.6139C27.0748 65.6151 27.984 65.9925 28.6546 66.6631C29.3252 67.3337 29.7025 68.2429 29.7037 69.1912C29.7025 70.1398 29.3253 71.0492 28.6547 71.7202C27.9842 72.3912 27.075 72.769 26.1264 72.7708ZM26.1264 66.0685C25.2982 66.0691 24.504 66.3982 23.9182 66.9837C23.3323 67.5691 23.0026 68.363 23.0014 69.1912C23.0026 70.0197 23.3322 70.8138 23.918 71.3996C24.5038 71.9854 25.298 72.315 26.1264 72.3162C26.9546 72.315 27.7485 71.9854 28.334 71.3995C28.9194 70.8136 29.2485 70.0195 29.2491 69.1912C29.2485 68.3632 28.9193 67.5693 28.3338 66.9838C27.7483 66.3983 26.9544 66.0691 26.1264 66.0685Z" fill="#142A3B"/>
<path d="M37.6441 67.6935H33.3054C33.2451 67.6935 33.1873 67.6696 33.1447 67.627C33.1021 67.5843 33.0781 67.5265 33.0781 67.4663C33.0781 67.406 33.1021 67.3481 33.1447 67.3055C33.1873 67.2628 33.2451 67.239 33.3054 67.239H37.6441C37.7043 67.239 37.7621 67.2628 37.8047 67.3055C37.8474 67.3481 37.8713 67.406 37.8713 67.4663C37.8713 67.5265 37.8474 67.5843 37.8047 67.627C37.7621 67.6696 37.7043 67.6935 37.6441 67.6935Z" fill="#142A3B"/>
<path d="M72.7562 71.1435H68.8562C68.7959 71.1435 68.7381 71.1195 68.6954 71.0769C68.6528 71.0343 68.6289 70.9765 68.6289 70.9162C68.6289 70.8559 68.6528 70.7981 68.6954 70.7555C68.7381 70.7129 68.7959 70.6889 68.8562 70.6889H72.7562C72.8164 70.6889 72.8742 70.7129 72.9168 70.7555C72.9595 70.7981 72.9834 70.8559 72.9834 70.9162C72.9834 70.9765 72.9595 71.0343 72.9168 71.0769C72.8742 71.1195 72.8164 71.1435 72.7562 71.1435Z" fill="#142A3B"/>
<path d="M67.4267 71.1435H45.2585C45.1982 71.1435 45.1405 71.1195 45.0978 71.0769C45.0552 71.0343 45.0312 70.9765 45.0312 70.9162C45.0312 70.8559 45.0552 70.7981 45.0978 70.7555C45.1405 70.7129 45.1982 70.6889 45.2585 70.6889H67.4267C67.487 70.6889 67.5448 70.7129 67.5874 70.7555C67.63 70.7981 67.654 70.8559 67.654 70.9162C67.654 70.9765 67.63 71.0343 67.5874 71.0769C67.5448 71.1195 67.487 71.1435 67.4267 71.1435Z" fill="#142A3B"/>
<path d="M43.6792 71.1435H35.9519C35.8916 71.1435 35.8338 71.1195 35.7911 71.0769C35.7485 71.0343 35.7246 70.9765 35.7246 70.9162C35.7246 70.8559 35.7485 70.7981 35.7911 70.7555C35.8338 70.7129 35.8916 70.6889 35.9519 70.6889H43.6792C43.7394 70.6889 43.7972 70.7129 43.8398 70.7555C43.8825 70.7981 43.9064 70.8559 43.9064 70.9162C43.9064 70.9765 43.8825 71.0343 43.8398 71.0769C43.7972 71.1195 43.7394 71.1435 43.6792 71.1435Z" fill="#142A3B"/>
<path d="M34.3327 71.1435H33.3054C33.2451 71.1435 33.1873 71.1195 33.1447 71.0769C33.1021 71.0343 33.0781 70.9765 33.0781 70.9162C33.0781 70.8559 33.1021 70.7981 33.1447 70.7555C33.1873 70.7129 33.2451 70.6889 33.3054 70.6889H34.3327C34.393 70.6889 34.4507 70.7129 34.4934 70.7555C34.536 70.7981 34.5599 70.8559 34.5599 70.9162C34.5599 70.9765 34.536 71.0343 34.4934 71.0769C34.4507 71.1195 34.393 71.1435 34.3327 71.1435Z" fill="#142A3B"/>
<path d="M49.6787 67.6935H39.2605C39.2002 67.6935 39.1424 67.6696 39.0998 67.627C39.0572 67.5843 39.0332 67.5265 39.0332 67.4663C39.0332 67.406 39.0572 67.3481 39.0998 67.3055C39.1424 67.2628 39.2002 67.239 39.2605 67.239H49.6787C49.739 67.239 49.7967 67.2628 49.8394 67.3055C49.882 67.3481 49.906 67.406 49.906 67.4663C49.906 67.5265 49.882 67.5843 49.8394 67.627C49.7967 67.6696 49.739 67.6935 49.6787 67.6935Z" fill="#142A3B"/>
<path d="M56.1313 67.6935H51.6472C51.5869 67.6935 51.5291 67.6696 51.4865 67.627C51.4439 67.5843 51.4199 67.5265 51.4199 67.4663C51.4199 67.406 51.4439 67.3481 51.4865 67.3055C51.5291 67.2628 51.5869 67.239 51.6472 67.239H56.1313C56.1916 67.239 56.2494 67.2628 56.292 67.3055C56.3346 67.3481 56.3586 67.406 56.3586 67.4663C56.3586 67.5265 56.3346 67.5843 56.292 67.627C56.2494 67.6696 56.1916 67.6935 56.1313 67.6935Z" fill="#142A3B"/>
<path d="M50.8388 48.9412H42.9206C42.8604 48.9412 42.8026 48.9172 42.7599 48.8746C42.7173 48.832 42.6934 48.7742 42.6934 48.7139C42.6934 48.6537 42.7173 48.5959 42.7599 48.5532C42.8026 48.5106 42.8604 48.4867 42.9206 48.4867H50.8479C50.9082 48.4867 50.966 48.5106 51.0086 48.5532C51.0512 48.5959 51.0752 48.6537 51.0752 48.7139C51.0752 48.7446 51.069 48.7749 51.0571 48.803C51.0451 48.8312 51.0275 48.8567 51.0054 48.878C50.9833 48.8992 50.9572 48.9157 50.9286 48.9266C50.8999 48.9374 50.8694 48.9424 50.8388 48.9412Z" fill="#142A3B"/>
<path d="M41.4668 48.9412H33.3054C33.2451 48.9412 33.1873 48.9172 33.1447 48.8746C33.1021 48.832 33.0781 48.7742 33.0781 48.7139C33.0781 48.6537 33.1021 48.5959 33.1447 48.5532C33.1873 48.5106 33.2451 48.4867 33.3054 48.4867H41.4668C41.5271 48.4867 41.5849 48.5106 41.6275 48.5532C41.6701 48.5959 41.6941 48.6537 41.6941 48.7139C41.6941 48.7742 41.6701 48.832 41.6275 48.8746C41.5849 48.9172 41.5271 48.9412 41.4668 48.9412Z" fill="#142A3B"/>
<path d="M55.7077 52.3913H51.8054C51.7451 52.3913 51.6873 52.3673 51.6447 52.3247C51.602 52.282 51.5781 52.2243 51.5781 52.164C51.5781 52.1037 51.602 52.0459 51.6447 52.0033C51.6873 51.9607 51.7451 51.9367 51.8054 51.9367H55.7077C55.7679 51.9367 55.8257 51.9607 55.8683 52.0033C55.911 52.0459 55.9349 52.1037 55.9349 52.164C55.9349 52.2243 55.911 52.282 55.8683 52.3247C55.8257 52.3673 55.7679 52.3913 55.7077 52.3913Z" fill="#142A3B"/>
<path d="M50.3793 52.3913H39.2429C39.1826 52.3913 39.1248 52.3673 39.0822 52.3247C39.0395 52.282 39.0156 52.2243 39.0156 52.164C39.0156 52.1037 39.0395 52.0459 39.0822 52.0033C39.1248 51.9607 39.1826 51.9367 39.2429 51.9367H50.3793C50.4395 51.9367 50.4973 51.9607 50.54 52.0033C50.5826 52.0459 50.6065 52.1037 50.6065 52.164C50.6065 52.2243 50.5826 52.282 50.54 52.3247C50.4973 52.3673 50.4395 52.3913 50.3793 52.3913Z" fill="#142A3B"/>
<path d="M37.6634 52.3913H33.2429C33.1826 52.3913 33.1248 52.3673 33.0822 52.3247C33.0396 52.282 33.0156 52.2243 33.0156 52.164C33.0156 52.1037 33.0396 52.0459 33.0822 52.0033C33.1248 51.9607 33.1826 51.9367 33.2429 51.9367H37.6634C37.7237 51.9367 37.7815 51.9607 37.8241 52.0033C37.8667 52.0459 37.8907 52.1037 37.8907 52.164C37.8907 52.2243 37.8667 52.282 37.8241 52.3247C37.7815 52.3673 37.7237 52.3913 37.6634 52.3913Z" fill="#142A3B"/>
<path d="M66.3042 48.9412H52.4656C52.4053 48.9412 52.3475 48.9172 52.3049 48.8746C52.2622 48.832 52.2383 48.7742 52.2383 48.7139C52.2383 48.6537 52.2622 48.5959 52.3049 48.5532C52.3475 48.5106 52.4053 48.4867 52.4656 48.4867H66.3133C66.3735 48.4867 66.4314 48.5106 66.474 48.5532C66.5166 48.5959 66.5405 48.6537 66.5405 48.7139C66.5406 48.7446 66.5344 48.7749 66.5225 48.803C66.5105 48.8312 66.4929 48.8567 66.4708 48.878C66.4487 48.8992 66.4226 48.9157 66.3939 48.9266C66.3653 48.9374 66.3348 48.9424 66.3042 48.9412Z" fill="#142A3B"/>
<path d="M72.7563 48.9412H68.2722C68.2119 48.9412 68.1541 48.9172 68.1115 48.8746C68.0688 48.832 68.0449 48.7742 68.0449 48.7139C68.0449 48.6537 68.0688 48.5959 68.1115 48.5532C68.1541 48.5106 68.2119 48.4867 68.2722 48.4867H72.7563C72.8166 48.4867 72.8743 48.5106 72.917 48.5532C72.9596 48.5959 72.9836 48.6537 72.9836 48.7139C72.9836 48.7742 72.9596 48.832 72.917 48.8746C72.8743 48.9172 72.8166 48.9412 72.7563 48.9412Z" fill="#142A3B"/>
<path d="M43.16 30.1594H33.3054C33.2451 30.1594 33.1873 30.1355 33.1447 30.0929C33.1021 30.0503 33.0781 29.9924 33.0781 29.9321C33.0781 29.8718 33.1021 29.814 33.1447 29.7714C33.1873 29.7288 33.2451 29.7048 33.3054 29.7048H43.16C43.2202 29.7048 43.278 29.7288 43.3207 29.7714C43.3633 29.814 43.3872 29.8718 43.3872 29.9321C43.3872 29.9924 43.3633 30.0503 43.3207 30.0929C43.278 30.1355 43.2202 30.1594 43.16 30.1594Z" fill="#142A3B"/>
<path d="M72.7566 33.6185H61.1316C61.0713 33.6185 61.0135 33.5946 60.9709 33.5519C60.9283 33.5093 60.9043 33.4515 60.9043 33.3912C60.9043 33.331 60.9283 33.2732 60.9709 33.2306C61.0135 33.1879 61.0713 33.164 61.1316 33.164H72.7566C72.8169 33.164 72.8747 33.1879 72.9173 33.2306C72.9599 33.2732 72.9839 33.331 72.9839 33.3912C72.9839 33.4515 72.9599 33.5093 72.9173 33.5519C72.8747 33.5946 72.8169 33.6185 72.7566 33.6185Z" fill="#142A3B"/>
<path d="M59.7037 33.6185H50.7741C50.7139 33.6185 50.656 33.5946 50.6134 33.5519C50.5708 33.5093 50.5469 33.4515 50.5469 33.3912C50.5469 33.331 50.5708 33.2732 50.6134 33.2306C50.656 33.1879 50.7139 33.164 50.7741 33.164H59.7037C59.764 33.164 59.8218 33.1879 59.8644 33.2306C59.907 33.2732 59.931 33.331 59.931 33.3912C59.931 33.4515 59.907 33.5093 59.8644 33.5519C59.8218 33.5946 59.764 33.6185 59.7037 33.6185Z" fill="#142A3B"/>
<path d="M49.1967 33.6185H41.4695C41.4092 33.6185 41.3513 33.5946 41.3087 33.5519C41.2661 33.5093 41.2422 33.4515 41.2422 33.3912C41.2422 33.331 41.2661 33.2732 41.3087 33.2306C41.3513 33.1879 41.4092 33.164 41.4695 33.164H49.1967C49.257 33.164 49.3148 33.1879 49.3574 33.2306C49.4 33.2732 49.424 33.331 49.424 33.3912C49.424 33.4515 49.4 33.5093 49.3574 33.5519C49.3148 33.5946 49.257 33.6185 49.1967 33.6185Z" fill="#142A3B"/>
<path d="M39.8509 33.6185H33.3054C33.2451 33.6185 33.1873 33.5946 33.1447 33.5519C33.1021 33.5093 33.0781 33.4515 33.0781 33.3912C33.0781 33.331 33.1021 33.2732 33.1447 33.2306C33.1873 33.1879 33.2451 33.164 33.3054 33.164H39.8509C39.9111 33.164 39.9689 33.1879 40.0116 33.2306C40.0542 33.2732 40.0781 33.331 40.0781 33.3912C40.0781 33.4515 40.0542 33.5093 40.0116 33.5519C39.9689 33.5946 39.9111 33.6185 39.8509 33.6185Z" fill="#142A3B"/>
<path d="M56.2966 30.1594H44.7761C44.7158 30.1594 44.658 30.1355 44.6154 30.0929C44.5728 30.0503 44.5488 29.9924 44.5488 29.9321C44.5488 29.8718 44.5728 29.814 44.6154 29.7714C44.658 29.7288 44.7158 29.7048 44.7761 29.7048H56.2966C56.3569 29.7048 56.4147 29.7288 56.4573 29.7714C56.4999 29.814 56.5239 29.8718 56.5239 29.9321C56.5239 29.9924 56.4999 30.0503 56.4573 30.0929C56.4147 30.1355 56.3569 30.1594 56.2966 30.1594Z" fill="#142A3B"/>
<path d="M61.6501 30.1594H58.2683C58.208 30.1594 58.1502 30.1355 58.1076 30.0929C58.065 30.0503 58.041 29.9924 58.041 29.9321C58.041 29.8718 58.065 29.814 58.1076 29.7714C58.1502 29.7288 58.208 29.7048 58.2683 29.7048H61.6501C61.7104 29.7048 61.7682 29.7288 61.8108 29.7714C61.8534 29.814 61.8774 29.8718 61.8774 29.9321C61.8774 29.9924 61.8534 30.0503 61.8108 30.0929C61.7682 30.1355 61.7104 30.1594 61.6501 30.1594Z" fill="#142A3B"/>
<path d="M26.3282 33.5367H26.135C26.1055 33.5367 26.0772 33.525 26.0563 33.5041C26.0354 33.4832 26.0237 33.4548 26.0237 33.4253V30.8594C26.0237 30.6321 26.0237 30.4254 26.0441 30.2276C26.0078 30.264 25.9669 30.3003 25.9237 30.3389C25.8805 30.3776 25.6964 30.5185 25.4009 30.7685C25.3894 30.778 25.3761 30.7851 25.3618 30.7894C25.3474 30.7936 25.3324 30.7948 25.3175 30.7931C25.3027 30.7914 25.2884 30.7869 25.2754 30.7795C25.2624 30.7721 25.251 30.7622 25.2419 30.7503L25.1532 30.6367C25.1439 30.6252 25.137 30.612 25.133 30.5977C25.129 30.5835 25.1279 30.5686 25.1298 30.5539C25.1317 30.5392 25.1366 30.5251 25.1441 30.5124C25.1517 30.4997 25.1617 30.4886 25.1737 30.4799L26.0487 29.798C26.0686 29.7838 26.0924 29.7759 26.1169 29.7753H26.3282C26.3578 29.7753 26.3861 29.787 26.407 29.8079C26.4279 29.8288 26.4396 29.8572 26.4396 29.8867V33.4208C26.4402 33.4358 26.4378 33.4508 26.4324 33.4648C26.4271 33.4789 26.419 33.4916 26.4086 33.5024C26.3982 33.5133 26.3857 33.522 26.3719 33.5279C26.3581 33.5337 26.3432 33.5367 26.3282 33.5367Z" fill="#142A3B"/>
<path d="M27.2494 52.1639H25.0039C24.9744 52.1639 24.9461 52.1522 24.9252 52.1313C24.9043 52.1104 24.8926 52.0821 24.8926 52.0525V51.8434C24.8924 51.8138 24.9039 51.7852 24.9244 51.7639L25.8812 50.8025C26.0931 50.5977 26.2919 50.3799 26.4767 50.1503C26.5649 50.0338 26.6376 49.9061 26.6926 49.7707C26.7414 49.643 26.766 49.5074 26.7653 49.3707C26.7697 49.2833 26.7558 49.1959 26.7245 49.1141C26.6932 49.0323 26.6452 48.958 26.5835 48.8958C26.5149 48.8343 26.4347 48.787 26.3478 48.7566C26.2608 48.7262 26.1687 48.7132 26.0767 48.7184C25.9256 48.7182 25.7756 48.7443 25.6335 48.7957C25.4973 48.8506 25.3689 48.9232 25.2517 49.0116C25.2285 49.0288 25.1994 49.036 25.1708 49.0317C25.1423 49.0275 25.1166 49.012 25.0994 48.9889L25.0085 48.873C24.9907 48.85 24.9827 48.8209 24.9861 48.792C24.9895 48.7631 25.0041 48.7367 25.0267 48.7184C25.3249 48.484 25.6929 48.356 26.0722 48.3548C26.3728 48.3377 26.6689 48.4342 26.9017 48.6252C27.0019 48.7176 27.0806 48.8308 27.1325 48.9568C27.1843 49.0828 27.2079 49.2188 27.2017 49.3549C27.199 49.6033 27.1299 49.8465 27.0017 50.0593C26.7914 50.3855 26.5392 50.6828 26.2517 50.9435L25.429 51.748V51.7684H27.2471C27.2767 51.7684 27.305 51.7802 27.3259 51.8011C27.3468 51.8219 27.3585 51.8503 27.3585 51.8798V52.0525C27.3585 52.0817 27.3471 52.1097 27.3267 52.1305C27.3063 52.1514 27.2786 52.1633 27.2494 52.1639Z" fill="#142A3B"/>
<path d="M27.3341 68.198C27.344 68.4128 27.2717 68.6233 27.1319 68.7867C26.9803 68.9485 26.7799 69.0561 26.5614 69.0934V69.114C26.8117 69.1273 27.0492 69.2286 27.2318 69.4003C27.3848 69.5646 27.4665 69.7827 27.4591 70.0071C27.4677 70.1644 27.4384 70.3216 27.3735 70.4652C27.3086 70.6088 27.2102 70.7346 27.0864 70.8322C26.7757 71.0444 26.4029 71.1468 26.0273 71.123C25.8445 71.1239 25.662 71.1086 25.4819 71.0775C25.3386 71.051 25.1989 71.0075 25.0659 70.948C25.0462 70.9398 25.0294 70.926 25.0177 70.9082C25.0059 70.8903 24.9997 70.8694 25 70.848V70.6843C25.0002 70.6663 25.0049 70.6486 25.0134 70.6327C25.022 70.6169 25.0343 70.6033 25.0493 70.5932C25.0643 70.5832 25.0815 70.5769 25.0994 70.5749C25.1174 70.573 25.1355 70.5755 25.1523 70.5821C25.2715 70.6306 25.3947 70.6686 25.5205 70.6958C25.6917 70.737 25.8671 70.7583 26.0432 70.7594C26.6932 70.7594 27.0182 70.5048 27.0182 69.9957C27.0182 69.5412 26.6599 69.3139 25.9432 69.3139H25.6841C25.6546 69.3139 25.6263 69.3022 25.6054 69.2813C25.5845 69.2604 25.5727 69.232 25.5727 69.2025V69.0571C25.5727 69.0276 25.5845 68.9992 25.6054 68.9783C25.6263 68.9575 25.6546 68.9457 25.6841 68.9457H25.9478C26.1952 68.9591 26.4402 68.8913 26.6455 68.7525C26.7289 68.6904 26.7959 68.6089 26.8407 68.515C26.8854 68.4212 26.9066 68.3179 26.9023 68.214C26.9062 68.1323 26.8911 68.0508 26.8584 67.9759C26.8257 67.901 26.7762 67.8347 26.7137 67.7821C26.5662 67.671 26.3843 67.6154 26.2 67.6253C26.0461 67.6255 25.8931 67.6477 25.7455 67.6912C25.6006 67.7395 25.4619 67.8043 25.3319 67.8844C25.3081 67.8986 25.2801 67.9036 25.2529 67.8986C25.2257 67.8936 25.2012 67.8788 25.1841 67.8571L25.0978 67.7412C25.0889 67.7295 25.0824 67.716 25.0787 67.7017C25.0751 67.6874 25.0742 67.6726 25.0764 67.658C25.0785 67.6434 25.0835 67.6295 25.0911 67.6168C25.0986 67.6042 25.1086 67.5932 25.1205 67.5844C25.2607 67.4879 25.4137 67.4114 25.575 67.3571C25.7801 67.2883 25.9951 67.2537 26.2114 67.2548C26.5153 67.2355 26.8163 67.324 27.0614 67.5048C27.1572 67.5916 27.2316 67.6992 27.2789 67.8195C27.3263 67.9397 27.3451 68.0692 27.3341 68.198Z" fill="#142A3B"/>
</g>
<defs>
<clipPath id="clip0_3005_28910">
<rect width="73.7364" height="64.7545" fill="white" transform="translate(18.9629 18.064)"/>
</clipPath>
</defs>
</svg>
