<svg width="101" height="101" viewBox="0 0 101 101" fill="none" xmlns="http://www.w3.org/2000/svg">
<rect width="100" height="100" transform="translate(0.28125 0.563965)" fill="white"/>
<g clip-path="url(#clip0_3005_28903)">
<g opacity="0.1">
<path d="M72.0086 64.3867C71.9358 64.523 71.854 64.6525 71.7813 64.7866C71.7085 64.9207 71.629 65.0525 71.554 65.1843C71.479 65.3162 71.3995 65.4503 71.3267 65.5798C71.254 65.7094 71.1563 65.8344 71.0699 65.9617C70.9836 66.089 70.9108 66.2253 70.8222 66.3503C70.7336 66.4753 70.6381 66.598 70.5472 66.7208L70.2654 67.0866C70.1722 67.2071 70.0608 67.314 69.9631 67.4344C69.8654 67.5549 69.779 67.6776 69.679 67.7958C69.579 67.9139 69.4836 68.0343 69.3813 68.148C69.279 68.2616 69.154 68.3572 69.0517 68.4708C68.9495 68.5844 68.8427 68.698 68.7358 68.8048C68.629 68.9116 68.5086 69.0185 68.404 69.1253C68.2995 69.2321 68.1768 69.3525 68.0745 69.4457C67.9722 69.5389 67.8472 69.673 67.7427 69.7662C67.6381 69.8594 67.5154 69.9776 67.4018 70.0776C67.2881 70.1776 67.1563 70.2616 67.0381 70.3593C66.9199 70.4571 66.8108 70.5662 66.6904 70.6616C66.5699 70.7571 66.4336 70.8321 66.3109 70.9253C66.1881 71.0185 66.0836 71.123 65.9518 71.2139C65.8199 71.3049 65.7018 71.3912 65.5768 71.4798C65.4518 71.5685 65.3313 71.6662 65.204 71.7503C65.0767 71.8344 64.9336 71.9003 64.804 71.9776C64.6745 72.0548 64.5609 72.1662 64.429 72.248C64.2972 72.3298 64.1563 72.3912 64.0245 72.4753C63.8927 72.5594 63.7677 72.6412 63.6336 72.7185C63.4995 72.7958 63.3586 72.8549 63.2222 72.9276C63.0858 73.0003 62.9654 73.0981 62.829 73.1685C62.6927 73.239 62.5586 73.314 62.4222 73.3821C62.2858 73.4503 62.1336 73.4935 61.995 73.5617C61.8563 73.6299 61.729 73.7139 61.5881 73.7775C61.4472 73.8412 61.3017 73.8912 61.1631 73.9525C61.0245 74.0139 60.8859 74.089 60.745 74.1481L60.3176 74.3231C60.1767 74.3822 60.0313 74.4299 59.8859 74.4844C59.7404 74.539 59.5972 74.5866 59.4517 74.6389C59.3063 74.6912 59.1631 74.7457 59.0199 74.7957C58.8768 74.8457 58.7268 74.8889 58.5813 74.9366C58.4359 74.9844 58.2904 75.0367 58.1449 75.0821C57.9995 75.1276 57.854 75.1867 57.7086 75.2298C57.5631 75.273 57.4108 75.3071 57.254 75.348C57.0972 75.3889 56.9517 75.4139 56.7995 75.4526C56.6472 75.4912 56.5086 75.5548 56.3586 75.5912C56.2086 75.6275 56.054 75.6366 55.904 75.6707C55.754 75.7048 55.6063 75.739 55.4495 75.7685C55.2927 75.798 55.1495 75.8299 54.9949 75.8572C54.8404 75.8844 54.6972 75.9413 54.5404 75.9663C54.3836 75.9913 54.2381 76.0026 54.0858 76.0253C53.9336 76.048 53.7859 76.0662 53.6313 76.0867C53.4768 76.1071 53.329 76.1253 53.1768 76.1435L52.7222 76.1957C52.5699 76.2117 52.4199 76.2389 52.2677 76.2526C52.1154 76.2662 51.9631 76.2685 51.8131 76.2799C51.6631 76.2912 51.5108 76.3253 51.3586 76.3344C51.2063 76.3434 51.054 76.3344 50.904 76.3344C50.754 76.3344 50.5995 76.3344 50.4495 76.3344C50.2995 76.3344 50.1449 76.3752 49.9949 76.3775C49.8449 76.3798 49.6927 76.3775 49.5404 76.3775C49.3881 76.3775 49.2359 76.3594 49.0858 76.3571C48.9359 76.3548 48.7836 76.3707 48.6313 76.3571C48.479 76.3435 48.3268 76.3321 48.1768 76.3276C48.0268 76.323 47.8722 76.3276 47.7222 76.3276C47.5722 76.3276 47.4199 76.2821 47.2677 76.273L46.8131 76.2503C46.6631 76.2503 46.5108 76.2503 46.3586 76.2298C46.2063 76.2094 46.0586 76.1844 45.904 76.1708C45.7495 76.1571 45.5995 76.1708 45.4495 76.148C45.2995 76.1253 45.1472 76.1139 44.9949 76.098C44.8427 76.0821 44.6904 76.0981 44.5404 76.0708C44.3904 76.0435 44.2427 76.0071 44.0858 75.9912C43.929 75.9753 43.7836 75.9594 43.6313 75.939C43.479 75.9185 43.3268 75.9253 43.1768 75.9071C43.0268 75.8889 42.8768 75.8594 42.7222 75.839C42.5677 75.8185 42.4245 75.7844 42.2677 75.7639L41.8131 75.7002C41.6631 75.6798 41.5086 75.6776 41.3586 75.6549C41.2086 75.6321 41.0609 75.6048 40.904 75.5821L40.4495 75.5139L39.9949 75.4503C39.8449 75.4276 39.6972 75.3844 39.5404 75.3617C39.3836 75.3389 39.2381 75.3344 39.0858 75.3116C38.9336 75.2889 38.7859 75.2684 38.6313 75.2457C38.4768 75.223 38.3358 75.1662 38.1768 75.1435L37.7222 75.0752C37.5722 75.0525 37.4199 75.0389 37.2677 75.0162L36.8131 74.9481C36.6631 74.9253 36.5109 74.9163 36.3586 74.8958C36.2063 74.8754 36.0563 74.8572 35.904 74.8344C35.7518 74.8117 35.6063 74.7775 35.4495 74.7571L34.9949 74.6981C34.8427 74.6776 34.6949 74.6503 34.5404 74.6321C34.3859 74.614 34.2359 74.6322 34.0859 74.6072L33.6313 74.5526C33.4813 74.5344 33.3313 74.4958 33.1768 74.4799C33.0222 74.464 32.8722 74.4798 32.7222 74.4594C32.5722 74.4389 32.4222 74.423 32.2677 74.4116C32.1131 74.4003 31.9654 74.3685 31.8131 74.3571C31.6609 74.3458 31.5086 74.3571 31.3586 74.3435C31.2086 74.3299 31.0563 74.3116 30.904 74.3025C30.7518 74.2935 30.5995 74.2798 30.4495 74.273L29.9949 74.2548C29.8404 74.2548 29.6836 74.2548 29.529 74.2548L29.0745 74.2435L28.6199 74.223C28.4654 74.223 28.3108 74.198 28.1654 74.1935C28.0199 74.1889 27.854 74.2094 27.7108 74.1935C27.5677 74.1775 27.3995 74.1753 27.2563 74.1685C27.1131 74.1617 26.9449 74.1685 26.8018 74.1685C26.6586 74.1685 26.4927 74.1253 26.3472 74.1162C26.2017 74.1071 26.0358 74.1163 25.8927 74.0958C25.7495 74.0753 25.5813 74.0957 25.4381 74.0798C25.2949 74.0639 25.129 74.0526 24.9836 74.039C24.8381 74.0253 24.6745 74.0185 24.529 74.0026C24.3836 73.9867 24.2222 73.9503 24.0745 73.9321C23.9268 73.9139 23.7654 73.914 23.6199 73.8935L23.1654 73.8298C23.0131 73.8071 22.8631 73.7639 22.7108 73.7389L22.2563 73.6526C22.104 73.623 21.9472 73.6163 21.8017 73.5844L21.3472 73.4867C21.1972 73.4503 21.0517 73.398 20.8927 73.3594C20.7336 73.3207 20.5881 73.298 20.4381 73.2548C20.2881 73.2117 20.1472 73.1503 19.9995 73.1026C19.8518 73.0549 19.7086 73.0003 19.5631 72.9503C19.4177 72.9003 19.2699 72.8504 19.1267 72.7935C18.9836 72.7367 18.8404 72.6798 18.6972 72.6208C18.554 72.5617 18.4108 72.5071 18.2699 72.4412C18.129 72.3753 17.9995 72.2935 17.8608 72.2139C17.7222 72.1344 17.5768 72.0934 17.4404 72.0207C17.304 71.948 17.1745 71.8639 17.0404 71.7934C16.9063 71.723 16.7631 71.6571 16.629 71.5662C16.4949 71.4753 16.3745 71.3935 16.2449 71.3094C16.1154 71.2253 15.979 71.1526 15.8518 71.0617C15.7245 70.9708 15.5995 70.8844 15.4745 70.7912C15.3495 70.6981 15.229 70.6072 15.1063 70.5117C14.9836 70.4163 14.879 70.3003 14.7608 70.2003C14.6427 70.1003 14.5154 70.0139 14.3972 69.9117C14.279 69.8094 14.1699 69.6981 14.0609 69.5935C13.9518 69.489 13.8154 69.4049 13.7017 69.2958C13.5881 69.1867 13.4949 69.0685 13.3836 68.9571C13.2722 68.8457 13.1563 68.748 13.054 68.6344C12.9518 68.5207 12.8449 68.4072 12.7404 68.2958C12.6358 68.1844 12.5131 68.0685 12.4222 67.9617C12.3313 67.8548 12.2358 67.7185 12.1358 67.6003C12.0358 67.4821 11.9336 67.373 11.8358 67.2503C11.7381 67.1276 11.6563 67.0003 11.5609 66.8776C11.4654 66.7548 11.3517 66.6503 11.2608 66.5276C11.1699 66.4048 11.0813 66.2776 10.9904 66.1526C10.8995 66.0276 10.8381 65.8843 10.7631 65.7571C10.6881 65.6298 10.5836 65.5071 10.4995 65.3775C10.4154 65.248 10.3109 65.1344 10.229 65.0026C10.1472 64.8707 10.0813 64.7321 10.0018 64.6003C9.92222 64.4685 9.84949 64.3344 9.77449 64.2003C9.69949 64.0662 9.60857 63.9413 9.53357 63.8072C9.45857 63.6731 9.40175 63.5276 9.32902 63.3912C9.25629 63.2549 9.17902 63.123 9.10175 62.9866C9.02447 62.8503 8.96311 62.7093 8.8972 62.5707C8.83129 62.4321 8.77448 62.2889 8.71084 62.148C8.64721 62.0071 8.58358 61.8685 8.52449 61.7253C8.4654 61.5821 8.40631 61.4412 8.35176 61.2981C8.29722 61.1549 8.25631 61.0026 8.20631 60.8594C8.15631 60.7162 8.09948 60.5685 8.05175 60.423C8.00402 60.2776 7.97674 60.123 7.93356 59.9685C7.89038 59.8139 7.85176 59.673 7.81313 59.5253C7.77449 59.3775 7.71538 59.2299 7.68129 59.0822C7.6472 58.9344 7.6063 58.7822 7.57676 58.6276C7.54721 58.4731 7.52449 58.3231 7.49949 58.1731C7.47449 58.0231 7.44038 57.8708 7.4222 57.7185C7.40402 57.5662 7.39267 57.4117 7.37903 57.264C7.36539 57.1162 7.3472 56.9549 7.34038 56.8094C7.33357 56.664 7.3404 56.5003 7.32676 56.3549C7.31313 56.2094 7.35856 56.0458 7.36311 55.9003C7.36765 55.7549 7.36311 55.5912 7.36311 55.4458C7.36311 55.3003 7.40174 55.139 7.41992 54.9912C7.43811 54.8435 7.44267 54.6822 7.46994 54.5367C7.49722 54.3912 7.53357 54.2344 7.56993 54.0822C7.60629 53.9299 7.64039 53.7821 7.68357 53.6389C7.72675 53.4957 7.7904 53.3503 7.84268 53.2117C7.89495 53.073 7.97222 52.9321 8.03813 52.798C8.10404 52.6639 8.18131 52.5276 8.2654 52.398C8.34949 52.2685 8.41993 52.1321 8.50629 52.0116C8.59266 51.8912 8.68131 51.7594 8.77904 51.6457C8.87848 51.5297 8.9839 51.4189 9.09492 51.3139C9.20401 51.2071 9.32221 51.1185 9.44721 51.0231C9.57221 50.9276 9.67449 50.8207 9.79949 50.7321C9.92449 50.6435 10.0517 50.5616 10.1813 50.4821C10.3108 50.4025 10.4449 50.3298 10.579 50.2548C10.7131 50.1798 10.8449 50.1094 10.9836 50.0435C11.1222 49.9776 11.2654 49.9321 11.4063 49.8707C11.5472 49.8094 11.6836 49.7526 11.8245 49.6935C11.9654 49.6344 12.0995 49.5639 12.2427 49.5094C12.3859 49.4549 12.5222 49.3889 12.6654 49.3344C12.8086 49.2798 12.9586 49.2571 13.1017 49.2026C13.2449 49.148 13.3745 49.0639 13.5154 49.0094C13.6563 48.9548 13.8086 48.9253 13.9495 48.8685C14.0904 48.8117 14.229 48.7457 14.3699 48.6866L14.7881 48.5049C14.9268 48.4412 15.0563 48.3616 15.1927 48.2935C15.329 48.2253 15.4745 48.1798 15.6086 48.1048C15.7427 48.0298 15.879 47.9639 16.0063 47.8775C16.1336 47.7912 16.2472 47.6889 16.3722 47.6025C16.4972 47.5162 16.6199 47.4276 16.7381 47.3321C16.8563 47.2367 16.9654 47.1412 17.0858 47.0367C17.2063 46.9322 17.2949 46.8094 17.3995 46.7071C17.504 46.6048 17.604 46.4799 17.6995 46.364C17.7949 46.2481 17.8881 46.1367 17.9745 46.0003C18.0608 45.864 18.1563 45.7594 18.2336 45.6253C18.3109 45.4913 18.3699 45.3549 18.4381 45.214C18.5063 45.0731 18.5586 44.9276 18.6131 44.7844C18.6677 44.6412 18.7018 44.4867 18.7449 44.3298C18.7881 44.173 18.8381 44.0344 18.8722 43.8753C18.9063 43.7162 18.9518 43.573 18.9745 43.4208C18.9972 43.2685 19.0017 43.1094 19.0177 42.9549C19.0336 42.8003 19.0449 42.6457 19.0518 42.4889C19.0586 42.3321 19.0518 42.1798 19.0518 42.0344C19.0518 41.8889 19.0631 41.723 19.0631 41.5685C19.0631 41.414 19.0631 41.2571 19.0631 41.1025C19.0631 40.948 19.0631 40.7913 19.0631 40.6344C19.0631 40.4776 19.0631 40.3254 19.0472 40.1799C19.0313 40.0344 19.0199 39.8731 19.0154 39.7254C19.0108 39.5776 19.0154 39.4185 19.0154 39.2708C19.0154 39.1231 18.9927 38.964 18.9904 38.8163C18.9881 38.6685 18.9904 38.5094 18.9904 38.3617C18.9904 38.214 18.9904 38.0549 18.9904 37.9072C18.9904 37.7594 19.0063 37.6004 19.004 37.4526C19.0018 37.3049 19.004 37.1458 19.004 36.9981C19.004 36.8504 19.004 36.6913 19.004 36.5435C19.004 36.3958 19.004 36.2367 19.004 36.089C19.004 35.9413 18.9881 35.7822 18.9904 35.6344C18.9927 35.4867 19.0086 35.3276 19.0108 35.1799V34.7254C19.0108 34.5731 19.0245 34.4185 19.029 34.2708C19.0336 34.1231 19.029 33.964 19.0449 33.8163C19.0608 33.6685 19.0449 33.5094 19.0449 33.3617C19.0449 33.214 19.0722 33.0549 19.0813 32.9072C19.0904 32.7594 19.0813 32.6004 19.0813 32.4526C19.0813 32.3049 19.1131 32.1458 19.1245 31.9981C19.1358 31.8504 19.1586 31.6935 19.1722 31.5435C19.1859 31.3935 19.1722 31.2367 19.1949 31.089C19.2177 30.9413 19.1949 30.7822 19.2199 30.6344C19.2449 30.4867 19.2699 30.3299 19.2859 30.1799C19.3018 30.0299 19.304 29.8708 19.3199 29.7254C19.3359 29.5799 19.3586 29.4208 19.379 29.2708C19.3995 29.1208 19.4426 28.9685 19.4631 28.8163C19.4836 28.664 19.4767 28.5094 19.4995 28.3617C19.5222 28.214 19.5449 28.0549 19.5699 27.9072C19.5949 27.7594 19.6358 27.6049 19.6631 27.4526C19.6904 27.3004 19.7199 27.1504 19.7472 26.9981C19.7745 26.8458 19.8154 26.6958 19.8449 26.5435C19.8745 26.3913 19.8768 26.2367 19.9086 26.089C19.9404 25.9413 19.9927 25.7913 20.0268 25.6344C20.0609 25.4776 20.0858 25.3322 20.1222 25.1799C20.1586 25.0276 20.2131 24.8844 20.2518 24.7254C20.2904 24.5663 20.3313 24.4276 20.3722 24.2708C20.4131 24.114 20.4677 23.9775 20.5109 23.8298C20.554 23.6821 20.5927 23.5344 20.6381 23.3867C20.6836 23.239 20.7131 23.0867 20.7631 22.9321C20.8131 22.7776 20.8608 22.6412 20.9131 22.4958C20.9654 22.3503 21.0086 22.2025 21.0631 22.0593C21.1177 21.9162 21.1904 21.7776 21.2472 21.6344C21.304 21.4912 21.354 21.3458 21.4154 21.2048C21.4768 21.0639 21.5381 20.9208 21.5995 20.7821C21.6608 20.6435 21.7404 20.5071 21.8063 20.3684C21.8722 20.2298 21.929 20.0867 21.9995 19.9481C22.0699 19.8094 22.1381 19.6731 22.2109 19.5367C22.2836 19.4003 22.3495 19.2639 22.4245 19.1275C22.4995 18.9912 22.5722 18.8571 22.6517 18.7253C22.7313 18.5934 22.8154 18.4639 22.8949 18.3321C22.9745 18.2003 23.0495 18.0662 23.1359 17.9367C23.2222 17.8071 23.3086 17.6822 23.3949 17.5572C23.4813 17.4322 23.5836 17.3116 23.6745 17.1866C23.7654 17.0616 23.854 16.9389 23.9495 16.8162C24.0449 16.6935 24.1381 16.573 24.2358 16.4549C24.3336 16.3367 24.4313 16.2276 24.529 16.1049C24.6267 15.9821 24.7359 15.8776 24.8381 15.7685C24.9404 15.6594 25.0518 15.5412 25.1586 15.4435C25.2654 15.3457 25.3858 15.2298 25.4881 15.1275C25.5904 15.0252 25.7154 14.9231 25.8313 14.8253C25.9472 14.7276 26.0586 14.6299 26.1836 14.5367C26.3086 14.4435 26.4109 14.3344 26.5359 14.2457C26.6609 14.1571 26.7927 14.0798 26.9177 13.9957C27.0427 13.9116 27.1676 13.8185 27.2972 13.7389C27.4267 13.6594 27.5585 13.5844 27.6904 13.5116C27.8222 13.4389 27.9677 13.3843 28.1017 13.3139C28.2358 13.2434 28.3722 13.173 28.5108 13.1094C28.6495 13.0457 28.795 13.0003 28.9336 12.9435C29.0722 12.8866 29.2154 12.8276 29.3586 12.7753C29.5017 12.7231 29.6336 12.6435 29.779 12.598C29.9245 12.5525 30.079 12.5344 30.2336 12.4958C30.3881 12.4572 30.5199 12.3889 30.6677 12.3549C30.8154 12.3208 30.9654 12.2935 31.1222 12.264C31.279 12.2344 31.4222 12.2139 31.5768 12.1912C31.7313 12.1684 31.879 12.1571 32.0313 12.1389C32.1836 12.1207 32.3313 12.1025 32.4858 12.0912C32.6404 12.0798 32.7881 12.0548 32.9404 12.048C33.0927 12.0412 33.2427 12.0481 33.3949 12.0367C33.5472 12.0253 33.6995 12.0367 33.8495 12.0367C33.9995 12.0367 34.1518 12.0639 34.304 12.0708C34.4563 12.0776 34.6086 12.0707 34.7586 12.0912C34.9086 12.1116 35.0608 12.0912 35.2131 12.1162C35.3654 12.1412 35.5154 12.1481 35.6677 12.1685C35.8199 12.189 35.9677 12.2162 36.1222 12.2412C36.2768 12.2662 36.4154 12.3184 36.5654 12.348C36.7154 12.3775 36.8676 12.3867 37.0199 12.4208C37.1722 12.4549 37.3109 12.5025 37.4586 12.5412C37.6063 12.5798 37.7518 12.6253 37.8972 12.6662C38.0427 12.7072 38.1949 12.7344 38.3404 12.7799C38.4858 12.8253 38.6267 12.8776 38.7722 12.9276C38.9176 12.9776 39.0609 13.0208 39.204 13.0731C39.3472 13.1253 39.4835 13.1935 39.6245 13.2481C39.7654 13.3026 39.9017 13.3776 40.0404 13.439L40.4586 13.6207C40.595 13.6844 40.7313 13.7548 40.8677 13.8207C41.0041 13.8866 41.1404 13.9525 41.2767 14.023C41.4131 14.0935 41.554 14.1457 41.6881 14.2184C41.8222 14.2912 41.9472 14.3798 42.079 14.4457C42.2108 14.5116 42.3563 14.5731 42.4881 14.6503C42.6199 14.7276 42.7404 14.823 42.8676 14.9026C42.9949 14.9821 43.12 15.073 43.2472 15.1594C43.3745 15.2457 43.4927 15.3367 43.6177 15.423C43.7427 15.5094 43.879 15.5866 44.0017 15.6798C44.1245 15.773 44.2427 15.8685 44.3608 15.9663C44.479 16.064 44.6063 16.1526 44.72 16.2526C44.8336 16.3526 44.9313 16.4799 45.0427 16.5822C45.154 16.6844 45.2699 16.7934 45.3745 16.9025C45.479 17.0116 45.6131 17.098 45.7154 17.2094C45.8176 17.3207 45.9108 17.448 46.0108 17.5639C46.1108 17.6798 46.2131 17.7912 46.3109 17.9116C46.4086 18.0321 46.4949 18.1571 46.5881 18.2776C46.6813 18.3981 46.779 18.5185 46.8699 18.6413C46.9608 18.764 47.0404 18.8957 47.1267 19.023C47.2131 19.1503 47.3199 19.2617 47.404 19.3912C47.4881 19.5208 47.5449 19.6639 47.6313 19.7957C47.7176 19.9275 47.7949 20.0548 47.8722 20.1867C47.9495 20.3185 48.0381 20.4458 48.1108 20.5798C48.1836 20.7139 48.2495 20.8549 48.3199 20.9912C48.3904 21.1276 48.4654 21.2594 48.5336 21.398C48.6018 21.5367 48.6654 21.6753 48.7313 21.8116C48.7972 21.948 48.8563 22.0935 48.9199 22.2321C48.9836 22.3708 49.0472 22.5116 49.1085 22.6503C49.1699 22.7889 49.2176 22.9367 49.279 23.0776C49.3404 23.2185 49.4063 23.3571 49.4677 23.498L49.6472 23.9208C49.704 24.0617 49.7836 24.1957 49.8404 24.3366C49.8972 24.4775 49.9427 24.6276 49.9995 24.7685C50.0563 24.9094 50.1177 25.0503 50.1745 25.1934C50.2313 25.3366 50.2699 25.4867 50.3268 25.6276C50.3836 25.7685 50.454 25.9071 50.5109 26.0503C50.5677 26.1934 50.6063 26.3412 50.6631 26.4844C50.7199 26.6276 50.8109 26.7548 50.8677 26.898C50.9245 27.0412 50.9586 27.1912 51.0177 27.3321C51.0768 27.473 51.1472 27.6093 51.2086 27.7503C51.27 27.8912 51.3267 28.0344 51.3881 28.1753C51.4495 28.3162 51.4995 28.4617 51.5631 28.6003C51.6267 28.7389 51.6858 28.8821 51.7518 29.0208C51.8177 29.1594 51.8949 29.2912 51.9631 29.4298C52.0313 29.5685 52.104 29.7004 52.1722 29.839C52.2404 29.9776 52.304 30.1162 52.3745 30.2503C52.4449 30.3843 52.5268 30.5162 52.6018 30.6503C52.6768 30.7844 52.7381 30.9253 52.8154 31.0594C52.8927 31.1934 52.9676 31.3253 53.0426 31.4549C53.1176 31.5844 53.2268 31.7003 53.3086 31.8298C53.3904 31.9594 53.4586 32.1004 53.5359 32.2254C53.6131 32.3504 53.7154 32.4776 53.804 32.6026C53.8927 32.7276 53.9813 32.8571 54.0745 32.9775C54.1677 33.098 54.2608 33.2253 54.3586 33.3435C54.4563 33.4617 54.5858 33.5708 54.6813 33.6753C54.7767 33.7799 54.8745 33.9185 54.979 34.0299C55.0836 34.1412 55.2063 34.2571 55.304 34.3571C55.4017 34.4571 55.5086 34.5844 55.6199 34.6957C55.7313 34.8071 55.8609 34.8912 55.9745 34.9958C56.0881 35.1003 56.2018 35.2094 56.3131 35.3094C56.4245 35.4094 56.5404 35.5071 56.6676 35.6048C56.7949 35.7025 56.9108 35.7958 57.0313 35.8912C57.1518 35.9867 57.2768 36.0776 57.3995 36.1708C57.5222 36.264 57.6267 36.3662 57.7608 36.4571L58.1381 36.7253C58.2631 36.8139 58.3927 36.9003 58.5199 36.9867C58.6472 37.073 58.7699 37.1639 58.8995 37.248L59.2904 37.4958C59.4199 37.5776 59.554 37.6526 59.6858 37.7344C59.8176 37.8162 59.9381 37.9116 60.07 37.9912C60.2018 38.0707 60.3472 38.1276 60.479 38.2071C60.6108 38.2867 60.7336 38.3844 60.8654 38.4617L61.2699 38.689C61.4017 38.7662 61.5472 38.8253 61.679 38.9003L62.0813 39.1275C62.2154 39.2025 62.3381 39.2981 62.4722 39.3753C62.6063 39.4526 62.7449 39.5208 62.879 39.6026C63.0131 39.6844 63.1358 39.773 63.2699 39.8503C63.404 39.9276 63.5472 39.9844 63.6813 40.0617C63.8154 40.139 63.9381 40.2299 64.0722 40.3094C64.2063 40.3889 64.3336 40.4708 64.4654 40.5503C64.5972 40.6299 64.7427 40.6866 64.8745 40.7662C65.0063 40.8457 65.129 40.9435 65.2586 41.0253C65.3881 41.1071 65.5313 41.1685 65.6608 41.2526C65.7904 41.3367 65.9086 41.4367 66.0381 41.5208C66.1677 41.6049 66.2927 41.6958 66.4199 41.7821C66.5472 41.8685 66.6768 41.9503 66.804 42.0389C66.9313 42.1276 67.0631 42.2048 67.1881 42.2957C67.3131 42.3866 67.4427 42.4707 67.5654 42.5639C67.6881 42.6571 67.7926 42.7684 67.9176 42.8639C68.0426 42.9593 68.1449 43.0662 68.2677 43.164C68.3904 43.2617 68.5245 43.339 68.6404 43.439C68.7563 43.539 68.8677 43.6549 68.9722 43.7594C69.0768 43.864 69.1995 43.9571 69.32 44.0662C69.4404 44.1753 69.5472 44.2798 69.6495 44.3912C69.7518 44.5026 69.8563 44.6185 69.9608 44.7321C70.0654 44.8458 70.1699 44.9593 70.2699 45.0752C70.3699 45.1912 70.4563 45.3208 70.554 45.4412C70.6518 45.5617 70.7609 45.6685 70.854 45.7935C70.9472 45.9185 71.0177 46.0526 71.1086 46.1799C71.1995 46.3071 71.279 46.4344 71.3631 46.564C71.4472 46.6935 71.5313 46.8208 71.6131 46.9526C71.6949 47.0844 71.7813 47.2093 71.8586 47.3434C71.9358 47.4775 72.0108 47.6117 72.0858 47.748C72.1608 47.8844 72.2154 48.0253 72.2836 48.164C72.3518 48.3026 72.4359 48.4298 72.5109 48.5685C72.5859 48.7071 72.6313 48.8502 72.6926 48.9912C72.754 49.1321 72.8017 49.2775 72.8586 49.4207C72.9154 49.5639 72.9654 49.7093 73.0177 49.8525C73.07 49.9957 73.1268 50.139 73.1768 50.2844C73.2268 50.4299 73.2904 50.5708 73.3358 50.7162C73.3813 50.8617 73.4017 51.0162 73.4427 51.1708C73.4836 51.3253 73.5336 51.4639 73.5699 51.6139C73.6063 51.7639 73.6472 51.9093 73.6813 52.0684C73.7154 52.2275 73.7654 52.3639 73.7972 52.523C73.829 52.6821 73.8313 52.8298 73.8586 52.9775C73.8859 53.1253 73.9154 53.2798 73.9381 53.4321C73.9608 53.5843 73.9881 53.7343 74.0086 53.8866C74.029 54.0389 74.0472 54.1912 74.0631 54.3412C74.079 54.4912 74.0972 54.6457 74.1086 54.7957C74.1199 54.9457 74.1086 55.1025 74.1267 55.2503C74.1449 55.398 74.1267 55.5571 74.1267 55.7048C74.1267 55.8525 74.1518 56.0116 74.1495 56.1593C74.1472 56.3071 74.1267 56.4662 74.1222 56.6139C74.1177 56.7616 74.1063 56.9207 74.0972 57.0684C74.0881 57.2162 74.0972 57.3753 74.0813 57.523C74.0654 57.6707 74.0654 57.8298 74.0495 57.9775C74.0336 58.1253 73.9927 58.2798 73.9745 58.4321C73.9563 58.5843 73.9541 58.7389 73.9313 58.8866C73.9086 59.0343 73.879 59.1889 73.8518 59.3412C73.8245 59.4934 73.7722 59.6389 73.7404 59.7957C73.7086 59.9525 73.679 60.0957 73.6427 60.2503C73.6063 60.4048 73.5722 60.5503 73.5336 60.7048C73.495 60.8593 73.4609 61.0025 73.4177 61.1593C73.3745 61.3162 73.3381 61.4548 73.2927 61.6139C73.2472 61.773 73.1859 61.9003 73.1336 62.0458C73.0813 62.1913 73.054 62.3435 72.9995 62.4867C72.9449 62.6299 72.8904 62.7639 72.8336 62.9003C72.7768 63.0367 72.6949 63.1662 72.6358 63.3026C72.5767 63.4389 72.5131 63.5753 72.4495 63.7094C72.3859 63.8435 72.3154 63.9753 72.2472 64.1071C72.179 64.2389 72.079 64.2594 72.0086 64.3867Z" fill="#55D890"/>
</g>
<path d="M72.7278 82.8845H27.5414C26.9883 82.8839 26.458 82.6638 26.0668 82.2727C25.6757 81.8815 25.4557 81.3512 25.4551 80.7981V22.9458C25.4557 22.3927 25.6757 21.8624 26.0668 21.4712C26.458 21.0801 26.9883 20.86 27.5414 20.8594H72.7278C73.281 20.86 73.8113 21.0801 74.2024 21.4712C74.5936 21.8624 74.8136 22.3927 74.8142 22.9458V58.4004C74.8142 58.5059 74.7723 58.607 74.6977 58.6816C74.6231 58.7562 74.5219 58.7981 74.4164 58.7981C74.3109 58.7981 74.2098 58.7562 74.1352 58.6816C74.0606 58.607 74.0187 58.5059 74.0187 58.4004V22.9458C74.0187 22.6035 73.8827 22.2751 73.6406 22.033C73.3985 21.7909 73.0702 21.6549 72.7278 21.6549H27.5414C27.1992 21.6555 26.8712 21.7917 26.6293 22.0336C26.3873 22.2756 26.2511 22.6037 26.2505 22.9458V80.7981C26.2511 81.1403 26.3873 81.4683 26.6293 81.7103C26.8712 81.9522 27.1992 82.0884 27.5414 82.089H72.7278C73.0702 82.089 73.3985 81.953 73.6406 81.7109C73.8827 81.4688 74.0187 81.1404 74.0187 80.7981V69.7185C74.0187 69.613 74.0606 69.5119 74.1352 69.4373C74.2098 69.3627 74.3109 69.3208 74.4164 69.3208C74.5219 69.3208 74.6231 69.3627 74.6977 69.4373C74.7723 69.5119 74.8142 69.613 74.8142 69.7185V80.7981C74.8136 81.3512 74.5936 81.8815 74.2024 82.2727C73.8113 82.6638 73.281 82.8839 72.7278 82.8845Z" fill="#142A3B"/>
<path d="M37.0651 56.4322C39.1462 56.4322 40.8332 54.7451 40.8332 52.664C40.8332 50.5829 39.1462 48.8958 37.0651 48.8958C34.9839 48.8958 33.2969 50.5829 33.2969 52.664C33.2969 54.7451 34.9839 56.4322 37.0651 56.4322Z" fill="#00E1D8"/>
<path d="M37.0638 56.6594C36.2736 56.6594 35.5011 56.4251 34.8441 55.986C34.187 55.547 33.6749 54.923 33.3725 54.1929C33.0701 53.4628 32.991 52.6595 33.1451 51.8845C33.2993 51.1094 33.6798 50.3976 34.2386 49.8388C34.7974 49.28 35.5093 48.8994 36.2843 48.7453C37.0594 48.5911 37.8628 48.6702 38.5928 48.9726C39.3229 49.275 39.9469 49.7871 40.386 50.4441C40.825 51.1012 41.0593 51.8737 41.0593 52.6639C41.0587 53.7234 40.6376 54.7394 39.8884 55.4885C39.1392 56.2377 38.1233 56.6588 37.0638 56.6594ZM37.0638 49.1253C36.3634 49.1253 35.6787 49.3331 35.0964 49.7223C34.514 50.1114 34.0602 50.6646 33.7923 51.3117C33.5243 51.9589 33.4543 52.6709 33.5911 53.3579C33.7279 54.0448 34.0654 54.6757 34.5608 55.1708C35.0562 55.6659 35.6874 56.003 36.3744 56.1394C37.0615 56.2758 37.7735 56.2053 38.4205 55.937C39.0674 55.6686 39.6203 55.2144 40.0091 54.6318C40.3979 54.0492 40.6052 53.3644 40.6047 52.6639C40.6041 51.7252 40.2308 50.8252 39.5668 50.1616C38.9028 49.498 38.0025 49.1253 37.0638 49.1253Z" fill="#142A3B"/>
<path d="M37.0651 69.7594C39.1462 69.7594 40.8332 68.0724 40.8332 65.9913C40.8332 63.9102 39.1462 62.2231 37.0651 62.2231C34.9839 62.2231 33.2969 63.9102 33.2969 65.9913C33.2969 68.0724 34.9839 69.7594 37.0651 69.7594Z" fill="#00E1D8"/>
<path d="M37.0638 69.9867C36.2736 69.9867 35.5011 69.7523 34.8441 69.3133C34.187 68.8743 33.6749 68.2503 33.3725 67.5202C33.0701 66.7901 32.991 65.9868 33.1451 65.2118C33.2993 64.4367 33.6798 63.7247 34.2386 63.166C34.7974 62.6072 35.5093 62.2267 36.2843 62.0726C37.0594 61.9184 37.8628 61.9975 38.5928 62.2999C39.3229 62.6023 39.9469 63.1144 40.386 63.7714C40.825 64.4285 41.0593 65.201 41.0593 65.9912C41.0581 67.0505 40.6368 68.066 39.8877 68.8151C39.1387 69.5641 38.1231 69.9855 37.0638 69.9867ZM37.0638 62.4503C36.3635 62.4503 35.6789 62.6579 35.0966 63.047C34.5143 63.4361 34.0604 63.9891 33.7924 64.6361C33.5244 65.2832 33.4543 65.9952 33.591 66.682C33.7276 67.3689 34.0648 67.9998 34.56 68.495C35.0552 68.9902 35.6862 69.3275 36.3731 69.4641C37.0599 69.6008 37.7719 69.5306 38.4189 69.2626C39.0659 68.9946 39.6189 68.5408 40.008 67.9585C40.3971 67.3762 40.6047 66.6916 40.6047 65.9912C40.6041 65.0523 40.2309 64.152 39.567 63.4881C38.9031 62.8242 38.0027 62.4509 37.0638 62.4503Z" fill="#142A3B"/>
<path d="M37.0898 42.9617C39.0919 42.9617 40.7148 41.3387 40.7148 39.3367C40.7148 37.3347 39.0919 35.7117 37.0898 35.7117C35.0878 35.7117 33.4648 37.3347 33.4648 39.3367C33.4648 41.3387 35.0878 42.9617 37.0898 42.9617Z" fill="#00E1D8"/>
<path d="M37.0905 43.189C36.3285 43.189 35.5836 42.963 34.9501 42.5396C34.3165 42.1162 33.8228 41.5145 33.5313 40.8104C33.2398 40.1064 33.1636 39.3317 33.3125 38.5844C33.4613 37.8371 33.8284 37.1506 34.3674 36.612C34.9064 36.0733 35.593 35.7066 36.3404 35.5582C37.0878 35.4098 37.8624 35.4864 38.5663 35.7783C39.2702 36.0703 39.8717 36.5644 40.2947 37.1982C40.7177 37.832 40.9433 38.577 40.9428 39.339C40.9392 40.3594 40.5321 41.3369 39.8104 42.0582C39.0887 42.7795 38.1109 43.186 37.0905 43.189ZM37.0905 35.9413C36.4185 35.9413 35.7616 36.1405 35.2029 36.5139C34.6441 36.8872 34.2086 37.4179 33.9515 38.0388C33.6943 38.6596 33.627 39.3428 33.7581 40.0019C33.8892 40.661 34.2128 41.2664 34.688 41.7416C35.1632 42.2168 35.7686 42.5403 36.4277 42.6714C37.0868 42.8025 37.77 42.7353 38.3908 42.4781C39.0117 42.221 39.5423 41.7854 39.9156 41.2267C40.289 40.6679 40.4883 40.011 40.4883 39.339C40.4853 38.4388 40.1263 37.5763 39.4898 36.9398C38.8532 36.3032 37.9908 35.9442 37.0905 35.9413Z" fill="#142A3B"/>
<path d="M37.0898 40.3253H37.0512C37.0209 40.32 36.9919 40.3087 36.9661 40.2919C36.9404 40.2751 36.9183 40.2532 36.9012 40.2276L35.5648 38.2208C35.5353 38.1708 35.526 38.1113 35.5389 38.0547C35.5518 37.998 35.5858 37.9485 35.6341 37.9162C35.6824 37.8839 35.7413 37.8713 35.7985 37.881C35.8558 37.8907 35.9072 37.922 35.9421 37.9684L37.1466 39.7753L41.8057 36.2799C41.8296 36.2618 41.8568 36.2486 41.8858 36.241C41.9148 36.2335 41.9449 36.2318 41.9746 36.2359C42.0042 36.24 42.0328 36.25 42.0586 36.2651C42.0844 36.2803 42.107 36.3003 42.1251 36.3241C42.1431 36.348 42.1563 36.3753 42.1638 36.4043C42.1714 36.4332 42.1731 36.4634 42.169 36.493C42.1649 36.5227 42.155 36.5512 42.1399 36.5771C42.1247 36.6029 42.1046 36.6255 42.0807 36.6435L37.2262 40.2799C37.1869 40.3094 37.139 40.3253 37.0898 40.3253Z" fill="#142A3B"/>
<path d="M37.0643 53.6822H37.0257C36.9954 53.6769 36.9665 53.6656 36.9407 53.6488C36.9149 53.632 36.8928 53.6101 36.8757 53.5845L35.4871 51.4981C35.4685 51.4734 35.4551 51.4452 35.4478 51.4151C35.4405 51.3851 35.4394 51.3539 35.4446 51.3235C35.4498 51.293 35.4612 51.2638 35.478 51.2379C35.4948 51.212 35.5167 51.1897 35.5424 51.1725C35.5681 51.1554 35.597 51.1436 35.6274 51.138C35.6578 51.1324 35.689 51.1331 35.7191 51.1399C35.7492 51.1468 35.7777 51.1596 35.8027 51.1779C35.8276 51.1961 35.8486 51.2193 35.8644 51.2459L37.1211 53.1322L41.9734 49.4958C41.9973 49.4779 42.0245 49.465 42.0534 49.4576C42.0823 49.4502 42.1124 49.4485 42.1419 49.4527C42.1715 49.4569 42.1999 49.4669 42.2256 49.4821C42.2513 49.4973 42.2737 49.5175 42.2916 49.5413C42.3095 49.5652 42.3225 49.5923 42.3299 49.6212C42.3373 49.6502 42.339 49.6803 42.3348 49.7098C42.3305 49.7393 42.3206 49.7678 42.3054 49.7935C42.2901 49.8192 42.27 49.8416 42.2462 49.8595L37.203 53.6368C37.163 53.6668 37.1143 53.6827 37.0643 53.6822Z" fill="#142A3B"/>
<path d="M37.0643 67.0071H37.0257C36.9954 67.0018 36.9665 66.9905 36.9407 66.9737C36.9149 66.9569 36.8928 66.935 36.8757 66.9094L35.4871 64.823C35.4685 64.7983 35.4551 64.7701 35.4478 64.7401C35.4405 64.7101 35.4394 64.6788 35.4446 64.6483C35.4498 64.6179 35.4612 64.5888 35.478 64.5629C35.4948 64.5369 35.5167 64.5147 35.5424 64.4975C35.5681 64.4803 35.597 64.4685 35.6274 64.4629C35.6578 64.4573 35.689 64.4579 35.7191 64.4648C35.7492 64.4716 35.7777 64.4846 35.8027 64.5029C35.8276 64.5211 35.8486 64.5442 35.8644 64.5708L37.1211 66.4571L41.9734 62.8207C42.0217 62.7846 42.0823 62.769 42.1419 62.7776C42.2016 62.7861 42.2554 62.818 42.2916 62.8662C42.3278 62.9144 42.3433 62.975 42.3348 63.0347C42.3262 63.0943 42.2944 63.1482 42.2462 63.1844L37.2007 66.9684C37.1605 66.9955 37.1127 67.0091 37.0643 67.0071Z" fill="#142A3B"/>
<path d="M51.0871 38.3436H45.1257C45.0654 38.3436 45.0076 38.3196 44.965 38.277C44.9223 38.2343 44.8984 38.1766 44.8984 38.1163C44.8984 38.056 44.9223 37.9982 44.965 37.9556C45.0076 37.913 45.0654 37.889 45.1257 37.889H51.0871C51.1473 37.889 51.2051 37.913 51.2478 37.9556C51.2904 37.9982 51.3143 38.056 51.3143 38.1163C51.3143 38.1766 51.2904 38.2343 51.2478 38.277C51.2051 38.3196 51.1473 38.3436 51.0871 38.3436Z" fill="#142A3B"/>
<path d="M56.0481 38.3436H52.7663C52.7061 38.3436 52.6483 38.3196 52.6056 38.277C52.563 38.2343 52.5391 38.1766 52.5391 38.1163C52.5391 38.056 52.563 37.9982 52.6056 37.9556C52.6483 37.913 52.7061 37.889 52.7663 37.889H56.0481C56.1084 37.889 56.1663 37.913 56.2089 37.9556C56.2515 37.9982 56.2754 38.056 56.2754 38.1163C56.2754 38.1766 56.2515 38.2343 56.2089 38.277C56.1663 38.3196 56.1084 38.3436 56.0481 38.3436Z" fill="#142A3B"/>
<path d="M66.9771 38.3436H57.5202C57.46 38.3436 57.4022 38.3196 57.3596 38.277C57.3169 38.2343 57.293 38.1766 57.293 38.1163C57.293 38.056 57.3169 37.9982 57.3596 37.9556C57.4022 37.913 57.46 37.889 57.5202 37.889H66.9771C67.0374 37.889 67.0952 37.913 67.1378 37.9556C67.1804 37.9982 67.2044 38.056 67.2044 38.1163C67.2044 38.1766 67.1804 38.2343 67.1378 38.277C67.0952 38.3196 67.0374 38.3436 66.9771 38.3436Z" fill="#142A3B"/>
<path d="M54.753 41.0663H45.1257C45.0654 41.0663 45.0076 41.0423 44.965 40.9997C44.9223 40.9571 44.8984 40.8993 44.8984 40.839C44.8984 40.7787 44.9223 40.7209 44.965 40.6783C45.0076 40.6357 45.0654 40.6117 45.1257 40.6117H54.753C54.8132 40.6117 54.871 40.6357 54.9136 40.6783C54.9563 40.7209 54.9802 40.7787 54.9802 40.839C54.9802 40.8993 54.9563 40.9571 54.9136 40.9997C54.871 41.0423 54.8132 41.0663 54.753 41.0663Z" fill="#142A3B"/>
<path d="M59.7142 41.0663H56.4324C56.3721 41.0663 56.3142 41.0423 56.2716 40.9997C56.229 40.9571 56.2051 40.8993 56.2051 40.839C56.2051 40.7787 56.229 40.7209 56.2716 40.6783C56.3142 40.6357 56.3721 40.6117 56.4324 40.6117H59.7142C59.7744 40.6117 59.8322 40.6357 59.8748 40.6783C59.9175 40.7209 59.9414 40.7787 59.9414 40.839C59.9414 40.8993 59.9175 40.9571 59.8748 40.9997C59.8322 41.0423 59.7744 41.0663 59.7142 41.0663Z" fill="#142A3B"/>
<path d="M47.431 51.2481H45.1355C45.0752 51.2481 45.0174 51.2241 44.9748 51.1815C44.9322 51.1389 44.9082 51.0811 44.9082 51.0208C44.9082 50.9605 44.9322 50.9027 44.9748 50.8601C45.0174 50.8175 45.0752 50.7935 45.1355 50.7935H47.431C47.4912 50.7935 47.549 50.8175 47.5916 50.8601C47.6343 50.9027 47.6582 50.9605 47.6582 51.0208C47.6582 51.0811 47.6343 51.1389 47.5916 51.1815C47.549 51.2241 47.4912 51.2481 47.431 51.2481Z" fill="#142A3B"/>
<path d="M52.3821 51.2481H49.1003C49.04 51.2481 48.9822 51.2241 48.9396 51.1815C48.897 51.1389 48.873 51.0811 48.873 51.0208C48.873 50.9605 48.897 50.9027 48.9396 50.8601C48.9822 50.8175 49.04 50.7935 49.1003 50.7935H52.3821C52.4424 50.7935 52.5002 50.8175 52.5428 50.8601C52.5854 50.9027 52.6094 50.9605 52.6094 51.0208C52.6094 51.0811 52.5854 51.1389 52.5428 51.1815C52.5002 51.2241 52.4424 51.2481 52.3821 51.2481Z" fill="#142A3B"/>
<path d="M66.977 51.2481H53.8542C53.7939 51.2481 53.7362 51.2241 53.6935 51.1815C53.6509 51.1389 53.627 51.0811 53.627 51.0208C53.627 50.9605 53.6509 50.9027 53.6935 50.8601C53.7362 50.8175 53.7939 50.7935 53.8542 50.7935H66.977C67.0372 50.7935 67.095 50.8175 67.1376 50.8601C67.1803 50.9027 67.2042 50.9605 67.2042 51.0208C67.2042 51.0811 67.1803 51.1389 67.1376 51.1815C67.095 51.2241 67.0372 51.2481 66.977 51.2481Z" fill="#142A3B"/>
<path d="M57.2043 53.9708H45.1316C45.0713 53.9708 45.0135 53.9468 44.9709 53.9042C44.9283 53.8616 44.9043 53.8038 44.9043 53.7435C44.9043 53.6832 44.9283 53.6254 44.9709 53.5828C45.0135 53.5402 45.0713 53.5162 45.1316 53.5162H57.2043C57.2646 53.5162 57.3224 53.5402 57.365 53.5828C57.4076 53.6254 57.4316 53.6832 57.4316 53.7435C57.4316 53.8038 57.4076 53.8616 57.365 53.9042C57.3224 53.9468 57.2646 53.9708 57.2043 53.9708Z" fill="#142A3B"/>
<path d="M62.1598 53.9708H58.8757C58.8154 53.9708 58.7576 53.9468 58.715 53.9042C58.6723 53.8616 58.6484 53.8038 58.6484 53.7435C58.6484 53.6832 58.6723 53.6254 58.715 53.5828C58.7576 53.5402 58.8154 53.5162 58.8757 53.5162H62.1598C62.2201 53.5162 62.2779 53.5402 62.3205 53.5828C62.3631 53.6254 62.3871 53.6832 62.3871 53.7435C62.3871 53.8038 62.3631 53.8616 62.3205 53.9042C62.2779 53.9468 62.2201 53.9708 62.1598 53.9708Z" fill="#142A3B"/>
<path d="M55.9757 65.1095H45.1257C45.0654 65.1095 45.0076 65.0855 44.965 65.0429C44.9223 65.0003 44.8984 64.9425 44.8984 64.8822C44.8984 64.8219 44.9223 64.764 44.965 64.7214C45.0076 64.6788 45.0654 64.6549 45.1257 64.6549H55.9757C56.036 64.6549 56.0938 64.6788 56.1364 64.7214C56.179 64.764 56.203 64.8219 56.203 64.8822C56.203 64.9425 56.179 65.0003 56.1364 65.0429C56.0938 65.0855 56.036 65.1095 55.9757 65.1095Z" fill="#142A3B"/>
<path d="M60.9384 65.1095H57.6589C57.5986 65.1095 57.5408 65.0855 57.4982 65.0429C57.4556 65.0003 57.4316 64.9425 57.4316 64.8822C57.4316 64.8219 57.4556 64.764 57.4982 64.7214C57.5408 64.6788 57.5986 64.6549 57.6589 64.6549H60.943C61.0033 64.6549 61.0611 64.6788 61.1037 64.7214C61.1464 64.764 61.1703 64.8219 61.1703 64.8822C61.1703 64.9425 61.1464 65.0003 61.1037 65.0429C61.0611 65.0855 61.0033 65.1095 60.943 65.1095H60.9384Z" fill="#142A3B"/>
<path d="M64.53 65.1095H62.405C62.3447 65.1095 62.2869 65.0855 62.2443 65.0429C62.2017 65.0003 62.1777 64.9425 62.1777 64.8822C62.1777 64.8219 62.2017 64.764 62.2443 64.7214C62.2869 64.6788 62.3447 64.6549 62.405 64.6549H64.53C64.5903 64.6549 64.6481 64.6788 64.6907 64.7214C64.7333 64.764 64.7573 64.8219 64.7573 64.8822C64.7573 64.9425 64.7333 65.0003 64.6907 65.0429C64.6481 65.0855 64.5903 65.1095 64.53 65.1095Z" fill="#142A3B"/>
<path d="M48.6439 67.8322H45.1257C45.0654 67.8322 45.0076 67.8082 44.965 67.7656C44.9223 67.723 44.8984 67.6652 44.8984 67.6049C44.8984 67.5447 44.9223 67.4869 44.965 67.4442C45.0076 67.4016 45.0654 67.3777 45.1257 67.3777H48.6439C48.7042 67.3777 48.762 67.4016 48.8046 67.4442C48.8472 67.4869 48.8712 67.5447 48.8712 67.6049C48.8712 67.6652 48.8472 67.723 48.8046 67.7656C48.762 67.8082 48.7042 67.8322 48.6439 67.8322Z" fill="#142A3B"/>
<path d="M59.7142 67.8322H50.321C50.2607 67.8322 50.203 67.8082 50.1603 67.7656C50.1177 67.723 50.0938 67.6652 50.0938 67.6049C50.0938 67.5447 50.1177 67.4869 50.1603 67.4442C50.203 67.4016 50.2607 67.3777 50.321 67.3777H59.7142C59.7745 67.3777 59.8323 67.4016 59.8749 67.4442C59.9175 67.4869 59.9415 67.5447 59.9415 67.6049C59.9415 67.6652 59.9175 67.723 59.8749 67.7656C59.8323 67.8082 59.7745 67.8322 59.7142 67.8322Z" fill="#142A3B"/>
<path d="M28.6784 26.8594C28.6182 26.8594 28.5604 26.8354 28.5178 26.7928C28.4751 26.7502 28.4512 26.6924 28.4512 26.6321V24.7912C28.4512 24.7309 28.4751 24.6731 28.5178 24.6305C28.5604 24.5879 28.6182 24.5639 28.6784 24.5639C28.7387 24.5639 28.7965 24.5879 28.8391 24.6305C28.8818 24.6731 28.9057 24.7309 28.9057 24.7912V26.6321C28.9057 26.6924 28.8818 26.7502 28.8391 26.7928C28.7965 26.8354 28.7387 26.8594 28.6784 26.8594Z" fill="#142A3B"/>
<path d="M28.6784 36.2776C28.6182 36.2776 28.5604 36.2537 28.5178 36.2111C28.4751 36.1685 28.4512 36.1106 28.4512 36.0503V28.7276C28.4512 28.6674 28.4751 28.6096 28.5178 28.567C28.5604 28.5243 28.6182 28.5004 28.6784 28.5004C28.7387 28.5004 28.7965 28.5243 28.8391 28.567C28.8818 28.6096 28.9057 28.6674 28.9057 28.7276V36.0503C28.9057 36.1106 28.8818 36.1685 28.8391 36.2111C28.7965 36.2537 28.7387 36.2776 28.6784 36.2776Z" fill="#142A3B"/>
<path d="M64.0713 29.1253C63.526 29.1253 62.993 28.9636 62.5397 28.6607C62.0863 28.3577 61.733 27.9272 61.5243 27.4234C61.3157 26.9197 61.261 26.3654 61.3674 25.8306C61.4738 25.2959 61.7364 24.8046 62.1219 24.4191C62.5075 24.0335 62.9987 23.771 63.5334 23.6647C64.0682 23.5583 64.6226 23.6128 65.1263 23.8215C65.63 24.0301 66.0606 24.3835 66.3635 24.8369C66.6664 25.2902 66.8281 25.8233 66.8281 26.3685C66.8275 27.0995 66.5368 27.8003 66.02 28.3172C65.5031 28.8341 64.8022 29.1247 64.0713 29.1253ZM64.0713 24.4071C63.6834 24.4071 63.3042 24.5221 62.9816 24.7377C62.6591 24.9532 62.4076 25.2595 62.2592 25.6179C62.1107 25.9763 62.0719 26.3707 62.1476 26.7511C62.2233 27.1316 62.4101 27.481 62.6844 27.7553C62.9587 28.0296 63.3082 28.2164 63.6886 28.2921C64.0691 28.3678 64.4634 28.3289 64.8218 28.1805C65.1802 28.032 65.4866 27.7807 65.7021 27.4582C65.9176 27.1356 66.0327 26.7564 66.0327 26.3685C66.0321 25.8485 65.8252 25.3499 65.4575 24.9822C65.0898 24.6145 64.5913 24.4077 64.0713 24.4071Z" fill="#142A3B"/>
<path d="M35.7529 29.1253C35.2077 29.1253 34.6746 28.9636 34.2213 28.6607C33.7679 28.3577 33.4146 27.9272 33.2059 27.4234C32.9973 26.9197 32.9427 26.3654 33.0491 25.8306C33.1554 25.2959 33.418 24.8046 33.8035 24.4191C34.1891 24.0335 34.6803 23.771 35.2151 23.6647C35.7499 23.5583 36.3042 23.6128 36.8079 23.8215C37.3116 24.0301 37.7422 24.3835 38.0451 24.8369C38.3481 25.2902 38.5097 25.8233 38.5097 26.3685C38.5091 27.0995 38.2185 27.8003 37.7016 28.3172C37.1847 28.8341 36.4839 29.1247 35.7529 29.1253ZM35.7529 24.4071C35.365 24.4071 34.9858 24.5221 34.6632 24.7377C34.3407 24.9532 34.0893 25.2595 33.9409 25.6179C33.7924 25.9763 33.7535 26.3707 33.8292 26.7511C33.9049 27.1316 34.0917 27.481 34.366 27.7553C34.6403 28.0296 34.9898 28.2164 35.3702 28.2921C35.7507 28.3678 36.1451 28.3289 36.5035 28.1805C36.8619 28.032 37.1682 27.7807 37.3837 27.4582C37.5992 27.1356 37.7143 26.7564 37.7143 26.3685C37.7137 25.8485 37.5068 25.3499 37.1391 24.9822C36.7715 24.6145 36.2729 24.4077 35.7529 24.4071Z" fill="#142A3B"/>
<path d="M45.192 29.1253C44.6469 29.1249 44.1141 28.9628 43.661 28.6596C43.208 28.3564 42.855 27.9257 42.6467 27.4219C42.4384 26.9181 42.3841 26.364 42.4908 25.8293C42.5974 25.2947 42.8601 24.8036 43.2458 24.4183C43.6314 24.033 44.1226 23.7707 44.6573 23.6645C45.192 23.5583 45.7462 23.613 46.2498 23.8217C46.7534 24.0304 47.1838 24.3838 47.4867 24.8371C47.7895 25.2904 47.9511 25.8234 47.9511 26.3686C47.9505 27.0999 47.6596 27.8011 47.1422 28.318C46.6248 28.835 45.9234 29.1253 45.192 29.1253ZM45.192 24.4071C44.8042 24.4076 44.4252 24.523 44.103 24.7388C43.7807 24.9546 43.5297 25.2611 43.3816 25.6195C43.2335 25.9779 43.195 26.3722 43.2709 26.7525C43.3468 27.1328 43.5338 27.4821 43.8082 27.7562C44.0826 28.0302 44.4321 28.2169 44.8125 28.2924C45.1929 28.3679 45.5871 28.3288 45.9454 28.1803C46.3037 28.0318 46.6098 27.7805 46.8253 27.458C47.0407 27.1355 47.1557 26.7564 47.1557 26.3686C47.1551 25.8482 46.9479 25.3493 46.5797 24.9815C46.2115 24.6137 45.7124 24.4071 45.192 24.4071Z" fill="#142A3B"/>
<path d="M54.6338 29.1253C54.0885 29.1253 53.5555 28.9636 53.1022 28.6607C52.6488 28.3577 52.2955 27.9272 52.0868 27.4234C51.8782 26.9197 51.8235 26.3654 51.9299 25.8306C52.0363 25.2959 52.2989 24.8046 52.6844 24.4191C53.07 24.0335 53.5612 23.771 54.0959 23.6647C54.6307 23.5583 55.1851 23.6128 55.6888 23.8215C56.1925 24.0301 56.6231 24.3835 56.926 24.8369C57.2289 25.2902 57.3906 25.8233 57.3906 26.3685C57.3894 27.0993 57.0986 27.7998 56.5819 28.3165C56.0651 28.8333 55.3646 29.1241 54.6338 29.1253ZM54.6338 24.4071C54.2459 24.4071 53.8667 24.5221 53.5441 24.7377C53.2216 24.9532 52.9702 25.2595 52.8218 25.6179C52.6733 25.9763 52.6344 26.3707 52.7101 26.7511C52.7858 27.1316 52.9726 27.481 53.2469 27.7553C53.5212 28.0296 53.8707 28.2164 54.2511 28.2921C54.6316 28.3678 55.026 28.3289 55.3844 28.1805C55.7428 28.032 56.0491 27.7807 56.2646 27.4582C56.4801 27.1356 56.5952 26.7564 56.5952 26.3685C56.594 25.8487 56.3869 25.3505 56.0193 24.9829C55.6518 24.6153 55.1536 24.4083 54.6338 24.4071Z" fill="#142A3B"/>
<path d="M64.0716 24.4071C63.9661 24.4071 63.8649 24.3653 63.7903 24.2907C63.7158 24.2161 63.6738 24.1149 63.6738 24.0094V18.0389C63.6738 17.9334 63.7158 17.8323 63.7903 17.7577C63.8649 17.6831 63.9661 17.6412 64.0716 17.6412C64.177 17.6412 64.2782 17.6831 64.3528 17.7577C64.4274 17.8323 64.4693 17.9334 64.4693 18.0389V24.0094C64.4693 24.1149 64.4274 24.2161 64.3528 24.2907C64.2782 24.3653 64.177 24.4071 64.0716 24.4071Z" fill="#142A3B"/>
<path d="M54.6106 24.4071C54.5051 24.4071 54.4039 24.3653 54.3294 24.2907C54.2548 24.2161 54.2129 24.1149 54.2129 24.0094V18.0389C54.2129 17.9334 54.2548 17.8323 54.3294 17.7577C54.4039 17.6831 54.5051 17.6412 54.6106 17.6412C54.7161 17.6412 54.8172 17.6831 54.8918 17.7577C54.9664 17.8323 55.0083 17.9334 55.0083 18.0389V24.0094C55.0083 24.1149 54.9664 24.2161 54.8918 24.2907C54.8172 24.3653 54.7161 24.4071 54.6106 24.4071Z" fill="#142A3B"/>
<path d="M45.1575 24.4071C45.052 24.4071 44.9508 24.3653 44.8762 24.2907C44.8016 24.2161 44.7598 24.1149 44.7598 24.0094V18.0389C44.7598 17.9334 44.8016 17.8323 44.8762 17.7577C44.9508 17.6831 45.052 17.6412 45.1575 17.6412C45.263 17.6412 45.3642 17.6831 45.4388 17.7577C45.5133 17.8323 45.5552 17.9334 45.5552 18.0389V24.0094C45.5552 24.1149 45.5133 24.2161 45.4388 24.2907C45.3642 24.3653 45.263 24.4071 45.1575 24.4071Z" fill="#142A3B"/>
<path d="M35.6848 24.4071C35.5794 24.4071 35.4782 24.3653 35.4036 24.2907C35.329 24.2161 35.2871 24.1149 35.2871 24.0094V18.0389C35.2871 17.9334 35.329 17.8323 35.4036 17.7577C35.4782 17.6831 35.5794 17.6412 35.6848 17.6412C35.7903 17.6412 35.8915 17.6831 35.966 17.7577C36.0406 17.8323 36.0826 17.9334 36.0826 18.0389V24.0094C36.0826 24.1149 36.0406 24.2161 35.966 24.2907C35.8915 24.3653 35.7903 24.4071 35.6848 24.4071Z" fill="#142A3B"/>
<path d="M61.9761 76.7958C61.9157 76.7959 61.8561 76.7822 61.8018 76.7558C61.7475 76.7294 61.7 76.6909 61.6628 76.6434C61.6256 76.5958 61.5996 76.5405 61.5869 76.4814C61.5743 76.4224 61.5753 76.3613 61.5898 76.3027L63.3852 69.0299C63.4035 68.9605 63.4395 68.8971 63.4897 68.8458L85.8852 46.4504C86.2782 46.045 86.748 45.7219 87.2671 45.4999C87.7862 45.2778 88.3443 45.1613 88.9089 45.157C89.4735 45.1527 90.0333 45.2607 90.5557 45.4748C91.0781 45.6889 91.5527 46.0049 91.9518 46.4042C92.351 46.8035 92.6667 47.2782 92.8807 47.8007C93.0946 48.3232 93.2024 48.8831 93.1979 49.4476C93.1934 50.0122 93.0767 50.5703 92.8544 51.0893C92.6322 51.6083 92.3089 52.0779 91.9034 52.4708L69.5102 74.864C69.4593 74.9159 69.3947 74.9522 69.3239 74.9686L62.0716 76.7867C62.0403 76.7942 62.0082 76.7973 61.9761 76.7958ZM64.1307 69.3321L62.5193 75.8527L69.0239 74.2276L91.342 51.9095C91.9718 51.2564 92.32 50.3822 92.3116 49.4749C92.3032 48.5677 91.939 47.7001 91.2974 47.0587C90.6557 46.4174 89.7879 46.0535 88.8806 46.0455C87.9734 46.0376 87.0993 46.3862 86.4466 47.0162L64.1307 69.3321Z" fill="#142A3B"/>
<path d="M64.5031 75.9934C64.4732 75.9936 64.4435 75.9879 64.4158 75.9766C64.3881 75.9653 64.3629 75.9486 64.3417 75.9275L62.4394 74.023C62.4022 73.9795 62.3827 73.9236 62.3849 73.8664C62.3871 73.8092 62.4109 73.755 62.4514 73.7145C62.4918 73.674 62.5461 73.6503 62.6033 73.6481C62.6605 73.6459 62.7164 73.6654 62.7599 73.7026L64.6644 75.6048C64.6857 75.6259 64.7026 75.6511 64.7142 75.6788C64.7257 75.7065 64.7316 75.7362 64.7316 75.7662C64.7316 75.7962 64.7257 75.8259 64.7142 75.8536C64.7026 75.8813 64.6857 75.9064 64.6644 75.9275C64.6432 75.9486 64.618 75.9653 64.5903 75.9766C64.5626 75.9879 64.533 75.9936 64.5031 75.9934Z" fill="#142A3B"/>
<path d="M91.9143 52.1253C91.8843 52.1252 91.8545 52.1191 91.8268 52.1074C91.7991 52.0957 91.774 52.0786 91.753 52.0571L86.3348 46.639C86.3135 46.6179 86.2966 46.5927 86.2851 46.565C86.2735 46.5373 86.2676 46.5076 86.2676 46.4776C86.2676 46.4476 86.2735 46.4179 86.2851 46.3902C86.2966 46.3625 86.3135 46.3374 86.3348 46.3163C86.3774 46.274 86.435 46.2502 86.495 46.2502C86.5551 46.2502 86.6127 46.274 86.6553 46.3163L92.0757 51.7367C92.118 51.7792 92.1418 51.8369 92.1418 51.8969C92.1418 51.9569 92.118 52.0146 92.0757 52.0571C92.0546 52.0786 92.0295 52.0957 92.0018 52.1074C91.9741 52.1191 91.9444 52.1252 91.9143 52.1253Z" fill="#142A3B"/>
<path d="M84.6134 56.7889C84.5835 56.7891 84.5538 56.7833 84.5261 56.772C84.4984 56.7607 84.4732 56.744 84.452 56.723C84.4307 56.7018 84.4138 56.6768 84.4022 56.6491C84.3907 56.6214 84.3848 56.5916 84.3848 56.5616C84.3848 56.5316 84.3907 56.502 84.4022 56.4743C84.4138 56.4466 84.4307 56.4214 84.452 56.4003L90.4361 50.4185C90.4564 50.3947 90.4815 50.3753 90.5097 50.3617C90.5379 50.348 90.5686 50.3405 90.5999 50.3393C90.6312 50.338 90.6624 50.3433 90.6916 50.3547C90.7207 50.3661 90.7473 50.3835 90.7694 50.4056C90.7916 50.4278 90.8089 50.4542 90.8203 50.4834C90.8317 50.5126 90.837 50.5438 90.8358 50.5751C90.8346 50.6064 90.8269 50.6371 90.8133 50.6653C90.7996 50.6935 90.7803 50.7186 90.7565 50.739L84.7747 56.723C84.7535 56.744 84.7283 56.7607 84.7006 56.772C84.6729 56.7833 84.6433 56.7891 84.6134 56.7889Z" fill="#142A3B"/>
<path d="M69.2498 69.3299C69.2048 69.3297 69.1609 69.3162 69.1237 69.291C69.0864 69.2659 69.0574 69.2303 69.0404 69.1887C69.0233 69.1471 69.019 69.1014 69.028 69.0573C69.0369 69.0133 69.0588 68.9729 69.0907 68.9413L89.0248 49.0072C89.0674 48.9649 89.125 48.941 89.185 48.941C89.2451 48.941 89.3026 48.9649 89.3452 49.0072C89.3665 49.0283 89.3834 49.0534 89.395 49.0811C89.4065 49.1088 89.4125 49.1385 89.4125 49.1685C89.4125 49.1985 89.4065 49.2283 89.395 49.256C89.3834 49.2837 89.3665 49.3088 89.3452 49.3299L69.4111 69.264C69.3899 69.285 69.3647 69.3017 69.337 69.313C69.3093 69.3243 69.2797 69.3301 69.2498 69.3299Z" fill="#142A3B"/>
<path d="M65.0712 70.564C65.0412 70.5639 65.0114 70.5578 64.9837 70.546C64.956 70.5343 64.9309 70.5173 64.9098 70.4958C64.8675 70.4532 64.8438 70.3956 64.8438 70.3355C64.8438 70.2755 64.8675 70.218 64.9098 70.1754L75.8553 59.2299C75.8765 59.2086 75.9016 59.1917 75.9293 59.1802C75.957 59.1687 75.9867 59.1627 76.0167 59.1627C76.0467 59.1627 76.0764 59.1687 76.1041 59.1802C76.1318 59.1917 76.1569 59.2086 76.178 59.2299C76.2204 59.2725 76.2441 59.3301 76.2441 59.3902C76.2441 59.4502 76.2204 59.5078 76.178 59.5504L65.2303 70.4958C65.1884 70.5386 65.1312 70.5632 65.0712 70.564Z" fill="#142A3B"/>
</g>
<defs>
<clipPath id="clip0_3005_28903">
<rect width="85.8205" height="70.9568" fill="white" transform="translate(7.32617 11.9276)"/>
</clipPath>
</defs>
</svg>
