<svg width="130" height="80" viewBox="0 0 130 80" fill="none" xmlns="http://www.w3.org/2000/svg">
<g clip-path="url(#clip0_3995_28686)">
<g opacity="0.1">
<path d="M15.482 0.90784C14.2049 1.26256 12.9637 1.73553 11.7746 2.32059C4.09449 6.11595 -0.389861 15.2875 0.710997 23.6865C2.20687 35.1113 13.9537 31.7524 20.7531 37.8593C25.4609 42.0814 25.1436 49.5331 28.2454 55.0386C29.511 57.2333 31.301 59.0809 33.4558 60.4167C35.6106 61.7525 38.063 62.5349 40.5944 62.694C43.1283 62.8006 45.6494 62.2793 47.9324 61.1765C50.2155 60.0737 52.1895 58.4237 53.6784 56.3738C56.1424 52.9082 57.1171 48.4404 60.112 45.4177C65.6778 39.8087 75.0902 41.7193 82.5954 39.2268C87.1446 37.7138 91.153 34.3096 92.8561 29.8353C94.5592 25.3611 93.6817 19.8685 90.2658 16.5031C85.83 12.1161 78.7652 12.1872 72.5486 12.7692C59.675 13.9718 48.3264 6.79485 36.6314 2.69883C29.8708 0.325921 22.2749 -0.993073 15.482 0.90784Z" fill="#55D890"/>
</g>
<path d="M124.519 80.0001H15.0806C13.6275 79.995 12.2353 79.4164 11.2078 78.3905C10.1803 77.3646 9.60082 75.9746 9.5957 74.5237V72.2381C9.59656 71.6307 9.83878 71.0486 10.2692 70.6194C10.6996 70.1903 11.283 69.9492 11.8913 69.9492H57.7648C57.8338 69.9488 57.9022 69.9621 57.966 69.9882C58.0299 70.0144 58.0878 70.0529 58.1366 70.1017C58.1854 70.1504 58.2241 70.2083 58.2503 70.272C58.2765 70.3358 58.2898 70.4041 58.2893 70.473V72.6066C58.2902 72.9399 58.4231 73.2593 58.6591 73.4949C58.8951 73.7306 59.215 73.8634 59.5487 73.8642H80.6205C80.9543 73.8634 81.2742 73.7306 81.5103 73.4949C81.7463 73.2593 81.8792 72.9399 81.8801 72.6066V70.473C81.8796 70.4041 81.8929 70.3358 81.9191 70.272C81.9453 70.2083 81.984 70.1504 82.0328 70.1017C82.0816 70.0529 82.1395 70.0144 82.2034 69.9882C82.2672 69.9621 82.3356 69.9488 82.4046 69.9492H127.705C128.313 69.9501 128.895 70.1915 129.325 70.6206C129.755 71.0496 129.996 71.6313 129.997 72.2381V74.5237C129.992 75.9735 129.414 77.3625 128.388 78.3882C127.361 79.414 125.971 79.9933 124.519 80.0001ZM11.8946 70.9967C11.5645 70.9967 11.248 71.1274 11.0143 71.3601C10.7806 71.5928 10.6489 71.9085 10.648 72.2381V74.5237C10.6497 75.6978 11.1176 76.8234 11.9491 77.6536C12.7806 78.4838 13.9079 78.951 15.0839 78.9527H124.522C125.698 78.951 126.825 78.4837 127.656 77.6534C128.487 76.8231 128.954 75.6975 128.955 74.5237V72.2381C128.955 71.9088 128.824 71.5931 128.591 71.3603C128.357 71.1275 128.041 70.9967 127.711 70.9967H82.9194V72.6131C82.9185 73.2242 82.675 73.81 82.2423 74.242C81.8095 74.6741 81.2229 74.9173 80.6109 74.9181H59.5391C58.9271 74.9173 58.3404 74.6741 57.9077 74.242C57.4749 73.81 57.2314 73.2242 57.2306 72.6131V70.9967H11.8946Z" fill="#142A3B"/>
<path d="M82.1391 70.9967H57.59C57.4511 70.9958 57.3182 70.9404 57.22 70.8423C57.1219 70.7443 57.0663 70.6116 57.0654 70.4729C57.0654 70.334 57.1207 70.2008 57.2191 70.1026C57.3175 70.0044 57.4509 69.9492 57.59 69.9492H82.1391C82.2782 69.9492 82.4116 70.0044 82.51 70.1026C82.6084 70.2008 82.6637 70.334 82.6637 70.4729C82.6628 70.6116 82.6072 70.7443 82.509 70.8423C82.4109 70.9404 82.2779 70.9958 82.1391 70.9967Z" fill="#142A3B"/>
<path d="M119.222 70.995C119.083 70.9942 118.95 70.9387 118.852 70.8407C118.754 70.7426 118.698 70.6099 118.697 70.4713V8.47177C118.697 8.14194 118.565 7.82585 118.331 7.59262C118.098 7.35939 117.781 7.22798 117.451 7.22713H22.1488C21.8188 7.22798 21.5026 7.35949 21.2695 7.59281C21.0364 7.82614 20.9056 8.14223 20.9056 8.47177V70.4713C20.9047 70.6099 20.8491 70.7426 20.751 70.8407C20.6528 70.9387 20.5199 70.9942 20.381 70.995C20.2419 70.995 20.1085 70.9398 20.0101 70.8416C19.9117 70.7434 19.8564 70.6102 19.8564 70.4713V8.47177C19.8564 7.86443 20.0979 7.28192 20.5277 6.85216C20.9575 6.42241 21.5406 6.18054 22.1488 6.17969H117.451C118.059 6.18054 118.643 6.4223 119.073 6.85197C119.504 7.28163 119.746 7.86414 119.747 8.47177V70.4713C119.746 70.6099 119.69 70.7426 119.592 70.8407C119.494 70.9387 119.361 70.9942 119.222 70.995Z" fill="#142A3B"/>
<path d="M113.679 66.6984H25.9338C25.7017 66.6976 25.4794 66.6049 25.3155 66.4407C25.1517 66.2765 25.0596 66.0541 25.0596 65.8223V12.212C25.0596 11.9802 25.1517 11.7579 25.3155 11.5937C25.4794 11.4295 25.7017 11.3368 25.9338 11.3359H113.679C113.911 11.3359 114.135 11.4282 114.299 11.5925C114.464 11.7568 114.556 11.9797 114.556 12.212V65.8223C114.556 66.0547 114.464 66.2775 114.299 66.4418C114.135 66.6061 113.911 66.6984 113.679 66.6984ZM25.9338 11.9825C25.9038 11.9825 25.8741 11.9885 25.8464 12C25.8187 12.0116 25.7935 12.0286 25.7724 12.0499C25.7513 12.0713 25.7348 12.0966 25.7236 12.1244C25.7124 12.1523 25.7067 12.1821 25.7071 12.212V65.8223C25.7067 65.8523 25.7124 65.8821 25.7236 65.9099C25.7348 65.9377 25.7513 65.9631 25.7724 65.9844C25.7935 66.0058 25.8187 66.0228 25.8464 66.0343C25.8741 66.0459 25.9038 66.0519 25.9338 66.0519H113.679C113.74 66.0519 113.798 66.0277 113.841 65.9846C113.884 65.9416 113.909 65.8832 113.909 65.8223V12.212C113.909 12.1512 113.884 12.0928 113.841 12.0497C113.798 12.0067 113.74 11.9825 113.679 11.9825H25.9338Z" fill="#142A3B"/>
<path d="M69.7997 10.8384C69.377 10.8334 68.973 10.6635 68.6742 10.3651C68.3753 10.0667 68.2052 9.66342 68.2002 9.24142C68.2002 8.81606 68.3681 8.40783 68.6675 8.10524C68.9669 7.80265 69.3737 7.6301 69.7997 7.625C70.229 7.625 70.6408 7.7953 70.9444 8.09843C71.248 8.40157 71.4186 8.81272 71.4186 9.24142C71.4135 9.66675 71.2407 10.0729 70.9376 10.3719C70.6346 10.6708 70.2257 10.8385 69.7997 10.8384ZM69.7997 8.28773C69.5454 8.29281 69.3034 8.39723 69.1254 8.57857C68.9474 8.7599 68.8477 9.00369 68.8478 9.25758C68.8478 9.50966 68.948 9.75141 69.1265 9.92966C69.305 10.1079 69.5472 10.208 69.7997 10.208C70.0539 10.2081 70.2982 10.1086 70.4798 9.93087C70.6614 9.75316 70.7659 9.51143 70.771 9.25758C70.7723 9.12941 70.7481 9.00225 70.6999 8.88346C70.6516 8.76467 70.5802 8.6566 70.4899 8.56551C70.3996 8.47442 70.2922 8.40212 70.1737 8.35278C70.0552 8.30343 69.928 8.27802 69.7997 8.27803V8.28773Z" fill="#142A3B"/>
<path d="M51.9105 33.9306C51.8543 33.9306 51.7992 33.916 51.7504 33.8882C51.7016 33.8604 51.6608 33.8204 51.6321 33.7722C51.5881 33.6988 51.5748 33.611 51.5954 33.528C51.6161 33.445 51.6689 33.3736 51.7422 33.3293L63.0066 26.5823C63.0558 26.554 63.1116 26.539 63.1684 26.539C63.2253 26.539 63.2811 26.554 63.3303 26.5823L76.6054 33.2064L87.7079 17.6888C87.7579 17.6196 87.8332 17.573 87.9175 17.559C88.0018 17.5451 88.0883 17.565 88.158 17.6144C88.1928 17.6392 88.2222 17.6705 88.2448 17.7067C88.2674 17.7429 88.2826 17.7832 88.2895 17.8253C88.2965 17.8673 88.2949 17.9103 88.2851 17.9518C88.2753 17.9933 88.2575 18.0325 88.2325 18.067L76.9712 33.811C76.9263 33.8734 76.8606 33.9178 76.7858 33.9361C76.711 33.9545 76.6322 33.9457 76.5633 33.9112L63.204 27.2451L52.0919 33.9015C52.0352 33.9275 51.9725 33.9375 51.9105 33.9306Z" fill="#142A3B"/>
<path d="M55.2261 49.3516H48.5918C48.5578 49.3516 48.5303 49.3791 48.5303 49.413V60.5372C48.5303 60.5711 48.5578 60.5986 48.5918 60.5986H55.2261C55.2601 60.5986 55.2876 60.5711 55.2876 60.5372V49.413C55.2876 49.3791 55.2601 49.3516 55.2261 49.3516Z" fill="#00E1D8"/>
<path d="M55.2294 60.9183H48.5984C48.4962 60.9183 48.3982 60.8778 48.326 60.8056C48.2537 60.7335 48.2131 60.6356 48.2131 60.5336V49.4094C48.2114 49.3578 48.22 49.3063 48.2386 49.2582C48.2571 49.21 48.2853 49.166 48.3212 49.1289C48.3572 49.0918 48.4003 49.0623 48.4479 49.0422C48.4955 49.0221 48.5467 49.0117 48.5984 49.0117H55.2359C55.3375 49.0126 55.4347 49.0535 55.5063 49.1255C55.5778 49.1976 55.618 49.295 55.618 49.3964V60.5207C55.6203 60.5726 55.6117 60.6245 55.5931 60.6731C55.5744 60.7217 55.5461 60.766 55.5097 60.8033C55.4734 60.8405 55.4297 60.8699 55.3815 60.8897C55.3333 60.9095 55.2815 60.9192 55.2294 60.9183ZM48.8542 60.2717H54.964V49.6583H48.8542V60.2717Z" fill="#142A3B"/>
<path d="M67.6177 40.3555H60.9834C60.9494 40.3555 60.9219 40.383 60.9219 40.4169V60.5381C60.9219 60.572 60.9494 60.5995 60.9834 60.5995H67.6177C67.6517 60.5995 67.6792 60.572 67.6792 60.5381V40.4169C67.6792 40.383 67.6517 40.3555 67.6177 40.3555Z" fill="#00E1D8"/>
<path d="M67.6173 60.918H60.9829C60.8807 60.918 60.7828 60.8775 60.7105 60.8053C60.6383 60.7332 60.5977 60.6353 60.5977 60.5333V40.4121C60.5977 40.31 60.6383 40.2122 60.7105 40.14C60.7828 40.0679 60.8807 40.0273 60.9829 40.0273H67.6173C67.7195 40.0273 67.8175 40.0679 67.8897 40.14C67.962 40.2122 68.0026 40.31 68.0026 40.4121V60.5333C68.0026 60.5838 67.9925 60.6338 67.9732 60.6805C67.9538 60.7272 67.9255 60.7696 67.8897 60.8053C67.8539 60.841 67.8114 60.8694 67.7647 60.8887C67.7179 60.908 67.6679 60.918 67.6173 60.918ZM61.2452 60.2714H67.355V40.6739H61.2452V60.2714Z" fill="#142A3B"/>
<path d="M80.0083 47.1016H73.374C73.34 47.1016 73.3125 47.1291 73.3125 47.163V60.5373C73.3125 60.5712 73.34 60.5987 73.374 60.5987H80.0083C80.0423 60.5987 80.0698 60.5712 80.0698 60.5373V47.163C80.0698 47.1291 80.0423 47.1016 80.0083 47.1016Z" fill="#00E1D8"/>
<path d="M80.005 60.9178H73.3706C73.2684 60.9178 73.1705 60.8773 73.0982 60.8051C73.026 60.733 72.9854 60.6351 72.9854 60.5331V47.1621C72.9854 47.06 73.026 46.9622 73.0982 46.89C73.1705 46.8179 73.2684 46.7773 73.3706 46.7773H80.005C80.1072 46.7773 80.2051 46.8179 80.2774 46.89C80.3497 46.9622 80.3903 47.06 80.3903 47.1621V60.5331C80.3903 60.6351 80.3497 60.733 80.2774 60.8051C80.2051 60.8773 80.1072 60.9178 80.005 60.9178ZM73.6329 60.2712H79.7427V47.4239H73.6329V60.2712Z" fill="#142A3B"/>
<path d="M51.9108 35.8556C53.1553 35.8556 54.1643 34.8482 54.1643 33.6055C54.1643 32.3629 53.1553 31.3555 51.9108 31.3555C50.6662 31.3555 49.6572 32.3629 49.6572 33.6055C49.6572 34.8482 50.6662 35.8556 51.9108 35.8556Z" fill="#00E1D8"/>
<path d="M51.9106 36.1804C51.2236 36.1804 50.5648 35.9079 50.079 35.4229C49.5933 34.9378 49.3203 34.28 49.3203 33.5941C49.3203 32.9082 49.5933 32.2503 50.079 31.7653C50.5648 31.2803 51.2236 31.0078 51.9106 31.0078C52.5975 31.0078 53.2564 31.2803 53.7421 31.7653C54.2279 32.2503 54.5008 32.9082 54.5008 33.5941C54.5008 34.28 54.2279 34.9378 53.7421 35.4229C53.2564 35.9079 52.5975 36.1804 51.9106 36.1804ZM51.9106 31.6802C51.3953 31.6802 50.9012 31.8846 50.5369 32.2484C50.1725 32.6121 49.9679 33.1055 49.9679 33.62C49.9679 34.1344 50.1725 34.6278 50.5369 34.9915C50.9012 35.3553 51.3953 35.5597 51.9106 35.5597C52.4258 35.5597 52.9199 35.3553 53.2843 34.9915C53.6486 34.6278 53.8533 34.1344 53.8533 33.62C53.8533 33.1055 53.6486 32.6121 53.2843 32.2484C52.9199 31.8846 52.4258 31.6802 51.9106 31.6802Z" fill="#142A3B"/>
<path d="M63.1754 29.1095C64.42 29.1095 65.4289 28.1021 65.4289 26.8594C65.4289 25.6168 64.42 24.6094 63.1754 24.6094C61.9308 24.6094 60.9219 25.6168 60.9219 26.8594C60.9219 28.1021 61.9308 29.1095 63.1754 29.1095Z" fill="#00E1D8"/>
<path d="M63.1684 29.4298C62.4842 29.4298 61.8278 29.1596 61.3425 28.6781C60.8572 28.1965 60.5824 27.5428 60.5781 26.8597C60.5781 26.1738 60.8511 25.516 61.3368 25.0309C61.8226 24.5459 62.4814 24.2734 63.1684 24.2734C63.8526 24.2777 64.5072 24.5521 64.9895 25.0366C65.4718 25.5212 65.7425 26.1766 65.7425 26.8597C65.7383 27.54 65.4656 28.1913 64.9838 28.6724C64.502 29.1534 63.8498 29.4256 63.1684 29.4298ZM63.1684 24.9329C62.6531 24.9329 62.159 25.1373 61.7947 25.5011C61.4304 25.8648 61.2257 26.3582 61.2257 26.8726C61.23 27.3843 61.4365 27.8735 61.8004 28.2338C62.1642 28.5941 62.6559 28.7962 63.1684 28.7962C63.678 28.792 64.1656 28.588 64.526 28.2281C64.8863 27.8683 65.0907 27.3815 65.0949 26.8726C65.095 26.361 64.8925 25.8701 64.5316 25.5067C64.1708 25.1434 63.6808 24.9372 63.1684 24.9329Z" fill="#142A3B"/>
<path d="M76.693 35.8556C77.9376 35.8556 78.9465 34.8482 78.9465 33.6055C78.9465 32.3629 77.9376 31.3555 76.693 31.3555C75.4484 31.3555 74.4395 32.3629 74.4395 33.6055C74.4395 34.8482 75.4484 35.8556 76.693 35.8556Z" fill="#00E1D8"/>
<path d="M76.6892 36.1804C76.005 36.1761 75.3504 35.9017 74.8681 35.4172C74.3858 34.9326 74.1152 34.2772 74.1152 33.5941C74.1152 32.911 74.3858 32.2556 74.8681 31.771C75.3504 31.2864 76.005 31.0121 76.6892 31.0078C77.3762 31.0078 78.0351 31.2803 78.5209 31.7653C79.0067 32.2503 79.2795 32.9082 79.2795 33.5941C79.2795 34.28 79.0067 34.9378 78.5209 35.4229C78.0351 35.9079 77.3762 36.1804 76.6892 36.1804ZM76.6892 31.6802C76.1768 31.6845 75.6869 31.8908 75.3261 32.2541C74.9653 32.6174 74.7628 33.1083 74.7628 33.62C74.7628 34.1316 74.9653 34.6226 75.3261 34.9859C75.6869 35.3492 76.1768 35.5554 76.6892 35.5597C77.2044 35.5597 77.6986 35.3553 78.0629 34.9915C78.4272 34.6278 78.6319 34.1344 78.6319 33.62C78.6319 33.1055 78.4272 32.6121 78.0629 32.2484C77.6986 31.8846 77.2044 31.6802 76.6892 31.6802Z" fill="#142A3B"/>
<path d="M87.9537 20.1134C89.1983 20.1134 90.2072 19.106 90.2072 17.8633C90.2072 16.6207 89.1983 15.6133 87.9537 15.6133C86.7091 15.6133 85.7002 16.6207 85.7002 17.8633C85.7002 19.106 86.7091 20.1134 87.9537 20.1134Z" fill="#00E1D8"/>
<path d="M87.9545 20.4298C87.2703 20.4298 86.614 20.1596 86.1287 19.678C85.6434 19.1965 85.3685 18.5428 85.3643 17.8597C85.3643 17.1738 85.6372 16.516 86.123 16.0309C86.6087 15.5459 87.2675 15.2734 87.9545 15.2734C88.6415 15.2734 89.3005 15.5459 89.7862 16.0309C90.272 16.516 90.5448 17.1738 90.5448 17.8597C90.5405 18.5428 90.2658 19.1965 89.7805 19.678C89.2952 20.1596 88.6387 20.4298 87.9545 20.4298ZM87.9545 15.9329C87.4393 15.9329 86.9451 16.1373 86.5808 16.5011C86.2165 16.8648 86.0118 17.3582 86.0118 17.8726C86.0161 18.3843 86.2226 18.8735 86.5865 19.2338C86.9504 19.5941 87.4421 19.7962 87.9545 19.7962C88.467 19.7962 88.9587 19.5941 89.3225 19.2338C89.6864 18.8735 89.8929 18.3843 89.8972 17.8726C89.8972 17.3582 89.6925 16.8648 89.3282 16.5011C88.9639 16.1373 88.4697 15.9329 87.9545 15.9329Z" fill="#142A3B"/>
<path d="M92.3999 35.8555H85.7656C85.7316 35.8555 85.7041 35.883 85.7041 35.9169V60.5382C85.7041 60.5722 85.7316 60.5997 85.7656 60.5997H92.3999C92.4339 60.5997 92.4614 60.5722 92.4614 60.5382V35.9169C92.4614 35.883 92.4339 35.8555 92.3999 35.8555Z" fill="#00E1D8"/>
<path d="M92.3998 60.9188H85.7622C85.66 60.9188 85.5621 60.8783 85.4898 60.8061C85.4176 60.734 85.377 60.6361 85.377 60.5341V35.916C85.377 35.8139 85.4176 35.7161 85.4898 35.6439C85.5621 35.5718 85.66 35.5312 85.7622 35.5312H92.3998C92.502 35.5313 92.6001 35.5718 92.6723 35.6439C92.7446 35.7161 92.7852 35.8139 92.7852 35.916V60.5341C92.7852 60.6361 92.7446 60.734 92.6723 60.8061C92.6001 60.8783 92.502 60.9188 92.3998 60.9188ZM86.0245 60.2722H92.1376V36.1778H86.0245V60.2722Z" fill="#142A3B"/>
<path d="M116.178 77.4161H105.765C105.679 77.4161 105.597 77.382 105.536 77.3214C105.476 77.2608 105.441 77.1786 105.441 77.0928C105.441 77.0071 105.476 76.9248 105.536 76.8642C105.597 76.8036 105.679 76.7695 105.765 76.7695H116.178C116.264 76.7695 116.346 76.8036 116.407 76.8642C116.468 76.9248 116.502 77.0071 116.502 77.0928C116.502 77.1786 116.468 77.2608 116.407 77.3214C116.346 77.382 116.264 77.4161 116.178 77.4161Z" fill="#142A3B"/>
<path d="M122.722 77.4161H119.222C119.136 77.4161 119.054 77.382 118.993 77.3214C118.933 77.2608 118.898 77.1786 118.898 77.0928C118.898 77.0071 118.933 76.9248 118.993 76.8642C119.054 76.8036 119.136 76.7695 119.222 76.7695H122.722C122.808 76.7695 122.891 76.8036 122.951 76.8642C123.012 76.9248 123.046 77.0071 123.046 77.0928C123.046 77.1786 123.012 77.2608 122.951 77.3214C122.891 77.382 122.808 77.4161 122.722 77.4161Z" fill="#142A3B"/>
<path d="M23.149 22.9834C23.0631 22.9834 22.9808 22.9493 22.9201 22.8887C22.8593 22.828 22.8252 22.7458 22.8252 22.6601V16.1944C22.8252 16.1086 22.8593 16.0264 22.9201 15.9658C22.9808 15.9051 23.0631 15.8711 23.149 15.8711C23.2348 15.8711 23.3172 15.9051 23.3779 15.9658C23.4386 16.0264 23.4728 16.1086 23.4728 16.1944V22.6601C23.4728 22.7458 23.4386 22.828 23.3779 22.8887C23.3172 22.9493 23.2348 22.9834 23.149 22.9834Z" fill="#142A3B"/>
<path d="M23.149 13.9869C23.0631 13.9869 22.9808 13.9528 22.9201 13.8922C22.8593 13.8316 22.8252 13.7493 22.8252 13.6636V10.8155C22.8252 10.7297 22.8593 10.6475 22.9201 10.5869C22.9808 10.5263 23.0631 10.4922 23.149 10.4922C23.2348 10.4922 23.3172 10.5263 23.3779 10.5869C23.4386 10.6475 23.4728 10.7297 23.4728 10.8155V13.6636C23.4728 13.7493 23.4386 13.8316 23.3779 13.8922C23.3172 13.9528 23.2348 13.9869 23.149 13.9869Z" fill="#142A3B"/>
</g>
<defs>
<clipPath id="clip0_3995_28686">
<rect width="129.455" height="80" fill="white" transform="translate(0.545898)"/>
</clipPath>
</defs>
</svg>
